<?xml version="1.0" standalone="no"?>
<!DOCTYPE svg PUBLIC "-//W3C//DTD SVG 1.1//EN" "http://www.w3.org/Graphics/SVG/1.1/DTD/svg11.dtd" >
<svg xmlns="http://www.w3.org/2000/svg">
<metadata>
Created by FontPrep 20130207 at Wed Aug  5 10:32:44 2015
 By Manuel Cilurzo
(URW)++,Copyright 2014 by (URW)++ Design &#38; Development
</metadata>
<defs>
<font id="aa520db4f4ca6198b154067b50a409d6" horiz-adv-x='1024' >
  <font-face 
    font-family="SBB-Bold"
    font-weight="700"
    font-stretch="normal"
    units-per-em="2048"
    panose-1="0 0 0 0 0 0 0 0 0 0"
    ascent="1697"
    descent="-351"
    x-height="1113"
    cap-height="1462"
    bbox="-307 -563 2732 2222"
    underline-thickness="196"
    underline-position="-102"
    unicode-range="U+0020-FB04"
  />
<missing-glyph horiz-adv-x="548" 
d="M438 55v1352h-328v-1352h328zM55 0v1462h438v-1462h-438z" />
    <glyph glyph-name="ff" unicode="ff" horiz-adv-x="1303" 
d="M1182 1468q51 0 152 -7v-223q-56 5 -116 5t-86 -24t-26 -92v-14h211v-206h-208v-907h-289v907h-371v-907h-289v907h-173v206h173q2 103 17 157t55 98q91 100 290 100q49 0 152 -7v-223q-56 5 -116 5t-86 -24t-26 -92v-14h374q2 103 17 157t55 98q91 100 290 100z" />
    <glyph glyph-name="fi" unicode="fi" horiz-adv-x="1209" 
d="M1113 1113v-1113h-290v1113h290zM1113 1563v-261h-290v261h290zM558 1243q-60 0 -86 -24t-26 -92v-14h211v-206h-208v-907h-289v907h-173v206h173q2 103 17 157t55 98q91 100 290 100q51 0 152 -7v-223q-56 5 -116 5z" />
    <glyph glyph-name="fl" unicode="fl" horiz-adv-x="1209" 
d="M1113 1462v-1462h-290v1462h290zM558 1243q-60 0 -86 -24t-26 -92v-14h211v-206h-208v-907h-289v907h-173v206h173q2 103 17 157t55 98q91 100 290 100q51 0 152 -7v-223q-56 5 -116 5z" />
    <glyph glyph-name="ffi" unicode="ffi" horiz-adv-x="1846" 
d="M1750 1113v-1113h-290v1113h290zM1750 1563v-261h-290v261h290zM450 907v-907h-289v907h-173v206h173q2 103 17 157t55 98q91 100 290 100q49 0 152 -7v-223q-56 5 -116 5t-86 -24t-26 -92v-14h349q2 103 17 157t55 98q91 100 290 100q52 0 153 -7v-223q-57 5 -117 5
t-86 -23.5t-26 -92.5v-14h212v-206h-209v-907h-289v907h-346z" />
    <glyph glyph-name=".notdef" horiz-adv-x="548" 
d="M438 55v1352h-328v-1352h328zM55 0v1462h438v-1462h-438z" />
    <glyph glyph-name="glyph1" horiz-adv-x="0" 
 />
    <glyph glyph-name="glyph2" horiz-adv-x="548" 
 />
    <glyph glyph-name="space" unicode=" " horiz-adv-x="548" 
 />
    <glyph glyph-name="exclam" unicode="!" horiz-adv-x="598" 
d="M479 314v-314h-317v314h317zM475 1462v-389l-81 -627h-146l-80 622v394h307z" />
    <glyph glyph-name="quotedbl" unicode="&#x22;" horiz-adv-x="785" 
d="M270 874h-151l-53 588h258zM666 874h-151l-53 588h258z" />
    <glyph glyph-name="numbersign" unicode="#" 
d="M693 818h-193l-25 -181h193zM825 459l-52 -371h-182l52 371h-194l-52 -371h-182l52 371h-228l25 178h228l26 181h-229l26 178h228l48 339h182l-48 -339h193l48 339h182l-48 -339h245l-25 -178h-245l-25 -181h245l-25 -178h-245z" />
    <glyph glyph-name="dollar" unicode="$" 
d="M862 396q0 102 -82 150q-23 14 -129 47v-393q211 26 211 196zM339 1064q0 -71 42 -109.5t149 -64.5v348q-191 -17 -191 -174zM1144 428q0 -176 -113 -295q-72 -77 -159.5 -112.5t-220.5 -42.5v-203h-121v204q-211 12 -330 107q-166 133 -168 375h284q-2 -238 214 -261
v423q-200 56 -286 106q-176 102 -177 312q0 121 62.5 216t162.5 139t238 53v180h121v-180q213 -11 327.5 -118.5t118.5 -299.5h-271q-4 182 -175 204v-373q14 -4 79 -20q215 -56 304 -137q110 -101 110 -277z" />
    <glyph glyph-name="percent" unicode="%" horiz-adv-x="1791" 
d="M396 1301q-136 -1 -136 -257q0 -132 31 -189t102 -57t103.5 62t32.5 194t-31.5 189.5t-101.5 57.5zM398 1450q166 0 253 -101t87 -295t-89 -299t-254 -105t-254.5 104t-89.5 297t90.5 296t256.5 103zM1426.5 120q102.5 0 102.5 244q0 122 -20 177q-31 82 -107 82
t-108.5 -61.5t-32.5 -193.5t31.5 -190t134 -58zM1740 379q0 -190 -88 -299t-260 -109q-172 1 -256 107t-84 292t89 294t257 107q168 0 255 -101t87 -291zM1376 1478l-808 -1534h-182l810 1534h180z" />
    <glyph glyph-name="ampersand" unicode="&#x26;" horiz-adv-x="1408" 
d="M338 409q0 -82 60.5 -139.5t147.5 -57.5q130 0 241 128l-252 305q-197 -98 -197 -236zM777 1139q0 59 -38.5 97.5t-96.5 38.5t-97 -36.5t-39 -90.5q0 -85 117 -212q82 49 118 96.5t36 106.5zM534 -31q-220 0 -350 125t-130 316t165 322q84 67 165 103q-136 163 -136 317
t135 250q107 79 261 79q154 1 266 -95t111 -253q0 -235 -254 -369l189 -229q38 68 52 171h252q-26 -211 -140 -359l297 -347h-355l-120 144q-79 -83 -186.5 -129t-221.5 -46z" />
    <glyph glyph-name="quotesingle" unicode="'" horiz-adv-x="389" 
d="M270 874h-151l-53 588h257z" />
    <glyph glyph-name="parenleft" unicode="(" horiz-adv-x="656" 
d="M348 560q0 -288 68 -540q44 -161 98 -270t61 -126h-242q-15 21 -95 170t-127.5 351t-47.5 409q0 476 273 908h243q-231 -419 -231 -902z" />
    <glyph glyph-name="parenright" unicode=")" horiz-adv-x="657" 
d="M308 526q0 287 -68 540q-44 162 -98 270t-61 126h242q15 -23 95 -171t127.5 -350t47.5 -407q0 -484 -273 -910h-243q231 419 231 902z" />
    <glyph glyph-name="asterisk" unicode="*" 
d="M965 1138l-242 -80l150 -201l-134 -100l-151 211l-145 -211l-138 100l153 201l-239 80l54 159l236 -90l-4 255h172l-6 -255l236 90z" />
    <glyph glyph-name="plus" unicode="+" 
d="M88 618v196h406v407h196v-407h407v-196h-407v-406h-196v406h-406z" />
    <glyph glyph-name="comma" unicode="," horiz-adv-x="510" 
d="M418 320v-251q0 -112 -24.5 -184t-79.5 -123q-95 -88 -222 -104v146q140 39 148 196h-148v320h326z" />
    <glyph glyph-name="hyphen" unicode="-" horiz-adv-x="556" 
d="M556 675v-260h-556v260h556z" />
    <glyph glyph-name="period" unicode="." horiz-adv-x="510" 
d="M421 325v-325h-332v325h332z" />
    <glyph glyph-name="slash" unicode="/" horiz-adv-x="943" 
d="M873 1462l-677 -1838h-266l680 1838h263z" />
    <glyph glyph-name="zero" unicode="0" 
d="M592 215q239 0 239 499q0 213 -42 339q-53 159 -189 159t-193 -121t-57 -359t42 -358q54 -159 200 -159zM616 1449q150 0 276.5 -98t182.5 -301q43 -156 43 -338q0 -310 -112 -498q-142 -236 -410 -236q-179 0 -306 104q-226 184 -226 629q0 320 118 509q143 229 434 229
z" />
    <glyph glyph-name="one" unicode="1" 
d="M841 1439v-1439h-292v942h-344v208q108 4 175 22.5t123 60.5q81 61 109 206h229z" />
    <glyph glyph-name="two" unicode="2" 
d="M1107 252v-252h-1053q0 243 147 400q54 58 126 112.5t289 202.5q105 72 147 132.5t42 146.5t-56.5 144t-148.5 58q-226 0 -233 -314h-281v31q0 257 147 397t363 139q216 0 360 -117t144 -310q0 -242 -112.5 -329.5t-255.5 -183.5t-201.5 -144t-109.5 -113h686z" />
    <glyph glyph-name="three" unicode="3" 
d="M586 1449q210 0 344 -107t134 -284q0 -105 -54.5 -182t-147.5 -103q119 -28 187 -116t68 -215q1 -208 -153 -336t-390 -128t-379.5 135t-143.5 366v18h281q0 -129 64 -199.5t181 -70.5t177 64t61 159t-67 150t-195 55q-35 0 -71 -3v206q26 -2 49 -2q253 0 253 180
q0 79 -55 127.5t-144 48.5q-211 0 -220 -241h-277q5 173 89 289q136 189 409 189z" />
    <glyph glyph-name="four" unicode="4" 
d="M672 569v536l-376 -536h376zM1135 572v-243h-184v-329h-285v329h-610v270l625 840h270v-867h184z" />
    <glyph glyph-name="five" unicode="5" 
d="M1031 1427v-251h-589l-63 -319q105 109 269 109t284 -85q178 -127 178 -383t-190 -404q-150 -116 -368 -116t-359 120.5t-149 325.5h287q9 -93 74 -151t170 -58t172 78q67 79 67 197t-68 191.5t-181 73.5q-73 0 -123 -28t-92 -93l-261 4l139 789h803z" />
    <glyph glyph-name="six" unicode="6" 
d="M610 743q-109 1 -168 -79t-59 -184q-1 -104 59 -184q60 -81 166 -81q106 -1 169 79q62 80 62 184t-60 184q-60 81 -169 81zM626 1227q-158 0 -225 -191q-20 -56 -26.5 -89t-18.5 -147q66 86 140.5 123.5t179.5 37.5q206 -1 328 -137t122 -335q0 -239 -152 -375t-354 -136
q-259 0 -403 188t-144 536q-1 348 151 548t402 199q250 0 380 -157q74 -90 95 -227h-278q-39 162 -197 162z" />
    <glyph glyph-name="seven" unicode="7" 
d="M1083 1427v-242q-13 -13 -83 -92t-151 -218t-126 -267q-95 -267 -115 -608h-302q6 337 208 749q137 278 278 413h-690v265h981z" />
    <glyph glyph-name="eight" unicode="8" 
d="M600 200q118 0 180 70t62 165q0 96 -68 160t-185 64q-115 -1 -181 -67t-66 -164t70 -163t188 -65zM594 1231q-100 0 -159.5 -51t-59.5 -137t59.5 -138.5t159.5 -52.5t158 52t58 140t-58 137.5t-158 49.5zM1133 425q0 -214 -171 -340q-144 -107 -380 -107t-383 120
q-148 120 -148 310q0 192 134 294q60 45 135 64q-102 33 -156.5 109.5t-54.5 186.5q0 182 157 291q136 96 340 96t336 -111q134 -111 134 -269q0 -111 -55 -190t-156 -113q268 -78 268 -341z" />
    <glyph glyph-name="nine" unicode="9" 
d="M566 684q110 0 172 78q61 78 61 186q-1 108 -63 186t-162 78t-164 -74q-65 -74 -65 -179q0 -104 47 -176q64 -99 174 -99zM556 200q92 0 167.5 78.5t99.5 352.5q-65 -89 -136.5 -127.5t-172.5 -38.5q-161 0 -280 91q-84 63 -130 163.5t-46 218.5q0 238 169 385
q145 126 348 126q125 0 330.5 -103.5t205.5 -596.5q0 -293 -112 -502q-145 -269 -442 -269q-197 0 -325.5 104.5t-148.5 281.5h276q34 -164 197 -164z" />
    <glyph glyph-name="colon" unicode=":" horiz-adv-x="547" 
d="M458 325v-325h-332v325h332zM458 1060v-325h-332v325h332z" />
    <glyph glyph-name="semicolon" unicode=";" horiz-adv-x="547" 
d="M458 1060v-325h-332v325h332zM458 320v-251q0 -112 -24.5 -184t-79.5 -123q-95 -88 -222 -104v146q140 38 148 196h-148v320h326z" />
    <glyph glyph-name="less" unicode="&#x3c;" horiz-adv-x="1097" 
d="M1024 1366v-313l-617 -314l615 -316l2 -311l-951 495v264z" />
    <glyph glyph-name="equal" unicode="=" 
d="M88 440v192h1009v-192h-1009zM88 801v192h1009v-192h-1009z" />
    <glyph glyph-name="greater" unicode="&#x3e;" horiz-adv-x="1097" 
d="M74 112v314l617 314l-615 315l-2 311l950 -495v-264z" />
    <glyph glyph-name="question" unicode="?" horiz-adv-x="1123" 
d="M718 314v-314h-319v314h319zM588 1497q225 1 356 -119t131 -301q0 -122 -57 -203t-224 -198q-51 -36 -72.5 -87.5t-23.5 -143.5h-273q3 110 7.5 148t22.5 86t49.5 84.5t117.5 104.5t112 111t26 110t-48.5 112t-127.5 45q-206 0 -216 -252h-298q10 195 94 311
q139 192 424 192z" />
    <glyph glyph-name="at" unicode="@" horiz-adv-x="1573" 
d="M597 572q0 -113 88 -113q98 0 168 203l48 135q22 63 22 101t-21.5 64.5t-60.5 26.5t-88.5 -43.5t-84.5 -114.5q-71 -146 -71 -259zM820 -35q-228 0 -414 121t-278 318q-73 154 -73 351t105 369q104 172 280 272t385 101q305 0 510 -205q184 -182 184 -437t-202 -413
q-141 -110 -293 -110q-54 0 -101 22.5t-68 57.5q-112 -83 -213 -83q-141 0 -225 114q-55 75 -55 190q0 177 131 337t306 159q56 0 96 -17t97 -65l18 48h219l-176 -537q-18 -55 -18 -67q0 -27 43 -27q90 0 186 113t96 274q0 119 -67 240t-197 188t-286 67q-158 0 -296 -84
t-216 -222t-77 -306q0 -248 164 -423q97 -103 215 -147t227 -43q208 0 382 144q73 60 124 143l177 -1q-40 -87 -79.5 -140t-105.5 -110q-224 -192 -505 -192z" />
    <glyph glyph-name="A" unicode="A" horiz-adv-x="1426" 
d="M905 562l-194 551l-195 -551h389zM879 1465l555 -1465h-335l-116 328h-543l-119 -328h-329l557 1465h330z" />
    <glyph glyph-name="B" unicode="B" horiz-adv-x="1394" 
d="M425 652v-401h323q139 0 204 46q65 47 65 165t-100 165q-55 25 -185 25h-307zM717 870q239 0 239 164q0 97 -56 137t-183 40h-292v-341h292zM106 1462h658q212 0 313 -52t147 -138q46 -88 46 -183t-51 -173t-148 -123q84 -28 126 -59q142 -104 142 -303q0 -245 -212 -369
q-107 -62 -304 -62h-717v1462z" />
    <glyph glyph-name="C" unicode="C" horiz-adv-x="1438" 
d="M758 -35q-336 0 -530 245q-165 210 -165 530t196 538t510 219q314 0 499 -200q132 -141 146 -325h-315q-26 124 -111 191.5t-215 67.5q-208 0 -311 -175q-77 -132 -77 -328t81 -328q103 -169 305 -169q144 0 229.5 85t105.5 248h318q-16 -227 -152 -388
q-178 -211 -514 -211z" />
    <glyph glyph-name="D" unicode="D" horiz-adv-x="1463" 
d="M425 1192v-922h246q113 0 180 22.5t117 76.5q116 125 116 359q0 464 -425 464h-234zM106 1462h591q165 0 282.5 -38t207.5 -120q219 -200 219 -566t-207 -570q-91 -91 -205 -129.5t-290 -38.5h-598v1462z" />
    <glyph glyph-name="E" unicode="E" horiz-adv-x="1267" 
d="M1203 1462v-270h-778v-312h713v-251h-713v-359h792v-270h-1111v1462h1097z" />
    <glyph glyph-name="F" unicode="F" horiz-adv-x="1143" 
d="M1135 1462v-270h-710v-339h618v-251h-618v-602h-319v1462h1029z" />
    <glyph glyph-name="G" unicode="G" horiz-adv-x="1513" 
d="M1420 788v-788h-204l-32 167q-162 -202 -437 -202q-335 0 -529 248q-161 207 -161 511q-1 345 203 559t504 214t481 -186q135 -140 155 -330h-309q-24 118 -107.5 184t-211.5 66q-194 0 -300 -150q-93 -131 -93 -351t87 -349q107 -157 316 -157q151 0 247.5 91t101.5 239
h-325v234h614z" />
    <glyph glyph-name="H" unicode="H" horiz-adv-x="1449" 
d="M1343 1462v-1462h-319v637h-598v-637h-319v1462h319v-555h598v555h319z" />
    <glyph glyph-name="I" unicode="I" horiz-adv-x="532" 
d="M426 1462v-1462h-319v1462h319z" />
    <glyph glyph-name="J" unicode="J" horiz-adv-x="1047" 
d="M963 1462v-984q0 -128 -19.5 -205t-68.5 -141q-127 -167 -392 -167q-312 0 -429 210q-60 110 -60 311q0 20 1 61h296v-42q0 -147 24 -197q40 -84 147 -84t144.5 54t37.5 189v995h319z" />
    <glyph glyph-name="K" unicode="K" horiz-adv-x="1398" 
d="M425 0h-319v1462h319v-605l573 605h404l-573 -578l627 -884h-403l-444 656l-184 -184v-472z" />
    <glyph glyph-name="L" unicode="L" horiz-adv-x="1161" 
d="M1141 270v-270h-1034v1462h319v-1192h715z" />
    <glyph glyph-name="M" unicode="M" horiz-adv-x="1793" 
d="M1686 1462v-1462h-303l11 1111l-369 -1111h-251l-375 1080l11 -1080h-303v1462h454l344 -1051l331 1051h450z" />
    <glyph glyph-name="N" unicode="N" horiz-adv-x="1448" 
d="M1342 1462v-1462h-321l-612 996l4 -996h-307v1462h325l608 -994l-4 994h307z" />
    <glyph glyph-name="O" unicode="O" horiz-adv-x="1540" 
d="M782 231q175 0 284 131q109 132 109 366q-1 234 -107 368t-288 135q-182 -1 -292 -135q-109 -134 -109 -367t108 -365q51 -63 129 -98t166 -35zM57 729q-1 364 207 566t512 202t513 -202q208 -202 208 -564q0 -312 -165 -517q-202 -249 -556 -249t-558 255
q-161 202 -161 509z" />
    <glyph glyph-name="P" unicode="P" horiz-adv-x="1309" 
d="M425 1192v-414h285q128 0 190 50t62 160t-80 164q-58 40 -189 40h-268zM106 1462h590q149 0 234.5 -18.5t154.5 -65.5q191 -128 191 -372t-158 -374q-67 -56 -153 -80.5t-212 -24.5h-328v-527h-319v1462z" />
    <glyph glyph-name="Q" unicode="Q" horiz-adv-x="1530" 
d="M1174 742q0 213 -104 351t-291 138q-188 0 -294 -137t-106 -365t108 -363t290 -135q73 0 135 22l-146 128l150 160l159 -144q99 132 99 345zM792 -35q-365 0 -557 233q-178 214 -178 546t207 542t518 211q161 0 297.5 -59.5t231.5 -169.5q185 -216 185 -529
q0 -171 -51.5 -313.5t-146.5 -234.5l189 -171l-150 -162l-216 195q-141 -88 -329 -88z" />
    <glyph glyph-name="R" unicode="R" horiz-adv-x="1441" 
d="M426 1211v-402h305q147 -1 215 47t68 154t-65 153.5t-205 47.5h-318zM107 1462h708q211 0 313 -60q200 -117 200 -353q0 -128 -61.5 -223t-171.5 -136q97 -24 152 -108q35 -53 47 -110.5t28 -237.5t46 -217l14 -17h-333q-17 31 -24.5 79.5t-19.5 212.5t-75.5 223.5
t-216.5 59.5h-287v-575h-319v1462z" />
    <glyph glyph-name="S" unicode="S" horiz-adv-x="1304" 
d="M624 1249q-120 0 -182.5 -44.5t-62.5 -120.5t59 -108q60 -32 302 -92t338 -123q177 -116 177 -333t-178 -348q-157 -115 -440 -115t-448 136t-171 387h318q7 -122 63 -181q88 -94 265 -94q120 1 194 51t74.5 143t-110.5 136q-62 24 -246 75t-264 86t-128 78
q-112 100 -112 276q0 211 175 334q149 105 373 105t364 -83q203 -119 214 -385h-304q-9 107 -79.5 163.5t-190.5 56.5z" />
    <glyph glyph-name="T" unicode="T" horiz-adv-x="1186" 
d="M1195 1462v-270h-444v-1192h-319v1192h-442v270h1205z" />
    <glyph glyph-name="U" unicode="U" horiz-adv-x="1422" 
d="M1334 1462v-864q0 -187 -34 -289q-115 -344 -588 -344q-502 0 -603 371q-25 95 -25 266v860h319v-881q0 -167 49 -239q74 -111 250 -111t244.5 80t68.5 270v881h319z" />
    <glyph glyph-name="V" unicode="V" horiz-adv-x="1312" 
d="M1320 1462l-486 -1462h-363l-479 1462h334l329 -1095l334 1095h331z" />
    <glyph glyph-name="W" unicode="W" horiz-adv-x="1935" 
d="M1932 1462l-396 -1462h-320l-253 1044l-245 -1044h-324l-390 1462h321l235 -1074l257 1074h302l257 -1066l238 1066h318z" />
    <glyph glyph-name="X" unicode="X" horiz-adv-x="1334" 
d="M1322 1462l-470 -697l513 -765h-384l-320 508l-326 -508h-365l516 765l-476 697h374l290 -469l294 469h354z" />
    <glyph glyph-name="Y" unicode="Y" horiz-adv-x="1300" 
d="M809 0h-319v568l-546 894h365l343 -601l345 601h357l-545 -898v-564z" />
    <glyph glyph-name="Z" unicode="Z" horiz-adv-x="1301" 
d="M1243 1462v-243l-793 -949h819v-270h-1237v256l786 936h-732v270h1157z" />
    <glyph glyph-name="bracketleft" unicode="[" horiz-adv-x="683" 
d="M630 1462v-211h-262v-1416h262v-211h-531v1838h531z" />
    <glyph glyph-name="backslash" unicode="\" horiz-adv-x="943" 
d="M70 1462h264l679 -1838h-265z" />
    <glyph glyph-name="bracketright" unicode="]" horiz-adv-x="683" 
d="M53 -376v211h262v1416h-262v211h531v-1838h-531z" />
    <glyph glyph-name="asciicircum" unicode="^" horiz-adv-x="1096" 
d="M315 773h-279l337 697h350l337 -697h-280l-232 484z" />
    <glyph glyph-name="underscore" unicode="_" horiz-adv-x="1097" 
d="M0 -102h1097v-196h-1097v196z" />
    <glyph glyph-name="grave" unicode="`" horiz-adv-x="1097" 
d="M215 1516h306l185 -295h-195z" />
    <glyph glyph-name="a" unicode="a" horiz-adv-x="1127" 
d="M331 326q0 -79 43 -119t120 -40q128 0 207 92q28 33 38.5 67t10.5 91v125q-56 -36 -182 -55t-172 -45q-65 -37 -65 -116zM404 -31q-170 0 -270 86t-101 251q0 211 185 291q75 33 262 59t229.5 47.5t42.5 88.5q0 146 -190 146q-101 0 -148 -37.5t-61 -129.5h-274
q26 373 490 373q253 0 374 -106q56 -48 74.5 -104.5t18.5 -177.5l-5 -455q0 -122 7.5 -183t30.5 -118h-296q-19 60 -19 108q-137 -139 -350 -139z" />
    <glyph glyph-name="b" unicode="b" horiz-adv-x="1229" 
d="M375 572q-1 -150 61 -252t192 -102t192 105t62 255t-70 239t-184 89t-184 -91q-69 -93 -69 -243zM386 1462v-486q117 169 335 169q138 0 251 -85q202 -151 202 -491q0 -241 -109 -404q-131 -196 -357 -196t-336 172v-141h-276v1462h290z" />
    <glyph glyph-name="c" unicode="c" horiz-adv-x="1140" 
d="M588 -31q-262 0 -410 187q-125 157 -125 390q0 287 167 452q146 146 368 146t355 -113t152 -308h-285q-16 91 -71 141t-139 50q-120 0 -187 -95t-67 -255t59 -262t189 -103q192 0 225 228h283q-21 -166 -109 -277q-143 -181 -405 -181z" />
    <glyph glyph-name="d" unicode="d" horiz-adv-x="1229" 
d="M854 564q0 166 -70 254t-184 88q-115 0 -183 -88t-68 -252q1 -164 67 -256t186 -92t186 90t66 256zM1134 1462v-1462h-277v142q-96 -173 -319 -173t-352 164q-129 165 -129 421t113 411q130 179 350 179t325 -168v486h289z" />
    <glyph glyph-name="e" unicode="e" horiz-adv-x="1160" 
d="M585 925q-97 0 -160 -68t-75 -184h463q-16 161 -91.5 206.5t-136.5 45.5zM608 -31q-257 0 -404 157q-72 77 -112 189t-39 237q0 242 145 417t388 175q196 0 334 -123q99 -88 144 -217.5t45 -325.5h-761q4 -84 25 -139q59 -150 219 -150t221 157h279q-23 -94 -83 -177
q-144 -200 -401 -200z" />
    <glyph glyph-name="f" unicode="f" horiz-adv-x="643" 
d="M558 1243q-60 0 -86 -23.5t-26 -91.5v-15h211v-206h-208v-907h-289v907h-173v206h173q2 103 17 157t55 98q91 100 290 100q49 0 152 -7v-223q-56 5 -116 5z" />
    <glyph glyph-name="g" unicode="g" horiz-adv-x="1208" 
d="M595 906q-131 0 -188 -95t-57 -242t68 -228t186 -81q116 0 181 113q50 86 50 231q0 146 -70 224t-170 78zM1112 1113v-974q0 -131 -16 -208.5t-55 -141.5q-126 -204 -452 -204q-454 0 -497 349h292q30 -143 210 -143q140 0 188 73t49 215l1 126q-112 -171 -320 -171
t-332 148q-123 148 -123 399t126 407t337 156q109 0 182 -41.5t134 -137.5v148h276z" />
    <glyph glyph-name="h" unicode="h" horiz-adv-x="1179" 
d="M386 1462v-501q48 86 136.5 134.5t195.5 48.5q219 0 314 -157q55 -92 55 -280v-707h-289v655q0 124 -33 170q-49 70 -153 70q-137 0 -196 -123q-18 -37 -24 -82.5t-6 -144.5v-545h-290v1462h290z" />
    <glyph glyph-name="i" unicode="i" horiz-adv-x="483" 
d="M386 1113v-1113h-290v1113h290zM386 1563v-261h-290v261h290z" />
    <glyph glyph-name="j" unicode="j" horiz-adv-x="483" 
d="M385 1563v-261h-289v261h289zM385 1113v-1114l2 -86q0 -101 -39.5 -174.5t-111.5 -108.5t-202 -35q-50 0 -116 6v246q32 -3 70 -3q80 0 98 55q10 34 10 194v1020h289z" />
    <glyph glyph-name="k" unicode="k" horiz-adv-x="1111" 
d="M386 0h-290v1462h290v-748l372 399h345l-399 -412l445 -701h-352l-292 495l-119 -116v-379z" />
    <glyph glyph-name="l" unicode="l" horiz-adv-x="483" 
d="M386 1462v-1462h-290v1462h290z" />
    <glyph glyph-name="m" unicode="m" horiz-adv-x="1803" 
d="M372 1113v-152q56 78 109 115q97 68 228 68q212 0 297 -185q129 185 348 185q171 0 264.5 -103t93.5 -291v-750h-290v665q0 108 -23 151q-41 79 -159 79t-170 -112q-23 -50 -23 -179v-604h-289v678q0 122 -40 170t-112 47q-144 0 -195 -118q-25 -55 -25 -173v-604h-290
v1113h276z" />
    <glyph glyph-name="n" unicode="n" horiz-adv-x="1179" 
d="M373 1113v-155q51 69 95 103q108 83 251 83t226 -62t113 -145.5t30 -236.5v-700h-289v639q0 107 -17 155q-18 48 -62 74t-108 27q-64 0 -117 -32.5t-81 -92.5t-27 -194v-576h-290v1113h276z" />
    <glyph glyph-name="o" unicode="o" horiz-adv-x="1203" 
d="M602 918q-120 0 -188 -96t-69 -269q0 -172 69 -265t186 -93q118 1 188 91t70 265t-68 271t-188 96zM599 1144q251 0 401 -160t150 -430t-154 -428t-401 -157q-247 0 -395 165q-148 164 -147 420q-1 256 147 423t399 167z" />
    <glyph glyph-name="p" unicode="p" horiz-adv-x="1229" 
d="M375 550q-1 -165 69 -254t188 -89t184 90t66 253t-68 254t-185 91q-118 0 -186 -90t-68 -255zM372 1113v-139q118 170 330 170t342 -164t130 -420q0 -258 -121 -424t-335 -167q-214 0 -332 168v-532h-290v1508h276z" />
    <glyph glyph-name="q" unicode="q" horiz-adv-x="1229" 
d="M598 895q-118 -1 -184 -95t-65 -254q0 -160 65 -249q65 -90 184 -90t187 90q68 91 68 257t-68 254q-69 88 -187 87zM1134 1113v-1508h-289v535q-117 -171 -333 -171q-216 1 -335 167q-120 166 -120 426q1 260 131 420q130 162 352 162t317 -169v138h277z" />
    <glyph glyph-name="r" unicode="r" horiz-adv-x="758" 
d="M667 863q-162 0 -238 -138q-43 -78 -43 -259v-466h-290v1113h276v-206q118 229 343 229q28 0 65 -4v-282q-70 13 -113 13z" />
    <glyph glyph-name="s" unicode="s" horiz-adv-x="1078" 
d="M507 938q-77 0 -119 -28.5t-42 -82.5t46 -79.5t235 -65.5t291 -110q102 -72 101 -240q0 -168 -135 -265q-135 -98 -356 -98q-474 0 -498 393h278q8 -77 38 -116q55 -71 185 -71q90 0 143 37.5t53 93.5t-27 78q-27 24 -69.5 39.5t-162.5 43.5t-180 47t-114 51t-87.5 96
t-33.5 143q0 174 141 265q115 75 320 75q271 0 389 -141q63 -75 74 -214h-272q-9 59 -31 89q-45 60 -167 60z" />
    <glyph glyph-name="t" unicode="t" horiz-adv-x="646" 
d="M657 1113v-206h-217v-525q0 -96 21 -128t107 -32q31 0 89 6v-232q-99 -11 -201 -11t-168 29q-101 45 -126 166q-11 51 -11 213v514h-177v206h177v263h289v-263h217z" />
    <glyph glyph-name="u" unicode="u" horiz-adv-x="1180" 
d="M1084 1113v-1113h-276v158q-126 -189 -350 -189q-196 0 -296 134q-71 95 -71 305v705h290v-615q0 -97 12.5 -188.5t172.5 -91.5q137 0 199 125q30 60 30 218v552h289z" />
    <glyph glyph-name="v" unicode="v" horiz-adv-x="1002" 
d="M1027 1113l-360 -1113h-326l-366 1113h305l227 -794l229 794h291z" />
    <glyph glyph-name="w" unicode="w" horiz-adv-x="1607" 
d="M1628 1113l-336 -1113h-300l-191 775l-181 -775h-302l-338 1113h307l199 -784l179 784h282l182 -782l198 782h301z" />
    <glyph glyph-name="x" unicode="x" horiz-adv-x="1029" 
d="M1026 1113l-350 -519l394 -594h-335l-225 363l-220 -363h-330l385 587l-351 526h333l190 -305l185 305h324z" />
    <glyph glyph-name="y" unicode="y" horiz-adv-x="1043" 
d="M79 -143h118q55 0 83 8.5t55 37.5t27 84t-9 79l-378 1047h314l244 -773l234 773h301l-389 -1108q-49 -139 -79.5 -202.5t-74.5 -110.5t-100.5 -68.5t-140.5 -21.5h-86l-119 3v252z" />
    <glyph glyph-name="z" unicode="z" horiz-adv-x="1005" 
d="M968 1113v-224l-549 -651h585v-238h-975v232l548 643h-506v238h897z" />
    <glyph glyph-name="braceleft" unicode="{" horiz-adv-x="693" 
d="M452 276v-199q0 -96 9 -137t41 -73t135 -32h28v-211h-12q-215 2 -270 11t-105 47t-72.5 99t-22.5 162v283q0 93 -28 138t-95 60v251q66 16 94.5 58.5t28.5 125.5v298q0 180 98 251q50 36 104 44t268 10h12v-211h-29q-106 0 -144 -46q-24 -29 -32 -70.5t-8 -136.5v-193
q0 -106 -27 -162t-99 -101q71 -43 98.5 -101t27.5 -165z" />
    <glyph glyph-name="bar" unicode="|" horiz-adv-x="1096" 
d="M390 1462h317v-1828h-317v1828z" />
    <glyph glyph-name="braceright" unicode="}" horiz-adv-x="693" 
d="M242 810v199q0 96 -9 136.5t-41 72.5t-135 33h-29v211h12q215 -2 270.5 -10t105.5 -47t72.5 -100.5t22.5 -161.5v-283q0 -93 27.5 -137.5t94.5 -60.5v-251q-66 -16 -94 -58.5t-28 -125.5v-298q0 -180 -98 -251q-50 -36 -104 -44t-269 -10h-12v211h29q108 0 145 46
q24 30 32 71t8 136v193q0 106 27 162.5t99 100.5q-71 44 -98.5 101.5t-27.5 164.5z" />
    <glyph glyph-name="asciitilde" unicode="~" horiz-adv-x="1462" 
d="M528 1639q74 1 205 -57t159 -67t55 -9q89 0 162 138l154 -128q-42 -102 -77 -151q-102 -139 -265 -139q-45 0 -83 12t-154 64t-165 52q-48 0 -84 -31.5t-77 -106.5l-154 128q120 295 324 295z" />
    <glyph glyph-name="nonbreakingspace" unicode="&#xa0;" horiz-adv-x="548" 
 />
    <glyph glyph-name="exclamdown" unicode="&#xa1;" horiz-adv-x="598" 
d="M162 1149v313h317v-313h-317zM168 0v390l81 628h146l80 -624v-394h-307z" />
    <glyph glyph-name="cent" unicode="&#xa2;" 
d="M362 731q0 -290 194 -330v673q-194 -53 -194 -343zM677 -35h-121v215q-194 13 -312 123q-169 157 -169 426q0 321 219 471q115 79 262 90v178h121v-179q201 -8 319 -115t135 -284h-278q-21 163 -176 187v-676q164 23 182 217h276q-19 -196 -140 -312t-318 -126v-215z" />
    <glyph glyph-name="sterling" unicode="&#xa3;" 
d="M130 1062q0 153 112 258q138 129 384 129t379.5 -121t137.5 -344h-287q-2 102 -55 162t-151 60t-152 -46t-54 -110t34 -148t53 -135h265v-170h-210q9 -45 9 -103q0 -118 -171 -265q98 43 170 43t159 -23t128 -23q111 0 190 85l123 -211q-57 -60 -144 -93.5t-165 -33.5
t-120 7.5t-152 39.5q-111 32 -175 32t-112 -17.5t-115 -62.5l-126 187q100 71 144 125q80 99 80 200q0 54 -20 113h-212v170h140q-19 46 -53 120t-34 175z" />
    <glyph glyph-name="currency" unicode="&#xa4;" horiz-adv-x="1418" 
d="M1068 829q0 149 -106 253t-254 104q-146 0 -252 -105t-105 -253q0 -148 105 -254q106 -106 254 -105q148 0 253 105t105 255zM101 829q0 186 107 342l-135 134l154 156l135 -135q160 110 347 110t344 -107l134 132l153 -156l-133 -129q112 -162 112 -346t-106 -343
l133 -133l-153 -155l-133 132q-160 -112 -349 -112t-351 111l-133 -131l-152 155l131 132q-105 157 -105 343z" />
    <glyph glyph-name="yen" unicode="&#xa5;" 
d="M1108 857v-162h-303l-71 -142v-40h301v-162h-301v-351h-285v351h-301v162h301v44l-70 138h-305v162h225l-270 570h315l251 -582l252 582h306l-267 -570h222z" />
    <glyph glyph-name="brokenbar" unicode="&#xa6;" horiz-adv-x="1096" 
d="M390 336h317v-702h-317v702zM390 1462h317v-768h-317v768z" />
    <glyph glyph-name="section" unicode="&#xa7;" 
d="M301 660q0 -44 29 -80.5t289 -168.5q57 -28 91 -48t64 -29q47 13 77 49.5t30 80.5t-23.5 72t-65.5 51t-104 58t-160 85q-99 50 -120 58q-50 -15 -78.5 -49.5t-28.5 -78.5zM607 1249q-68 0 -109 -34t-41 -88t36.5 -87t234.5 -133t276 -160q128 -96 128 -243
q0 -100 -55.5 -178.5t-153.5 -115.5q109 -96 109 -229q0 -164 -135 -268q-115 -89 -312 -89t-316 106t-120 293h256q9 -71 32 -106q49 -72 160 -72q72 0 115.5 36.5t43.5 98.5t-60.5 109t-288.5 157t-291 194q-63 85 -63 205t95 207q51 46 119 68q-86 89 -86 213
q0 125 110 227t316 102q243 0 353 -161q65 -96 67 -219h-256q-10 167 -164 167z" />
    <glyph glyph-name="dieresis" unicode="&#xa8;" horiz-adv-x="1097" 
d="M467 1489v-238h-272v238h272zM898 1489v-238h-273v238h273z" />
    <glyph glyph-name="copyright" unicode="&#xa9;" horiz-adv-x="1660" 
d="M1445 725q1 268 -181 447t-436 179t-433 -181q-180 -180 -180 -438t181 -441q86 -87 199 -135t234 -47q174 0 322 92q148 93 221 237t73 287zM828 1496q318 0 542 -224t225 -551q-1 -207 -113 -391t-290 -275t-378 -91t-384 113t-276 291q-90 178 -90 378t111 384
q111 182 291 274t362 92zM833 1024q-103 0 -169 -75t-66 -213t90 -225q64 -61 142 -61t126 41.5t56 112.5h183q-15 -126 -109 -214t-262 -88t-286 122t-118 317q0 196 117 313t280 117q317 0 378 -294h-182q-31 147 -180 147z" />
    <glyph glyph-name="ordfeminine" unicode="&#xaa;" horiz-adv-x="758" 
d="M250 771q0 -78 97 -78q72 0 114 36t42 97v59q-33 -16 -115 -27t-110 -29.5t-28 -57.5zM300 567q-124 1 -190 51t-66 146q0 123 124 171q50 19 168 33t143.5 25t25.5 46q0 73 -115 73q-64 0 -91.5 -20.5t-36.5 -73.5h-189q16 223 322 223q163 0 244 -61q36 -27 49 -60.5
t13 -99.5l-2 -130q-1 -119 -1 -133q0 -112 28 -172h-206q-10 25 -14 52q-83 -70 -206 -70z" />
    <glyph glyph-name="guillemotleft" unicode="&#xab;" horiz-adv-x="853" 
d="M775 934v-249l-184 -143l184 -143v-241l-322 252v270zM373 937v-250l-186 -147l186 -143v-243l-325 253v271z" />
    <glyph glyph-name="logicalnot" unicode="&#xac;" horiz-adv-x="1097" 
d="M717 0v359h-644v276h951v-635h-307z" />
    <glyph glyph-name="uni00AD" unicode="&#xad;" horiz-adv-x="556" 
d="M556 675v-260h-556v260h556z" />
    <glyph glyph-name="registered" unicode="&#xae;" horiz-adv-x="1660" 
d="M1445 727q0 267 -182 446q-181 179 -435 179t-434 -181t-180 -438t180 -440t436 -183q254 0 435 184q86 87 133 201t47 232zM828 1497q318 1 542 -223t225 -551q-1 -206 -113 -391t-290 -276t-378 -91t-385 113.5t-275 291.5t-90 378t112 383q112 182 290 274t362 92z
M710 969v-176h140q83 0 108 21q25 20 25 70t-27 67.5t-105 17.5h-141zM519 1137h362q85 0 127 -9.5t80 -38.5q86 -65 86 -191q0 -65 -21 -107t-71 -77q45 -27 58 -62.5t18 -147.5t12.5 -134.5t45.5 -48.5h-226q-22 57 -24 139t-7 109t-23 45t-90 18h-136v-311h-191v816z" />
    <glyph glyph-name="macron" unicode="&#xaf;" horiz-adv-x="1097" 
d="M884 1440v-153h-670v153h670z" />
    <glyph glyph-name="degree" unicode="&#xb0;" horiz-adv-x="829" 
d="M627 1124q0 88 -62 152t-147 65q-86 1 -150 -61t-64 -148t57 -154t148 -68t154.5 63t63.5 151zM426 1475q138 -1 238 -105t100 -248t-103 -245t-251 -101t-246 107t-98 241q0 77 32 148t87 117q102 86 241 86z" />
    <glyph glyph-name="plusminus" unicode="&#xb1;" 
d="M88 -29v196h1009v-196h-1009zM88 618v196h406v407h196v-407h407v-196h-407v-377h-196v377h-406z" />
    <glyph glyph-name="twosuperior" unicode="&#xb2;" horiz-adv-x="808" 
d="M741 749v-164h-689q1 155 97 250q35 35 77 64t148 97t132 101.5t26 82.5t-34 80.5t-97 31.5q-128 0 -134 -186h-194v24q1 156 97 240t238 85q142 -1 235 -71q94 -70 94 -188t-79 -196q-34 -34 -165 -115t-184 -136h432z" />
    <glyph glyph-name="threesuperior" unicode="&#xb3;" horiz-adv-x="808" 
d="M401 1455q137 0 225 -65q88 -64 88 -176t-110 -165q143 -51 143 -186t-97.5 -213.5t-255.5 -78.5t-251 82.5t-93 224.5v15h195q-1 -7 -1 -11q0 -70 40 -109.5t108 -39.5t107.5 33t39.5 86q0 119 -163 119q-22 0 -50 -3v138q23 -1 40 -1q154 0 154 100q0 44 -33 70.5
t-88 26.5q-129 0 -133 -144h-193q4 111 60 183q89 114 268 114z" />
    <glyph glyph-name="acute" unicode="&#xb4;" horiz-adv-x="1097" 
d="M882 1516l-296 -295h-195l185 295h306z" />
    <glyph glyph-name="mu" unicode="&#xb5;" horiz-adv-x="1097" 
d="M72 -391v1497h267v-584q0 -90 8.5 -132.5t33.5 -80.5q63 -98 175 -98t164 123q37 88 37 199v573h267v-1106h-267v161q-67 -185 -216 -185q-67 0 -114.5 33.5t-87.5 109.5v-510h-267z" />
    <glyph glyph-name="paragraph" unicode="&#xb6;" 
d="M475 -376v1078q-22 -1 -29 -1q-155 -1 -275 93t-120 283q0 111 47.5 196.5t120.5 124.5t142.5 51.5t185.5 12.5h545v-134h-93v-1704h-175v1704h-174v-1704h-175z" />
    <glyph glyph-name="glyph121" unicode="&#xb7;" horiz-adv-x="510" 
d="M421 708v-325h-332v325h332z" />
    <glyph glyph-name="cedilla" unicode="&#xb8;" horiz-adv-x="1097" 
d="M591 -120q80 0 130 -40t50 -106t-41 -114q-66 -77 -194 -77t-249 48l39 86q90 -34 149 -34t88.5 21t29.5 56t-27 55.5t-66 20.5t-80 -16l-43 40l124 180h96l-87 -129q51 9 81 9z" />
    <glyph glyph-name="onesuperior" unicode="&#xb9;" horiz-adv-x="808" 
d="M571 1449v-864h-202v555h-219v138q128 2 184 42t77 129h160z" />
    <glyph glyph-name="ordmasculine" unicode="&#xba;" horiz-adv-x="816" 
d="M564 906q0 93 -41 144t-115 51t-114.5 -51.5t-40.5 -146.5t42 -145t115 -49.5t113.5 52.5t40.5 145zM408 1241q162 0 260 -92q98 -93 98 -247t-100 -244t-262 -91q-160 0 -256 95q-96 96 -97 242q0 146 97 242t260 95z" />
    <glyph glyph-name="guillemotright" unicode="&#xbb;" horiz-adv-x="853" 
d="M78 934l320 -254v-270l-320 -252v241l183 143l-183 143v249zM480 937l325 -259v-271l-325 -253v243l186 143l-186 147v250z" />
    <glyph glyph-name="onequarter" unicode="&#xbc;" horiz-adv-x="1973" 
d="M1627 345v312l-238 -313zM1932 352v-158h-118v-194h-193v194h-395v169l405 501h183v-512h118zM1471 1442l-799 -1442h-171l803 1442h167zM563 1449v-864h-202v555h-219v138q128 2 184 42t77 129h160z" />
    <glyph glyph-name="onehalf" unicode="&#xbd;" horiz-adv-x="1972" 
d="M1913 164v-164h-689q2 156 97 249q35 35 77 64t148 97t132 101.5t26 82.5t-34 80.5t-89 31.5q-138 0 -142 -185h-194v26q1 155 97 239t238 84t235 -71q94 -71 94 -188t-78 -196q-36 -35 -165 -115t-185 -136h432zM1471 1442l-799 -1442h-171l803 1442h167zM563 1449v-864
h-202v555h-219v138q128 2 184 42t77 129h160z" />
    <glyph glyph-name="threequarters" unicode="&#xbe;" horiz-adv-x="1973" 
d="M1627 345v312l-238 -313zM1932 352v-158h-118v-194h-193v194h-395v169l405 501h183v-512h118zM1471 1442l-799 -1442h-171l803 1442h167zM393 1455q137 0 225 -65q88 -64 88 -176t-110 -165q143 -51 143 -186t-97.5 -213.5t-255.5 -78.5t-251 82.5t-93 224.5v15h195
q-1 -7 -1 -11q0 -70 40 -109.5t108 -39.5t107.5 33t39.5 86q0 119 -163 119q-22 0 -50 -3v138q23 -1 40 -1q154 0 154 100q0 44 -33 70.5t-88 26.5q-129 0 -133 -144h-193q4 111 60 183q89 114 268 114z" />
    <glyph glyph-name="questiondown" unicode="&#xbf;" horiz-adv-x="1122" 
d="M427 1148v314h317v-314h-317zM556 -35q-224 -1 -355 119t-131 301q0 122 57 203t224 199q51 36 72.5 87.5t23.5 143.5h272q-3 -114 -7.5 -150t-22.5 -84t-50.5 -84.5t-106.5 -96.5t-110.5 -100t-36.5 -119q0 -78 48 -123t128 -45q204 0 214 252h298q-9 -195 -94 -311
q-139 -192 -423 -192z" />
    <glyph glyph-name="Agrave" unicode="&#xc0;" horiz-adv-x="1426" 
d="M905 562l-194 551l-195 -551h389zM879 1465l555 -1465h-335l-116 328h-543l-119 -328h-329l557 1465h330zM373 1851h335l185 -266h-214z" />
    <glyph glyph-name="Aacute" unicode="&#xc1;" horiz-adv-x="1426" 
d="M905 562l-194 551l-195 -551h389zM879 1465l555 -1465h-335l-116 328h-543l-119 -328h-329l557 1465h330zM1054 1851l-306 -266h-214l184 266h336z" />
    <glyph glyph-name="Acircumflex" unicode="&#xc2;" horiz-adv-x="1426" 
d="M905 562l-194 551l-195 -551h389zM879 1465l555 -1465h-335l-116 328h-543l-119 -328h-329l557 1465h330zM1088 1591h-260l-119 141l-122 -141h-249l238 273h275z" />
    <glyph glyph-name="Atilde" unicode="&#xc3;" horiz-adv-x="1426" 
d="M905 562l-194 551l-195 -551h389zM879 1465l555 -1465h-335l-116 328h-543l-119 -328h-329l557 1465h330zM863 1600q-33 0 -53 5t-106 39t-125 34q-66 0 -85 -84h-143q18 101 66 161q77 97 169 97q51 0 145 -36q95 -36 133 -37q38 0 59.5 18.5t39.5 63.5h141
q-46 -261 -241 -261z" />
    <glyph glyph-name="Adieresis" unicode="&#xc4;" horiz-adv-x="1426" 
d="M629 1847v-234h-284v234h284zM1082 1847v-234h-282v234h282zM905 562l-194 551l-195 -551h389zM879 1465l555 -1465h-335l-116 328h-543l-119 -328h-329l557 1465h330z" />
    <glyph glyph-name="Aring" unicode="&#xc5;" horiz-adv-x="1426" 
d="M905 562l-194 551l-195 -551h389zM879 1465l555 -1465h-335l-116 328h-543l-119 -328h-329l557 1465h330zM714 1897q-48 0 -82.5 -33.5t-34.5 -81.5t34 -82.5t82 -34.5t82 33.5t34 81.5t-33.5 82.5t-81.5 34.5zM720 2024q100 0 168 -75t68 -175t-75 -168t-175 -68
t-168 75t-68 175t74 168t176 68z" />
    <glyph glyph-name="AE" unicode="&#xc6;" horiz-adv-x="1969" 
d="M909 551v653h-70l-294 -653h364zM1900 1462v-270h-688v-312h646v-251h-646v-359h706v-270h-1009v317h-465l-147 -317h-344l701 1462h1246z" />
    <glyph glyph-name="Ccedilla" unicode="&#xc7;" horiz-adv-x="1438" 
d="M774 -117q78 0 128.5 -41.5t50.5 -115.5t-69 -126.5t-178 -52.5t-237 47l40 87q91 -35 149 -35t87 22t29 56t-28.5 55t-66.5 21t-79 -17l-42 42l97 145q-238 39 -380 185q-212 219 -212 567t201 562q200 213 512 213t495 -204q119 -132 143 -321h-319q-19 106 -76 164
q-92 95 -246 95q-206 0 -311 -175q-77 -128 -77 -326t84 -329q107 -168 286 -168q144 -1 205 45t98.5 123.5t47.5 162.5h318q-20 -256 -183 -418q-95 -96 -200.5 -135t-284.5 -46l-62 -93q50 11 80 11z" />
    <glyph glyph-name="Egrave" unicode="&#xc8;" horiz-adv-x="1267" 
d="M316 1851h335l185 -266h-214zM1203 1462v-270h-778v-312h713v-251h-713v-359h792v-270h-1111v1462h1097z" />
    <glyph glyph-name="Eacute" unicode="&#xc9;" horiz-adv-x="1267" 
d="M1019 1851l-306 -266h-214l184 266h336zM1203 1462v-270h-778v-312h713v-251h-713v-359h792v-270h-1111v1462h1097z" />
    <glyph glyph-name="Ecircumflex" unicode="&#xca;" horiz-adv-x="1267" 
d="M1046 1591h-260l-120 141l-121 -141h-249l238 273h274zM1203 1462v-270h-778v-312h713v-251h-713v-359h792v-270h-1111v1462h1097z" />
    <glyph glyph-name="Edieresis" unicode="&#xcb;" horiz-adv-x="1267" 
d="M579 1847v-234h-284v234h284zM1032 1847v-234h-282v234h282zM1203 1462v-270h-778v-312h713v-251h-713v-359h792v-270h-1111v1462h1097z" />
    <glyph glyph-name="Igrave" unicode="&#xcc;" horiz-adv-x="532" 
d="M-81 1851h335l185 -266h-214zM426 1462v-1462h-319v1462h319z" />
    <glyph glyph-name="Iacute" unicode="&#xcd;" horiz-adv-x="532" 
d="M615 1851l-306 -266h-214l185 266h335zM426 1462v-1462h-319v1462h319z" />
    <glyph glyph-name="Icircumflex" unicode="&#xce;" horiz-adv-x="532" 
d="M620 1591h-260l-97 141l-100 -141h-249l216 273h275zM426 1462v-1462h-319v1462h319z" />
    <glyph glyph-name="Idieresis" unicode="&#xcf;" horiz-adv-x="532" 
d="M218 1847v-234h-257v234h257zM574 1847v-234h-257v234h257zM426 1462v-1462h-319v1462h319z" />
    <glyph glyph-name="Eth" unicode="&#xd0;" horiz-adv-x="1463" 
d="M425 1193v-329h321v-205h-321v-389h245q113 0 180.5 22.5t116.5 76.5q116 127 116 375t-143 364q-56 46 -121 65.5t-160 19.5h-234zM106 1462h591q316 0 489 -158q219 -198 219 -564t-207 -572q-91 -91 -204.5 -129.5t-290.5 -38.5h-597v659h-132v205h132v598z" />
    <glyph glyph-name="Ntilde" unicode="&#xd1;" horiz-adv-x="1448" 
d="M1342 1462v-1462h-321l-612 996l4 -996h-307v1462h325l608 -994l-4 994h307zM881 1600q-33 0 -53 5t-106 39t-125 34q-66 0 -85 -84h-143q18 101 66 161q77 97 169 97q50 0 144 -36t133 -37q39 0 60.5 18.5t39.5 63.5h141q-46 -261 -241 -261z" />
    <glyph glyph-name="Ograve" unicode="&#xd2;" horiz-adv-x="1540" 
d="M429 1851h336l184 -266h-214zM782 231q175 0 284 131q109 132 109 366q-1 234 -107 368t-288 135q-182 -1 -292 -135q-109 -134 -109 -367t108 -365q51 -63 129 -98t166 -35zM57 729q-1 364 207 566t512 202t513 -202q208 -202 208 -564q0 -312 -165 -517
q-202 -249 -556 -249t-558 255q-161 202 -161 509z" />
    <glyph glyph-name="Oacute" unicode="&#xd3;" horiz-adv-x="1540" 
d="M1140 1851l-306 -266h-214l184 266h336zM782 231q175 0 284 131q109 132 109 366q-1 234 -107 368t-288 135q-182 -1 -292 -135q-109 -134 -109 -367t108 -365q51 -63 129 -98t166 -35zM57 729q-1 364 207 566t512 202t513 -202q208 -202 208 -564q0 -312 -165 -517
q-202 -249 -556 -249t-558 255q-161 202 -161 509z" />
    <glyph glyph-name="Ocircumflex" unicode="&#xd4;" horiz-adv-x="1540" 
d="M1152 1591h-260l-119 141l-122 -141h-249l238 273h275zM782 231q175 0 284 131q109 132 109 366q-1 234 -107 368t-288 135q-182 -1 -292 -135q-109 -134 -109 -367t108 -365q51 -63 129 -98t166 -35zM57 729q-1 364 207 566t512 202t513 -202q208 -202 208 -564
q0 -312 -165 -517q-202 -249 -556 -249t-558 255q-161 202 -161 509z" />
    <glyph glyph-name="Otilde" unicode="&#xd5;" horiz-adv-x="1540" 
d="M934 1600q-33 0 -53 5t-106 39t-125 34q-66 0 -85 -84h-142q17 101 65 161q78 97 169 97q51 0 145 -36t132 -37q38 0 60 18.5t40 63.5h141q-46 -261 -241 -261zM782 231q175 0 284 131q109 132 109 366q-1 234 -107 368t-288 135q-182 -1 -292 -135q-109 -134 -109 -367
t108 -365q51 -63 129 -98t166 -35zM57 729q-1 364 207 566t512 202t513 -202q208 -202 208 -564q0 -312 -165 -517q-202 -249 -556 -249t-558 255q-161 202 -161 509z" />
    <glyph glyph-name="Odieresis" unicode="&#xd6;" horiz-adv-x="1540" 
d="M693 1847v-234h-284v234h284zM1146 1847v-234h-282v234h282zM782 231q175 0 284 131q109 132 109 366q-1 234 -107 368t-288 135q-182 -1 -292 -135q-109 -134 -109 -367t108 -365q51 -63 129 -98t166 -35zM57 729q-1 364 207 566t512 202t513 -202q208 -202 208 -564
q0 -312 -165 -517q-202 -249 -556 -249t-558 255q-161 202 -161 509z" />
    <glyph glyph-name="multiply" unicode="&#xd7;" 
d="M274 259l-139 139l319 319l-319 318l139 139l318 -319l319 319l138 -139l-318 -318l318 -319l-138 -139l-319 319z" />
    <glyph glyph-name="Oslash" unicode="&#xd8;" horiz-adv-x="1540" 
d="M1177 709q0 95 -8.5 144t-39.5 140l-580 -678q97 -84 235 -84q191 0 303 162q90 130 90 316zM782 1231q-170 0 -272 -107q-131 -137 -131 -396q0 -115 43 -258l597 687q-130 74 -237 74zM1496 746q0 -176 -43 -305t-136 -243t-228.5 -173.5t-282.5 -59.5t-267 35t-193 98
l-143 -163l-144 131l147 171q-61 88 -85 141q-64 141 -64 352q-1 361 203 564t537 203q168 0 290 -63l132 -73l135 151l149 -122l-149 -168q142 -200 142 -476z" />
    <glyph glyph-name="Ugrave" unicode="&#xd9;" horiz-adv-x="1422" 
d="M363 1851h335l185 -266h-214zM1334 1462v-864q0 -187 -34 -289q-115 -344 -588 -344q-502 0 -603 371q-25 95 -25 266v860h319v-881q0 -167 49 -239q74 -111 250 -111t244.5 80t68.5 270v881h319z" />
    <glyph glyph-name="Uacute" unicode="&#xda;" horiz-adv-x="1422" 
d="M1058 1851l-306 -266h-214l185 266h335zM1334 1462v-864q0 -187 -34 -289q-115 -344 -588 -344q-502 0 -603 371q-25 95 -25 266v860h319v-881q0 -167 49 -239q74 -111 250 -111t244.5 80t68.5 270v881h319z" />
    <glyph glyph-name="Ucircumflex" unicode="&#xdb;" horiz-adv-x="1422" 
d="M1086 1591h-260l-120 141l-122 -141h-249l239 273h274zM1334 1462v-864q0 -187 -34 -289q-115 -344 -588 -344q-502 0 -603 371q-25 95 -25 266v860h319v-881q0 -167 49 -239q74 -111 250 -111t244.5 80t68.5 270v881h319z" />
    <glyph glyph-name="Udieresis" unicode="&#xdc;" horiz-adv-x="1422" 
d="M626 1847v-234h-284v234h284zM1079 1847v-234h-282v234h282zM1334 1462v-864q0 -187 -34 -289q-115 -344 -588 -344q-502 0 -603 371q-25 95 -25 266v860h319v-881q0 -167 49 -239q74 -111 250 -111t244.5 80t68.5 270v881h319z" />
    <glyph glyph-name="Yacute" unicode="&#xdd;" horiz-adv-x="1300" 
d="M809 0h-319v568l-546 894h365l343 -601l345 601h357l-545 -898v-564zM998 1851l-306 -266h-214l184 266h336z" />
    <glyph glyph-name="Thorn" unicode="&#xde;" horiz-adv-x="1316" 
d="M425 989v-416h285q128 0 190 51q62 50 62 160t-80 165q-58 40 -189 40h-268zM106 1462h319v-204h271q148 0 234 -18.5t155 -65.5q191 -128 191 -372t-158 -375q-128 -105 -365 -105h-328v-322h-319v1462z" />
    <glyph glyph-name="germandbls" unicode="&#xdf;" horiz-adv-x="1172" 
d="M582 222q116 0 180.5 53t64.5 161t-72.5 171.5t-212.5 63.5h-35v193q26 -1 35 -1q102 0 154 40q69 53 69 149t-52 151.5t-137 55.5q-160 0 -175 -104t-15 -192v-963h-290v905q0 153 28.5 301t229.5 234q105 45 230 45q190 0 325 -103t135 -297q0 -106 -51 -187.5
t-139 -115.5q74 -17 127 -60q139 -110 139 -322t-174 -334q-116 -82 -311 -82q-56 0 -128 7v238q42 -7 75 -7z" />
    <glyph glyph-name="agrave" unicode="&#xe0;" horiz-adv-x="1127" 
d="M231 1592h306l184 -310h-195zM331 326q0 -79 43 -119t120 -40q128 0 207 92q28 33 38.5 67t10.5 91v125q-56 -36 -182 -55t-172 -45q-65 -37 -65 -116zM404 -31q-170 0 -270 86t-101 251q0 211 185 291q75 33 262 59t229.5 47.5t42.5 88.5q0 146 -190 146
q-101 0 -148 -37.5t-61 -129.5h-274q26 373 490 373q253 0 374 -106q56 -48 74.5 -104.5t18.5 -177.5l-5 -455q0 -122 7.5 -183t30.5 -118h-296q-19 60 -19 108q-137 -139 -350 -139z" />
    <glyph glyph-name="aacute" unicode="&#xe1;" horiz-adv-x="1127" 
d="M897 1592l-296 -310h-195l185 310h306zM331 326q0 -79 43 -119t120 -40q128 0 207 92q28 33 38.5 67t10.5 91v125q-56 -36 -182 -55t-172 -45q-65 -37 -65 -116zM404 -31q-170 0 -270 86t-101 251q0 211 185 291q75 33 262 59t229.5 47.5t42.5 88.5q0 146 -190 146
q-101 0 -148 -37.5t-61 -129.5h-274q26 373 490 373q253 0 374 -106q56 -48 74.5 -104.5t18.5 -177.5l-5 -455q0 -122 7.5 -183t30.5 -118h-296q-19 60 -19 108q-137 -139 -350 -139z" />
    <glyph glyph-name="acircumflex" unicode="&#xe2;" horiz-adv-x="1127" 
d="M931 1282h-235l-129 184l-133 -184h-224l229 310h265zM331 326q0 -79 43 -119t120 -40q128 0 207 92q28 33 38.5 67t10.5 91v125q-56 -36 -182 -55t-172 -45q-65 -37 -65 -116zM404 -31q-170 0 -270 86t-101 251q0 211 185 291q75 33 262 59t229.5 47.5t42.5 88.5
q0 146 -190 146q-101 0 -148 -37.5t-61 -129.5h-274q26 373 490 373q253 0 374 -106q56 -48 74.5 -104.5t18.5 -177.5l-5 -455q0 -122 7.5 -183t30.5 -118h-296q-19 60 -19 108q-137 -139 -350 -139z" />
    <glyph glyph-name="atilde" unicode="&#xe3;" horiz-adv-x="1127" 
d="M437 1394q-69 0 -84 -89h-132q16 103 59 167q68 100 163 100q51 0 139 -39t122 -39t53 18.5t35 64.5h132q-44 -266 -221 -266q-44 0 -78.5 11.5t-97.5 41.5t-90 30zM331 326q0 -79 43 -119t120 -40q128 0 207 92q28 33 38.5 67t10.5 91v125q-56 -36 -182 -55t-172 -45
q-65 -37 -65 -116zM404 -31q-170 0 -270 86t-101 251q0 211 185 291q75 33 262 59t229.5 47.5t42.5 88.5q0 146 -190 146q-101 0 -148 -37.5t-61 -129.5h-274q26 373 490 373q253 0 374 -106q56 -48 74.5 -104.5t18.5 -177.5l-5 -455q0 -122 7.5 -183t30.5 -118h-296
q-19 60 -19 108q-137 -139 -350 -139z" />
    <glyph glyph-name="adieresis" unicode="&#xe4;" horiz-adv-x="1127" 
d="M490 1563v-250h-272v250h272zM921 1563v-250h-273v250h273zM331 326q0 -79 43 -119t120 -40q128 0 207 92q28 33 38.5 67t10.5 91v125q-56 -36 -182 -55t-172 -45q-65 -37 -65 -116zM404 -31q-170 0 -270 86t-101 251q0 211 185 291q75 33 262 59t229.5 47.5t42.5 88.5
q0 146 -190 146q-101 0 -148 -37.5t-61 -129.5h-274q26 373 490 373q253 0 374 -106q56 -48 74.5 -104.5t18.5 -177.5l-5 -455q0 -122 7.5 -183t30.5 -118h-296q-19 60 -19 108q-137 -139 -350 -139z" />
    <glyph glyph-name="aring" unicode="&#xe5;" horiz-adv-x="1127" 
d="M566 1570q-42 0 -73.5 -31.5t-31.5 -77.5t30.5 -78t73.5 -32t73.5 32t30.5 77t-30.5 77.5t-72.5 32.5zM572 1700q94 0 158 -74t63 -172q0 -98 -70 -166q-70 -67 -165 -67t-158 74q-63 75 -63 173t70 165q71 67 165 67zM331 326q0 -79 43 -119t120 -40q128 0 207 92
q28 33 38.5 67t10.5 91v125q-56 -36 -182 -55t-172 -45q-65 -37 -65 -116zM404 -31q-170 0 -270 86t-101 251q0 211 185 291q75 33 262 59t229.5 47.5t42.5 88.5q0 146 -190 146q-101 0 -148 -37.5t-61 -129.5h-274q26 373 490 373q253 0 374 -106q56 -48 74.5 -104.5
t18.5 -177.5l-5 -455q0 -122 7.5 -183t30.5 -118h-296q-19 60 -19 108q-137 -139 -350 -139z" />
    <glyph glyph-name="ae" unicode="&#xe6;" horiz-adv-x="1816" 
d="M333 324q0 -78 46 -120t144 -42q97 0 163 70t66 180v130q-35 -27 -67.5 -37.5t-138.5 -26.5t-149 -41q-64 -35 -64 -113zM1241 925q-120 0 -187 -101q-35 -52 -47 -159h470q-7 104 -50 165q-66 95 -186 95zM1254 -31q-125 0 -227 50t-157 138q-152 -188 -445 -188
q-187 0 -289 87t-103 261q0 174 140 254q57 33 114 47t219 38t204 50t42 85q0 147 -187 147q-101 0 -149 -40.5t-58 -132.5h-280q13 178 117 266q63 53 161.5 83t209.5 30q259 0 355 -147q58 70 144 108.5t185 38.5q222 0 368 -161t147 -450q0 -12 -1 -48h-755
q1 -103 33 -167q64 -131 214 -130q150 0 217 159h276q-31 -130 -121 -227q-141 -151 -374 -151z" />
    <glyph glyph-name="ccedilla" unicode="&#xe7;" horiz-adv-x="1140" 
d="M594 -126q80 0 130 -42t50 -111t-41 -120q-65 -81 -193 -81t-249 50l39 91q88 -36 148 -36t89.5 22.5t29.5 58.5t-27.5 58t-65.5 22t-80 -17l-43 42l106 165q-83 18 -124 35t-89 52q-130 96 -182 253q-39 115 -39 244t47 248t133 199q143 137 383 137t381 -166
q81 -96 102 -256h-289q-36 192 -210 192q-135 0 -200 -117q-53 -95 -53 -243t53 -240q66 -114 200 -114q186 0 221 227h281q-22 -205 -159 -332q-70 -65 -148 -92.5t-215 -34.5l-66 -103q50 9 80 9z" />
    <glyph glyph-name="egrave" unicode="&#xe8;" horiz-adv-x="1160" 
d="M261 1592h306l185 -310h-195zM585 925q-97 0 -160 -68t-75 -184h463q-16 161 -91.5 206.5t-136.5 45.5zM608 -31q-257 0 -404 157q-72 77 -112 189t-39 237q0 242 145 417t388 175q196 0 334 -123q99 -88 144 -217.5t45 -325.5h-761q4 -84 25 -139q59 -150 219 -150
t221 157h279q-23 -94 -83 -177q-144 -200 -401 -200z" />
    <glyph glyph-name="eacute" unicode="&#xe9;" horiz-adv-x="1160" 
d="M912 1592l-295 -310h-195l184 310h306zM585 925q-97 0 -160 -68t-75 -184h463q-16 161 -91.5 206.5t-136.5 45.5zM608 -31q-257 0 -404 157q-72 77 -112 189t-39 237q0 242 145 417t388 175q196 0 334 -123q99 -88 144 -217.5t45 -325.5h-761q4 -84 25 -139
q59 -150 219 -150t221 157h279q-23 -94 -83 -177q-144 -200 -401 -200z" />
    <glyph glyph-name="ecircumflex" unicode="&#xea;" horiz-adv-x="1160" 
d="M955 1282h-236l-129 184l-133 -184h-223l228 310h265zM585 925q-97 0 -160 -68t-75 -184h463q-16 161 -91.5 206.5t-136.5 45.5zM608 -31q-257 0 -404 157q-72 77 -112 189t-39 237q0 242 145 417t388 175q196 0 334 -123q99 -88 144 -217.5t45 -325.5h-761
q4 -84 25 -139q59 -150 219 -150t221 157h279q-23 -94 -83 -177q-144 -200 -401 -200z" />
    <glyph glyph-name="edieresis" unicode="&#xeb;" horiz-adv-x="1160" 
d="M513 1563v-250h-272v250h272zM944 1563v-250h-273v250h273zM585 925q-97 0 -160 -68t-75 -184h463q-16 161 -91.5 206.5t-136.5 45.5zM608 -31q-257 0 -404 157q-72 77 -112 189t-39 237q0 242 145 417t388 175q196 0 334 -123q99 -88 144 -217.5t45 -325.5h-761
q4 -84 25 -139q59 -150 219 -150t221 157h279q-23 -94 -83 -177q-144 -200 -401 -200z" />
    <glyph glyph-name="igrave" unicode="&#xec;" horiz-adv-x="483" 
d="M-76 1592h292l184 -310h-180zM385 1113v-1113h-289v1113h289z" />
    <glyph glyph-name="iacute" unicode="&#xed;" horiz-adv-x="483" 
d="M561 1592l-296 -310h-180l185 310h291zM385 1113v-1113h-289v1113h289z" />
    <glyph glyph-name="icircumflex" unicode="&#xee;" horiz-adv-x="483" 
d="M566 1282h-221l-108 184l-110 -184h-209l192 310h265zM386 1113v-1113h-290v1113h290z" />
    <glyph glyph-name="idieresis" unicode="&#xef;" horiz-adv-x="483" 
d="M197 1563v-250h-250v250h250zM535 1563v-250h-250v250h250zM386 1113v-1113h-290v1113h290z" />
    <glyph glyph-name="eth" unicode="&#xf0;" horiz-adv-x="1203" 
d="M602 918q-120 0 -188 -96t-68 -269q0 -172 69 -265t186 -93q117 -1 187 91t70 266t-68 270t-188 96zM1150 558q0 -268 -153 -428t-392 -161q-276 0 -426 190q-126 160 -126 388t106 382q69 101 177 158.5t227 57.5q40 0 103 -10l-42 94l-168 -73l-44 137l160 69l-30 66
l167 77l39 -66l117 51l62 -128l-100 -45l144 -235q101 -165 140 -279t39 -245z" />
    <glyph glyph-name="ntilde" unicode="&#xf1;" horiz-adv-x="1179" 
d="M465 1394q-69 0 -84 -89h-132q15 103 58 167q68 100 164 100q50 0 138 -39t123 -39t53.5 18.5t34.5 64.5h132q-43 -266 -223 -266q-42 0 -77.5 11.5t-97.5 41.5t-89 30zM373 1113v-155q51 69 95 103q108 83 251 83t226 -62t113 -145.5t30 -236.5v-700h-289v639
q0 107 -17 155q-18 48 -62 74t-108 27q-64 0 -117 -32.5t-81 -92.5t-27 -194v-576h-290v1113h276z" />
    <glyph glyph-name="ograve" unicode="&#xf2;" horiz-adv-x="1203" 
d="M268 1592h306l185 -310h-195zM602 918q-120 0 -188 -96t-69 -269q0 -172 69 -265t186 -93q118 1 188 91t70 265t-68 271t-188 96zM599 1144q251 0 401 -160t150 -430t-154 -428t-401 -157q-247 0 -395 165q-148 164 -147 420q-1 256 147 423t399 167z" />
    <glyph glyph-name="oacute" unicode="&#xf3;" horiz-adv-x="1203" 
d="M934 1592l-295 -310h-195l184 310h306zM602 918q-120 0 -188 -96t-69 -269q0 -172 69 -265t186 -93q118 1 188 91t70 265t-68 271t-188 96zM599 1144q251 0 401 -160t150 -430t-154 -428t-401 -157q-247 0 -395 165q-148 164 -147 420q-1 256 147 423t399 167z" />
    <glyph glyph-name="ocircumflex" unicode="&#xf4;" horiz-adv-x="1203" 
d="M962 1282h-235l-130 184l-132 -184h-224l228 310h265zM602 918q-120 0 -188 -96t-69 -269q0 -172 69 -265t186 -93q118 1 188 91t70 265t-68 271t-188 96zM599 1144q251 0 401 -160t150 -430t-154 -428t-401 -157q-247 0 -395 165q-148 164 -147 420q-1 256 147 423
t399 167z" />
    <glyph glyph-name="otilde" unicode="&#xf5;" horiz-adv-x="1203" 
d="M474 1394q-71 0 -84 -89h-133q16 103 59 167q68 100 164 100q50 0 138 -39t122 -39t53.5 18.5t35.5 64.5h131q-43 -266 -222 -266q-43 0 -77.5 11.5t-97.5 41.5t-89 30zM602 918q-120 0 -188 -96t-69 -269q0 -172 69 -265t186 -93q118 1 188 91t70 265t-68 271t-188 96z
M599 1144q251 0 401 -160t150 -430t-154 -428t-401 -157q-247 0 -395 165q-148 164 -147 420q-1 256 147 423t399 167z" />
    <glyph glyph-name="odieresis" unicode="&#xf6;" horiz-adv-x="1203" 
d="M520 1563v-250h-272v250h272zM952 1563v-250h-273v250h273zM602 918q-120 0 -188 -96t-69 -269q0 -172 69 -265t186 -93q118 1 188 91t70 265t-68 271t-188 96zM599 1144q251 0 401 -160t150 -430t-154 -428t-401 -157q-247 0 -395 165q-148 164 -147 420q-1 256 147 423
t399 167z" />
    <glyph glyph-name="divide" unicode="&#xf7;" 
d="M88 618v196h1009v-196h-1009zM594 491q60 0 103 -43.5t43 -104.5t-43 -104t-105 -43t-104.5 43t-42.5 105t44.5 104.5t104.5 42.5zM594 1237q60 0 103 -43.5t43 -104.5t-43.5 -104t-104.5 -43t-104 43t-43 105t44.5 104.5t104.5 42.5z" />
    <glyph glyph-name="oslash" unicode="&#xf8;" horiz-adv-x="1229" 
d="M610 195q126 0 196 94t70 263q0 78 -30 176l-378 -480q44 -33 71 -43t71 -10zM607 918q-118 0 -187.5 -99.5t-69.5 -266.5q0 -72 28 -165l381 480q-64 51 -152 51zM1163 579q-1 -271 -147 -441t-391 -169q-188 0 -326 91l-124 -137l-106 112l114 133q-53 93 -68 128
q-49 115 -49 264q0 262 162 429q74 75 174 115t197.5 40t188.5 -25t148 -68l114 129l106 -107l-109 -131q116 -139 116 -363z" />
    <glyph glyph-name="ugrave" unicode="&#xf9;" horiz-adv-x="1180" 
d="M259 1592h307l184 -310h-195zM1084 1113v-1113h-276v158q-126 -189 -350 -189q-196 0 -296 134q-71 95 -71 305v705h290v-615q0 -97 12.5 -188.5t172.5 -91.5q137 0 199 125q30 60 30 218v552h289z" />
    <glyph glyph-name="uacute" unicode="&#xfa;" horiz-adv-x="1180" 
d="M926 1592l-296 -310h-195l185 310h306zM1084 1113v-1113h-276v158q-126 -189 -350 -189q-196 0 -296 134q-71 95 -71 305v705h290v-615q0 -97 12.5 -188.5t172.5 -91.5q137 0 199 125q30 60 30 218v552h289z" />
    <glyph glyph-name="ucircumflex" unicode="&#xfb;" horiz-adv-x="1180" 
d="M953 1282h-235l-130 184l-132 -184h-224l228 310h266zM1084 1113v-1113h-276v158q-126 -189 -350 -189q-196 0 -296 134q-71 95 -71 305v705h290v-615q0 -97 12.5 -188.5t172.5 -91.5q137 0 199 125q30 60 30 218v552h289z" />
    <glyph glyph-name="udieresis" unicode="&#xfc;" horiz-adv-x="1180" 
d="M511 1563v-250h-272v250h272zM943 1563v-250h-273v250h273zM1084 1113v-1113h-276v158q-126 -189 -350 -189q-196 0 -296 134q-71 95 -71 305v705h290v-615q0 -97 12.5 -188.5t172.5 -91.5q137 0 199 125q30 60 30 218v552h289z" />
    <glyph glyph-name="yacute" unicode="&#xfd;" horiz-adv-x="1043" 
d="M79 -143h118q55 0 83 8.5t55 37.5t27 84t-9 79l-378 1047h314l244 -773l234 773h301l-389 -1108q-49 -139 -79.5 -202.5t-74.5 -110.5t-100.5 -68.5t-140.5 -21.5h-86l-119 3v252zM854 1592l-295 -310h-195l184 310h306z" />
    <glyph glyph-name="thorn" unicode="&#xfe;" horiz-adv-x="1229" 
d="M376 550q0 -166 69 -254t187 -89q118 0 184 90t66 253t-68 254t-186 91t-185 -89.5t-67 -255.5zM386 1462v-488q109 170 319 170q209 0 339 -164t130 -420q0 -258 -121 -424t-335 -167q-214 0 -332 168v-532h-290v1857h290z" />
    <glyph glyph-name="ydieresis" unicode="&#xff;" horiz-adv-x="1043" 
d="M79 -143h118q55 0 83 8.5t55 37.5t27 84t-9 79l-378 1047h314l244 -773l234 773h301l-389 -1108q-49 -139 -79.5 -202.5t-74.5 -110.5t-100.5 -68.5t-140.5 -21.5h-86l-119 3v252zM451 1563v-250h-272v250h272zM883 1563v-250h-273v250h273z" />
    <glyph glyph-name="Amacron" unicode="&#x100;" horiz-adv-x="1426" 
d="M1070 1810v-165h-714v165h714zM905 562l-194 551l-195 -551h389zM879 1465l555 -1465h-335l-116 328h-543l-119 -328h-329l557 1465h330z" />
    <glyph glyph-name="amacron" unicode="&#x101;" horiz-adv-x="1127" 
d="M900 1512v-161h-670v161h670zM331 326q0 -79 43 -119t120 -40q128 0 207 92q28 33 38.5 67t10.5 91v125q-56 -36 -182 -55t-172 -45q-65 -37 -65 -116zM404 -31q-170 0 -270 86t-101 251q0 211 185 291q75 33 262 59t229.5 47.5t42.5 88.5q0 146 -190 146
q-101 0 -148 -37.5t-61 -129.5h-274q26 373 490 373q253 0 374 -106q56 -48 74.5 -104.5t18.5 -177.5l-5 -455q0 -122 7.5 -183t30.5 -118h-296q-19 60 -19 108q-137 -139 -350 -139z" />
    <glyph glyph-name="Abreve" unicode="&#x102;" horiz-adv-x="1426" 
d="M905 562l-194 551l-195 -551h389zM879 1465l555 -1465h-335l-116 328h-543l-119 -328h-329l557 1465h330zM714 1747q170 0 205 122h150q-5 -105 -59 -173q-92 -116 -296 -116t-297 116q-55 68 -59 173h149q37 -122 207 -122z" />
    <glyph glyph-name="abreve" unicode="&#x103;" horiz-adv-x="1127" 
d="M572 1454q150 0 181 135h142q-5 -111 -54 -182q-85 -122 -270 -122t-270 122q-49 71 -54 182h142q33 -135 183 -135zM331 326q0 -79 43 -119t120 -40q128 0 207 92q28 33 38.5 67t10.5 91v125q-56 -36 -182 -55t-172 -45q-65 -37 -65 -116zM404 -31q-170 0 -270 86
t-101 251q0 211 185 291q75 33 262 59t229.5 47.5t42.5 88.5q0 146 -190 146q-101 0 -148 -37.5t-61 -129.5h-274q26 373 490 373q253 0 374 -106q56 -48 74.5 -104.5t18.5 -177.5l-5 -455q0 -122 7.5 -183t30.5 -118h-296q-19 60 -19 108q-137 -139 -350 -139z" />
    <glyph glyph-name="Aogonek" unicode="&#x104;" horiz-adv-x="1426" 
d="M905 562l-194 551l-195 -551h389zM1315 -177q0 -46 36.5 -73t80.5 -27t90 12l1 -122q-73 -21 -132 -21q-112 0 -181 53t-69 125t33.5 121.5t111.5 108.5h-186l-117 328h-543l-119 -328h-329l557 1465h330l555 -1465q-119 -90 -119 -177z" />
    <glyph glyph-name="aogonek" unicode="&#x105;" horiz-adv-x="1127" 
d="M332 326q0 -79 43 -119t120 -40q128 0 207 92q28 33 38.5 67t10.5 91v125q-57 -36 -183 -55t-171 -45q-65 -37 -65 -116zM950 -185q0 -48 36 -76.5t80 -28.5t92 12v-128q-74 -22 -132 -22q-112 0 -181 55.5t-69 130.5t33.5 127.5t111.5 114.5h-147q-19 60 -19 108
q-137 -139 -350 -139q-169 0 -270 86t-101 251q0 211 185 292q76 33 262 58t229 47.5t43 89.5q0 146 -191 146q-100 0 -147 -38t-61 -130h-274q13 173 132 273t365 100t367 -106q56 -48 74.5 -104.5t18.5 -177.5l-5 -455q0 -122 7.5 -183t30.5 -118q-120 -95 -120 -185z" />
    <glyph glyph-name="Cacute" unicode="&#x106;" horiz-adv-x="1438" 
d="M1140 1851l-306 -266h-214l185 266h335zM758 -35q-336 0 -530 245q-165 210 -165 530t196 538t510 219q314 0 499 -200q132 -141 146 -325h-315q-26 124 -111 191.5t-215 67.5q-208 0 -311 -175q-77 -132 -77 -328t81 -328q103 -169 305 -169q144 0 229.5 85t105.5 248
h318q-16 -227 -152 -388q-178 -211 -514 -211z" />
    <glyph glyph-name="cacute" unicode="&#x107;" horiz-adv-x="1140" 
d="M932 1592l-296 -310h-195l185 310h306zM588 -31q-262 0 -410 187q-125 157 -125 390q0 287 167 452q146 146 368 146t355 -113t152 -308h-285q-16 91 -71 141t-139 50q-120 0 -187 -95t-67 -255t59 -262t189 -103q192 0 225 228h283q-21 -166 -109 -277
q-143 -181 -405 -181z" />
    <glyph glyph-name="Ccircumflex" unicode="&#x108;" horiz-adv-x="1438" 
d="M1160 1591h-260l-119 141l-122 -141h-249l238 273h275zM758 -35q-336 0 -530 245q-165 210 -165 530t196 538t510 219q314 0 499 -200q132 -141 146 -325h-315q-26 124 -111 191.5t-215 67.5q-208 0 -311 -175q-77 -132 -77 -328t81 -328q103 -169 305 -169
q144 0 229.5 85t105.5 248h318q-16 -227 -152 -388q-178 -211 -514 -211z" />
    <glyph glyph-name="ccircumflex" unicode="&#x109;" horiz-adv-x="1140" 
d="M957 1221h-235l-130 175l-132 -175h-224l228 295h266zM588 -31q-262 0 -410 187q-125 157 -125 390q0 287 167 452q146 146 368 146t355 -113t152 -308h-285q-16 91 -71 141t-139 50q-120 0 -187 -95t-67 -255t59 -262t189 -103q192 0 225 228h283q-21 -166 -109 -277
q-143 -181 -405 -181z" />
    <glyph glyph-name="Cdotaccent" unicode="&#x10a;" horiz-adv-x="1438" 
d="M909 1847v-234h-284v234h284zM758 -35q-336 0 -530 245q-165 210 -165 530t196 538t510 219q314 0 499 -200q132 -141 146 -325h-315q-26 124 -111 191.5t-215 67.5q-208 0 -311 -175q-77 -132 -77 -328t81 -328q103 -169 305 -169q144 0 229.5 85t105.5 248h318
q-16 -227 -152 -388q-178 -211 -514 -211z" />
    <glyph glyph-name="cdotaccent" unicode="&#x10b;" horiz-adv-x="1140" 
d="M735 1563v-250h-272v250h272zM588 -31q-262 0 -410 187q-125 157 -125 390q0 287 167 452q146 146 368 146t355 -113t152 -308h-285q-16 91 -71 141t-139 50q-120 0 -187 -95t-67 -255t59 -262t189 -103q192 0 225 228h283q-21 -166 -109 -277q-143 -181 -405 -181z" />
    <glyph glyph-name="Ccaron" unicode="&#x10c;" horiz-adv-x="1438" 
d="M1160 1864l-237 -273h-275l-238 273h249l122 -141l119 141h260zM758 -35q-336 0 -530 245q-165 210 -165 530t196 538t510 219q314 0 499 -200q132 -141 146 -325h-315q-26 124 -111 191.5t-215 67.5q-208 0 -311 -175q-77 -132 -77 -328t81 -328q103 -169 305 -169
q144 0 229.5 85t105.5 248h318q-16 -227 -152 -388q-178 -211 -514 -211z" />
    <glyph glyph-name="ccaron" unicode="&#x10d;" horiz-adv-x="1140" 
d="M961 1592l-226 -310h-267l-231 310h233l131 -189l134 189h226zM588 -31q-262 0 -410 187q-125 157 -125 390q0 287 167 452q146 146 368 146t355 -113t152 -308h-285q-16 91 -71 141t-139 50q-120 0 -187 -95t-67 -255t59 -262t189 -103q192 0 225 228h283
q-21 -166 -109 -277q-143 -181 -405 -181z" />
    <glyph glyph-name="Dcaron" unicode="&#x10e;" horiz-adv-x="1463" 
d="M1027 1864l-238 -273h-274l-238 273h248l122 -141l120 141h260zM425 1192v-922h246q113 0 180 22.5t117 76.5q116 125 116 359q0 464 -425 464h-234zM106 1462h591q165 0 282.5 -38t207.5 -120q219 -200 219 -566t-207 -570q-91 -91 -205 -129.5t-290 -38.5h-598v1462z
" />
    <glyph glyph-name="dcaron" unicode="&#x10f;" horiz-adv-x="1540" 
d="M1526 1535v-164q0 -90 -16 -133q-46 -120 -244 -128v99q78 6 109 30t38 83h-147v213h260zM854 564q0 166 -70 254t-184 88q-115 0 -183 -88t-68 -252q1 -164 67 -256t186 -92t186 90t66 256zM1134 1535v-1535h-277v142q-96 -173 -319 -173t-352 164q-129 165 -129 421
t113 411q130 179 350 179t325 -168v559h289z" />
    <glyph glyph-name="Dcroat" unicode="&#x110;" horiz-adv-x="1463" 
d="M425 1193v-329h321v-205h-321v-389h245q113 0 180.5 22.5t116.5 76.5q116 127 116 375t-143 364q-56 46 -121 65.5t-160 19.5h-234zM106 1462h591q316 0 489 -158q219 -198 219 -564t-207 -572q-91 -91 -204.5 -129.5t-290.5 -38.5h-597v659h-132v205h132v598z" />
    <glyph glyph-name="dcroat" unicode="&#x111;" horiz-adv-x="1229" 
d="M600 890q-116 0 -184 -84t-68 -244t66 -252t188 -92q121 0 187 91t66 251t-70 246q-69 84 -185 84zM1134 1194v-1194h-276v142q-104 -173 -324 -173t-348 164q-130 165 -130 419t113 403q133 174 351 174t325 -153v218h-303v176h303v92h289v-92h124v-176h-124z" />
    <glyph glyph-name="Emacron" unicode="&#x112;" horiz-adv-x="1267" 
d="M1018 1810v-165h-713v165h713zM1203 1462v-270h-778v-312h713v-251h-713v-359h792v-270h-1111v1462h1097z" />
    <glyph glyph-name="emacron" unicode="&#x113;" horiz-adv-x="1160" 
d="M931 1512v-161h-670v161h670zM585 925q-97 0 -160 -68t-75 -184h463q-16 161 -91.5 206.5t-136.5 45.5zM608 -31q-257 0 -404 157q-72 77 -112 189t-39 237q0 242 145 417t388 175q196 0 334 -123q99 -88 144 -217.5t45 -325.5h-761q4 -84 25 -139q59 -150 219 -150
t221 157h279q-23 -94 -83 -177q-144 -200 -401 -200z" />
    <glyph glyph-name="Ebreve" unicode="&#x114;" horiz-adv-x="1267" 
d="M664 1747q170 0 206 122h149q-4 -105 -59 -173q-92 -116 -296 -116t-297 116q-54 68 -59 173h149q37 -122 207 -122zM1203 1462v-270h-778v-312h713v-251h-713v-359h792v-270h-1111v1462h1097z" />
    <glyph glyph-name="ebreve" unicode="&#x115;" horiz-adv-x="1160" 
d="M580 1454q150 0 181 135h142q-5 -111 -54 -182q-83 -122 -269 -122t-270 122q-50 71 -54 182h141q33 -135 183 -135zM585 925q-97 0 -160 -68t-75 -184h463q-16 161 -91.5 206.5t-136.5 45.5zM608 -31q-257 0 -404 157q-72 77 -112 189t-39 237q0 242 145 417t388 175
q196 0 334 -123q99 -88 144 -217.5t45 -325.5h-761q4 -84 25 -139q59 -150 219 -150t221 157h279q-23 -94 -83 -177q-144 -200 -401 -200z" />
    <glyph glyph-name="Edotaccent" unicode="&#x116;" horiz-adv-x="1267" 
d="M813 1847v-234h-284v234h284zM1203 1462v-270h-778v-312h713v-251h-713v-359h792v-270h-1111v1462h1097z" />
    <glyph glyph-name="edotaccent" unicode="&#x117;" horiz-adv-x="1160" 
d="M730 1563v-250h-272v250h272zM585 925q-97 0 -160 -68t-75 -184h463q-16 161 -91.5 206.5t-136.5 45.5zM608 -31q-257 0 -404 157q-72 77 -112 189t-39 237q0 242 145 417t388 175q196 0 334 -123q99 -88 144 -217.5t45 -325.5h-761q4 -84 25 -139q59 -150 219 -150
t221 157h279q-23 -94 -83 -177q-144 -200 -401 -200z" />
    <glyph glyph-name="Eogonek" unicode="&#x118;" horiz-adv-x="1267" 
d="M1203 1462v-270h-778v-312h713v-251h-713v-359h792v-270q-120 -92 -120 -177q0 -46 36.5 -73t80.5 -27t91 12v-122q-73 -21 -131 -21q-112 0 -181.5 53t-69.5 125t34 121.5t112 108.5h-963v1462h1097z" />
    <glyph glyph-name="eogonek" unicode="&#x119;" horiz-adv-x="1160" 
d="M585 925q-97 0 -160 -68t-75 -184h463q-16 161 -91.5 206.5t-136.5 45.5zM722 -177q0 -113 134 -113q28 0 74 12v-128q-74 -22 -132 -22q-111 0 -180.5 55.5t-69.5 145.5q0 57 30 103.5t101 98.5q-64 -5 -107 -5q-136 0 -266 74t-191 215q-62 141 -62 292q0 243 145 418
t388 175q196 0 334 -123q99 -88 144 -217.5t45 -325.5h-761q4 -84 25 -139q59 -150 219 -150t221 157h279q-27 -108 -89.5 -186t-195.5 -170q-85 -84 -85 -167z" />
    <glyph glyph-name="Ecaron" unicode="&#x11a;" horiz-adv-x="1267" 
d="M1046 1864l-238 -273h-274l-238 273h249l121 -141l120 141h260zM1203 1462v-270h-778v-312h713v-251h-713v-359h792v-270h-1111v1462h1097z" />
    <glyph glyph-name="ecaron" unicode="&#x11b;" horiz-adv-x="1160" 
d="M956 1592l-226 -310h-267l-231 310h233l132 -189l133 189h226zM585 925q-97 0 -160 -68t-75 -184h463q-16 161 -91.5 206.5t-136.5 45.5zM608 -31q-257 0 -404 157q-72 77 -112 189t-39 237q0 242 145 417t388 175q196 0 334 -123q99 -88 144 -217.5t45 -325.5h-761
q4 -84 25 -139q59 -150 219 -150t221 157h279q-23 -94 -83 -177q-144 -200 -401 -200z" />
    <glyph glyph-name="Gcircumflex" unicode="&#x11c;" horiz-adv-x="1513" 
d="M1121 1591h-260l-119 141l-122 -141h-249l238 273h275zM1420 788v-788h-204l-32 167q-162 -202 -437 -202q-335 0 -529 248q-161 207 -161 511q-1 345 203 559t504 214t481 -186q135 -140 155 -330h-309q-24 118 -107.5 184t-211.5 66q-194 0 -300 -150
q-93 -131 -93 -351t87 -349q107 -157 316 -157q151 0 247.5 91t101.5 239h-325v234h614z" />
    <glyph glyph-name="gcircumflex" unicode="&#x11d;" horiz-adv-x="1208" 
d="M944 1221h-235l-129 175l-133 -175h-223l228 295h265zM595 906q-131 0 -188 -95t-57 -242t68 -228t186 -81q116 0 181 113q50 86 50 231q0 146 -70 224t-170 78zM1112 1113v-974q0 -131 -16 -208.5t-55 -141.5q-126 -204 -452 -204q-454 0 -497 349h292q30 -143 210 -143
q140 0 188 73t49 215l1 126q-112 -171 -320 -171t-332 148q-123 148 -123 399t126 407t337 156q109 0 182 -41.5t134 -137.5v148h276z" />
    <glyph glyph-name="Gbreve" unicode="&#x11e;" horiz-adv-x="1513" 
d="M782 1747q170 0 206 122h150q-5 -105 -59 -173q-93 -116 -297 -116t-296 116q-54 68 -60 173h150q36 -122 206 -122zM1420 788v-788h-204l-32 167q-162 -202 -437 -202q-335 0 -529 248q-161 207 -161 511q-1 345 203 559t504 214t481 -186q135 -140 155 -330h-309
q-24 118 -107.5 184t-211.5 66q-194 0 -300 -150q-93 -131 -93 -351t87 -349q107 -157 316 -157q151 0 247.5 91t101.5 239h-325v234h614z" />
    <glyph glyph-name="gbreve" unicode="&#x11f;" horiz-adv-x="1208" 
d="M600 1454q150 0 182 135h142q-5 -111 -54 -182q-85 -122 -270 -122t-270 122q-49 71 -54 182h142q32 -135 182 -135zM595 906q-131 0 -188 -95t-57 -242t68 -228t186 -81q116 0 181 113q50 86 50 231q0 146 -70 224t-170 78zM1112 1113v-974q0 -131 -16 -208.5
t-55 -141.5q-126 -204 -452 -204q-454 0 -497 349h292q30 -143 210 -143q140 0 188 73t49 215l1 126q-112 -171 -320 -171t-332 148q-123 148 -123 399t126 407t337 156q109 0 182 -41.5t134 -137.5v148h276z" />
    <glyph glyph-name="Gdotaccent" unicode="&#x120;" horiz-adv-x="1513" 
d="M894 1847v-234h-284v234h284zM1420 788v-788h-204l-32 167q-162 -202 -437 -202q-335 0 -529 248q-161 207 -161 511q-1 345 203 559t504 214t481 -186q135 -140 155 -330h-309q-24 118 -107.5 184t-211.5 66q-194 0 -300 -150q-93 -131 -93 -351t87 -349
q107 -157 316 -157q151 0 247.5 91t101.5 239h-325v234h614z" />
    <glyph glyph-name="gdotaccent" unicode="&#x121;" horiz-adv-x="1208" 
d="M720 1489v-238h-272v238h272zM595 906q-131 0 -188 -95t-57 -242t68 -228t186 -81q116 0 181 113q50 86 50 231q0 146 -70 224t-170 78zM1112 1113v-974q0 -131 -16 -208.5t-55 -141.5q-126 -204 -452 -204q-454 0 -497 349h292q30 -143 210 -143q140 0 188 73t49 215
l1 126q-112 -171 -320 -171t-332 148q-123 148 -123 399t126 407t337 156q109 0 182 -41.5t134 -137.5v148h276z" />
    <glyph glyph-name="Gcommaaccent" unicode="&#x122;" horiz-adv-x="1513" 
d="M892 -132v-156q0 -150 -95 -207q-62 -37 -180 -41v93q86 8 116.5 29t38.5 79h-155v203h275zM1420 788v-788h-204l-32 167q-162 -202 -437 -202q-335 0 -529 248q-161 207 -161 511q-1 345 203 559t504 214t481 -186q135 -140 155 -330h-309q-24 118 -107.5 184t-211.5 66
q-194 0 -300 -150q-93 -131 -93 -351t87 -349q107 -157 316 -157q151 0 247.5 91t101.5 239h-325v234h614z" />
    <glyph glyph-name="gcommaaccent" unicode="&#x123;" horiz-adv-x="1205" 
d="M465 1306v164q0 91 16 133q46 120 244 127v-98q-77 -6 -108.5 -30t-39.5 -83h148v-213h-260zM592 906q-131 0 -188 -95t-57 -242q1 -147 69 -228t184 -81t182 113q50 86 50 231q0 146 -70 224t-170 78zM1109 1113v-974q0 -131 -16 -208.5t-55 -141.5q-126 -204 -452 -204
q-454 0 -497 349h292q30 -143 210 -143q140 0 188 73t49 215l1 126q-113 -171 -321 -171t-331 148t-123 399t126 407t337 156q109 0 182 -41.5t134 -137.5v148h276z" />
    <glyph glyph-name="Hcircumflex" unicode="&#x124;" horiz-adv-x="1449" 
d="M1083 1591h-260l-98 141l-100 -141h-249l217 273h274zM1343 1462v-1462h-319v637h-598v-637h-319v1462h319v-555h598v555h319z" />
    <glyph glyph-name="hcircumflex" unicode="&#x125;" horiz-adv-x="1179" 
d="M668 1517h-260l-119 142l-122 -142h-249l238 274h275zM386 1462v-501q48 86 136.5 134.5t195.5 48.5q219 0 314 -157q55 -92 55 -280v-707h-289v655q0 123 -33 170q-49 70 -153 70q-138 0 -196 -123q-18 -38 -24 -83t-6 -144v-545h-290v1462h290z" />
    <glyph glyph-name="Hbar" unicode="&#x126;" horiz-adv-x="1449" 
d="M426 1140v-233h598v233h-598zM1343 1305h105v-165h-105v-1140h-319v637h-598v-637h-319v1140h-105v165h105v157h319v-157h598v157h319v-157z" />
    <glyph glyph-name="hbar" unicode="&#x127;" horiz-adv-x="1179" 
d="M386 1373h300v-153h-300v-259q48 85 136.5 134t195.5 49q219 0 314 -157q55 -92 55 -280v-707h-289v655q0 124 -33 170q-49 70 -153 70q-137 0 -196 -123q-18 -37 -24 -82.5t-6 -144.5v-545h-290v1220h-80v153h80v89h290v-89z" />
    <glyph glyph-name="Itilde" unicode="&#x128;" horiz-adv-x="532" 
d="M401 1600q-33 0 -53 5t-106 39t-124 34q-66 0 -86 -84h-142q17 101 66 161q77 97 168 97q51 0 145 -36t133 -37q39 0 60.5 18.5t38.5 63.5h142q-48 -261 -242 -261zM426 1462v-1462h-319v1462h319z" />
    <glyph glyph-name="itilde" unicode="&#x129;" horiz-adv-x="482" 
d="M106 1328q-69 0 -84 -85h-132q16 98 59 159q68 96 164 96q49 0 137 -38t128 -37q55 0 83 79h132q-42 -253 -222 -253q-42 0 -77.5 11.5t-97.5 39.5t-90 28zM387 1113v-1113h-290v1113h290z" />
    <glyph glyph-name="Imacron" unicode="&#x12a;" horiz-adv-x="532" 
d="M565 1810v-165h-597v165h597zM426 1462v-1462h-319v1462h319z" />
    <glyph glyph-name="imacron" unicode="&#x12b;" horiz-adv-x="483" 
d="M519 1512v-161h-553v161h553zM386 1113v-1113h-290v1113h290z" />
    <glyph glyph-name="Ibreve" unicode="&#x12c;" horiz-adv-x="532" 
d="M270 1747q170 0 206 122h149q-5 -105 -59 -173q-92 -116 -296 -116t-297 116q-54 68 -59 173h149q37 -122 207 -122zM425 1462v-1462h-319v1462h319z" />
    <glyph glyph-name="ibreve" unicode="&#x12d;" horiz-adv-x="483" 
d="M242 1384q150 0 181 129h142q-4 -105 -54 -174q-84 -116 -269 -116t-270 116q-50 69 -54 174h142q32 -129 182 -129zM387 1113v-1113h-290v1113h290z" />
    <glyph glyph-name="Iogonek" unicode="&#x12e;" horiz-adv-x="532" 
d="M107 1462h319v-1462q-48 -26 -83.5 -80t-35.5 -98t30 -70.5t65 -26.5t70 10v-122q-78 -22 -122 -22q-90 0 -153 57t-63 131q0 140 152 221h-179v1462z" />
    <glyph glyph-name="iogonek" unicode="&#x12f;" horiz-adv-x="483" 
d="M386 1563v-261h-290v261h290zM96 0v1113h290v-1113q-44 -33 -73.5 -87.5t-29.5 -100.5t29 -73.5t64 -27.5t78 11v-128q-75 -22 -127 -22q-126 0 -188 97q-31 49 -31 107t33.5 110.5t112.5 113.5h-158z" />
    <glyph glyph-name="Idotaccent" unicode="&#x130;" horiz-adv-x="532" 
d="M409 1847v-234h-284v234h284zM426 1462v-1462h-319v1462h319z" />
    <glyph glyph-name="dotlessi" unicode="&#x131;" horiz-adv-x="483" 
d="M386 1113v-1113h-290v1113h290z" />
    <glyph glyph-name="IJ" unicode="&#x132;" horiz-adv-x="1582" 
d="M1498 1462v-984q0 -128 -19.5 -205t-68.5 -141q-127 -167 -392 -167q-312 0 -429 210q-60 110 -60 311q0 20 1 61h296v-42q0 -147 24 -197q40 -84 147 -84t144.5 54t37.5 189v995h319zM426 1462v-1462h-319v1462h319z" />
    <glyph glyph-name="ij" unicode="&#x133;" horiz-adv-x="980" 
d="M881 1574v-261h-289v261h289zM881 1113v-1114l2 -86q0 -101 -39.5 -175t-111.5 -108t-203 -35q-50 0 -116 6v246q33 -3 71 -3q81 0 98 55q10 33 10 194v1020h289zM386 1113v-1113h-290v1113h290zM386 1574v-261h-290v261h290z" />
    <glyph glyph-name="Jcircumflex" unicode="&#x134;" horiz-adv-x="1047" 
d="M1155 1591h-260l-98 141l-99 -141h-249l216 273h274zM963 1462v-984q0 -128 -19.5 -205t-68.5 -141q-127 -167 -392 -167q-312 0 -429 210q-60 110 -60 311q0 20 1 61h296v-42q0 -147 24 -197q40 -84 147 -84t144.5 54t37.5 189v995h319z" />
    <glyph glyph-name="jcircumflex" unicode="&#x135;" horiz-adv-x="483" 
d="M599 1221h-235l-130 175l-132 -175h-224l228 295h266zM384 1113v-1114l2 -86q0 -101 -39 -175t-111 -108t-203 -35q-50 0 -116 6v246q31 -3 69 -3q81 0 99 55q10 34 10 194v1020h289z" />
    <glyph glyph-name="Kcommaaccent" unicode="&#x136;" horiz-adv-x="1398" 
d="M857 -132v-156q0 -150 -95 -207q-62 -37 -180 -41v93q86 8 116.5 29t38.5 79h-155v203h275zM425 0h-319v1462h319v-605l573 605h404l-573 -578l627 -884h-403l-444 656l-184 -184v-472z" />
    <glyph glyph-name="kcommaaccent" unicode="&#x137;" horiz-adv-x="1111" 
d="M730 -138v-164q0 -91 -16 -133q-46 -121 -244 -128v99q77 6 108.5 30t38.5 83h-147v213h260zM386 0h-290v1462h290v-748l372 399h345l-399 -412l445 -701h-352l-292 494l-119 -115v-379z" />
    <glyph glyph-name="kgreenlandic" unicode="&#x138;" horiz-adv-x="1150" 
d="M355 0h-260v1115h260v-436l413 436h333l-441 -444l476 -671h-327l-329 485l-125 -125v-360z" />
    <glyph glyph-name="Lacute" unicode="&#x139;" horiz-adv-x="1161" 
d="M615 1851l-306 -266h-214l185 266h335zM1141 270v-270h-1034v1462h319v-1192h715z" />
    <glyph glyph-name="lacute" unicode="&#x13a;" horiz-adv-x="483" 
d="M604 1870l-306 -280h-214l185 280h335zM385 1462v-1462h-289v1462h289z" />
    <glyph glyph-name="Lcommaaccent" unicode="&#x13b;" horiz-adv-x="1161" 
d="M764 -132v-156q0 -150 -95 -207q-62 -37 -180 -41v93q86 8 116.5 29t38.5 79h-155v203h275zM1141 270v-270h-1034v1462h319v-1192h715z" />
    <glyph glyph-name="lcommaaccent" unicode="&#x13c;" horiz-adv-x="483" 
d="M371 -138v-164q0 -91 -16 -133q-47 -121 -244 -128v99q77 6 108.5 30t39.5 83h-148v213h260zM386 1462v-1462h-290v1462h290z" />
    <glyph glyph-name="Lcaron" unicode="&#x13d;" horiz-adv-x="1161" 
d="M935 1462v-156q0 -150 -95 -207q-61 -37 -180 -42v94q86 8 116.5 29t38.5 79h-155v203h275zM1141 270v-270h-1034v1462h319v-1192h715z" />
    <glyph glyph-name="lcaron" unicode="&#x13e;" horiz-adv-x="793" 
d="M778 1462v-164q0 -91 -16 -133q-46 -120 -244 -128v99q77 6 108.5 30t39.5 83h-148v213h260zM387 1462v-1462h-290v1462h290z" />
    <glyph glyph-name="Ldot" unicode="&#x13f;" horiz-adv-x="1161" 
d="M1065 975v-378h-365v378h365zM1141 284v-284h-1034v1462h319v-1178h715z" />
    <glyph glyph-name="ldot" unicode="&#x140;" horiz-adv-x="880" 
d="M880 1003v-378h-366v378h366zM386 1462v-1462h-290v1462h290z" />
    <glyph glyph-name="Lslash" unicode="&#x141;" horiz-adv-x="1161" 
d="M107 1462h319v-534l299 209v-248l-299 -208v-411h714v-270h-1033v529l-132 -99v247l132 99v686z" />
    <glyph glyph-name="lslash" unicode="&#x142;" horiz-adv-x="544" 
d="M128 1462h289v-557l132 97v-216l-132 -97v-689h-289v541l-132 -100v216l132 100v705z" />
    <glyph glyph-name="Nacute" unicode="&#x143;" horiz-adv-x="1448" 
d="M1342 1462v-1462h-321l-612 996l4 -996h-307v1462h325l608 -994l-4 994h307zM1072 1851l-306 -266h-214l184 266h336z" />
    <glyph glyph-name="nacute" unicode="&#x144;" horiz-adv-x="1179" 
d="M923 1592l-296 -310h-195l185 310h306zM373 1113v-155q51 69 95 103q108 83 251 83t226 -62t113 -145.5t30 -236.5v-700h-289v639q0 107 -17 155q-18 48 -62 74t-108 27q-64 0 -117 -32.5t-81 -92.5t-27 -194v-576h-290v1113h276z" />
    <glyph glyph-name="Ncommaaccent" unicode="&#x145;" horiz-adv-x="1448" 
d="M1342 1462v-1462h-321l-612 996l4 -996h-307v1462h325l608 -994l-4 994h307zM848 -132v-156q0 -150 -95 -207q-62 -37 -180 -41v93q86 8 116.5 29t38.5 79h-155v203h275z" />
    <glyph glyph-name="ncommaaccent" unicode="&#x146;" horiz-adv-x="1179" 
d="M723 -138v-164q0 -91 -16 -133q-47 -121 -244 -128v99q77 6 108.5 30t39.5 83h-148v213h260zM373 1113v-156q51 70 95 104q108 83 251 83t226 -62t113 -146t30 -236v-700h-289v639q0 107 -17 155q-18 48 -62 74t-107 27q-63 0 -117 -32.5t-82 -92.5t-27 -194v-576h-290
v1113h276z" />
    <glyph glyph-name="Ncaron" unicode="&#x147;" horiz-adv-x="1448" 
d="M1342 1462v-1462h-321l-612 996l4 -996h-307v1462h325l608 -994l-4 994h307zM1099 1864l-238 -273h-274l-238 273h249l121 -141l120 141h260z" />
    <glyph glyph-name="ncaron" unicode="&#x148;" horiz-adv-x="1179" 
d="M952 1592l-226 -310h-267l-231 310h233l131 -189l134 189h226zM373 1113v-155q51 69 95 103q108 83 251 83t226 -62t113 -145.5t30 -236.5v-700h-289v639q0 107 -17 155q-18 48 -62 74t-108 27q-64 0 -117 -32.5t-81 -92.5t-27 -194v-576h-290v1113h276z" />
    <glyph glyph-name="napostrophe" unicode="&#x149;" horiz-adv-x="1265" 
d="M192 1462v-156q0 -87 -16 -127q-46 -114 -244 -122v94q78 7 108.5 29.5t39.5 78.5h-148v203h260zM459 1113v-155q51 69 95 103q108 83 251 83t226 -62t113 -146t30 -236v-700h-289v639q1 107 -17 155t-62 74t-107 27q-63 0 -117 -32.5t-82 -92.5t-27 -194v-576h-290v1113
h276z" />
    <glyph glyph-name="Eng" unicode="&#x14a;" horiz-adv-x="1449" 
d="M426 1535v-194q65 86 124 128q144 103 328 103t287 -76t140.5 -181.5t37.5 -294.5v-1021q0 -149 -26 -224q-63 -180 -356 -180q-49 0 -115 6v246q32 -3 70 -3q82 0 98 55q10 34 10 194v851q0 149 -26 213t-90 100t-152 36q-141 0 -232 -87q-55 -52 -76.5 -127.5
t-21.5 -213.5v-865h-319v1535h319z" />
    <glyph glyph-name="eng" unicode="&#x14b;" horiz-adv-x="1247" 
d="M403 1113v-156q51 70 95 104q106 83 250 83t227 -62t113 -146t30 -236v-701l2 -86q0 -101 -39 -175t-111 -108t-204 -35q-50 0 -116 6v246q33 -3 71 -3q80 0 98 55q10 34 10 194v546q1 107 -17 155t-62 74t-108 27q-64 0 -117 -32.5t-81 -92.5t-27 -194v-576h-290v1113
h276z" />
    <glyph glyph-name="Omacron" unicode="&#x14c;" horiz-adv-x="1540" 
d="M1134 1810v-165h-714v165h714zM782 231q175 0 284 131q109 132 109 366q-1 234 -107 368t-288 135q-182 -1 -292 -135q-109 -134 -109 -367t108 -365q51 -63 129 -98t166 -35zM57 729q-1 364 207 566t512 202t513 -202q208 -202 208 -564q0 -312 -165 -517
q-202 -249 -556 -249t-558 255q-161 202 -161 509z" />
    <glyph glyph-name="omacron" unicode="&#x14d;" horiz-adv-x="1203" 
d="M936 1512v-161h-669v161h669zM602 918q-120 0 -188 -96t-69 -269q0 -172 69 -265t186 -93q118 1 188 91t70 265t-68 271t-188 96zM599 1144q251 0 401 -160t150 -430t-154 -428t-401 -157q-247 0 -395 165q-148 164 -147 420q-1 256 147 423t399 167z" />
    <glyph glyph-name="Obreve" unicode="&#x14e;" horiz-adv-x="1540" 
d="M777 1747q170 0 207 122h149q-5 -105 -59 -173q-93 -116 -297 -116t-296 116q-54 68 -59 173h149q36 -122 206 -122zM782 231q175 0 284 131q109 132 109 366q-1 234 -107 368t-288 135q-182 -1 -292 -135q-109 -134 -109 -367t108 -365q51 -63 129 -98t166 -35zM57 729
q-1 364 207 566t512 202t513 -202q208 -202 208 -564q0 -312 -165 -517q-202 -249 -556 -249t-558 255q-161 202 -161 509z" />
    <glyph glyph-name="obreve" unicode="&#x14f;" horiz-adv-x="1203" 
d="M602 1384q150 0 181 129h142q-4 -105 -54 -174q-85 -116 -270 -116t-269 116q-50 69 -54 174h142q32 -129 182 -129zM602 918q-120 0 -188 -96t-69 -269q0 -172 69 -265t186 -93q118 1 188 91t70 265t-68 271t-188 96zM599 1144q251 0 401 -160t150 -430t-154 -428
t-401 -157q-247 0 -395 165q-148 164 -147 420q-1 256 147 423t399 167z" />
    <glyph glyph-name="Ohungarumlaut" unicode="&#x150;" horiz-adv-x="1540" 
d="M906 1851l-221 -266h-183l111 266h293zM1272 1851l-221 -266h-184l112 266h293zM782 231q175 0 284 131q109 132 109 366q-1 234 -107 368t-288 135q-182 -1 -292 -135q-109 -134 -109 -367t108 -365q51 -63 129 -98t166 -35zM57 729q-1 364 207 566t512 202t513 -202
q208 -202 208 -564q0 -312 -165 -517q-202 -249 -556 -249t-558 255q-161 202 -161 509z" />
    <glyph glyph-name="ohungarumlaut" unicode="&#x151;" horiz-adv-x="1203" 
d="M717 1592l-211 -310h-167l112 310h266zM1068 1592l-211 -310h-167l111 310h267zM602 918q-120 0 -188 -96t-69 -269q0 -172 69 -265t186 -93q118 1 188 91t70 265t-68 271t-188 96zM599 1144q251 0 401 -160t150 -430t-154 -428t-401 -157q-247 0 -395 165
q-148 164 -147 420q-1 256 147 423t399 167z" />
    <glyph glyph-name="OE" unicode="&#x152;" horiz-adv-x="2188" 
d="M1086 577v314q0 81 -13.5 129.5t-47.5 91.5q-91 115 -253 115q-193 0 -301 -156q-92 -131 -92 -349q1 -218 107 -353t277 -135t264 127q59 80 59 216zM2122 1462v-270h-731v-312h668v-251h-668v-359h745v-270h-1045l1 111q-132 -143 -367 -143q-307 0 -501 238
q-167 204 -167 530q-1 326 195 542t488 216q250 0 352 -138v106h1030z" />
    <glyph glyph-name="oe" unicode="&#x153;" horiz-adv-x="1877" 
d="M586 919q-116 -1 -178 -99t-63 -262t57 -264t180 -99q122 -1 176 103t54 266t-55 258q-55 97 -171 97zM1313 924q-224 0 -253 -258h477q-7 98 -44 155q-67 103 -180 103zM1316 -31q-134 0 -224.5 44.5t-154.5 141.5q-45 -68 -92 -103q-112 -83 -276 -83q-249 0 -392 180
q-124 155 -124 415q-1 260 149 420t390 160t356 -175q132 175 364 175q169 0 295 -92q221 -159 219 -566h-763q2 -92 35 -161q67 -136 222 -136q77 0 128 38t89 125h279q-40 -141 -127 -232q-146 -151 -373 -151z" />
    <glyph glyph-name="Racute" unicode="&#x154;" horiz-adv-x="1441" 
d="M1026 1851l-306 -266h-214l185 266h335zM426 1211v-402h305q147 -1 215 47t68 154t-65 153.5t-205 47.5h-318zM107 1462h708q211 0 313 -60q200 -117 200 -353q0 -128 -61.5 -223t-171.5 -136q97 -24 152 -108q35 -53 47 -110.5t28 -237.5t46 -217l14 -17h-333
q-17 31 -24.5 79.5t-19.5 212.5t-75.5 223.5t-216.5 59.5h-287v-575h-319v1462z" />
    <glyph glyph-name="racute" unicode="&#x155;" horiz-adv-x="758" 
d="M781 1592l-296 -310h-195l185 310h306zM667 863q-162 0 -238 -138q-43 -78 -43 -259v-466h-290v1113h276v-206q118 229 343 229q28 0 65 -4v-282q-70 13 -113 13z" />
    <glyph glyph-name="Rcommaaccent" unicode="&#x156;" horiz-adv-x="1441" 
d="M847 -132v-156q0 -150 -95 -207q-62 -37 -180 -41v93q86 8 116.5 29t38.5 79h-155v203h275zM426 1211v-402h305q147 -1 215 47t68 154t-65 153.5t-205 47.5h-318zM107 1462h708q211 0 313 -60q200 -117 200 -353q0 -128 -61.5 -223t-171.5 -136q96 -23 152 -108
q35 -53 47 -110.5t28 -237.5t46 -217l14 -17h-333q-17 31 -24.5 79.5t-19.5 212.5t-75.5 223.5t-216.5 59.5h-287v-575h-319v1462z" />
    <glyph glyph-name="rcommaaccent" unicode="&#x157;" horiz-adv-x="758" 
d="M371 -138v-164q0 -91 -16 -133q-47 -121 -244 -128v99q77 6 108.5 30t39.5 83h-148v213h260zM667 863q-162 0 -238 -138q-43 -78 -43 -259v-466h-290v1113h276v-206q118 229 343 229q27 0 65 -4v-282q-70 13 -113 13z" />
    <glyph glyph-name="Rcaron" unicode="&#x158;" horiz-adv-x="1441" 
d="M1054 1864l-238 -273h-274l-239 273h249l122 -141l120 141h260zM426 1211v-402h305q147 -1 215 47t68 154t-65 153.5t-205 47.5h-318zM107 1462h708q211 0 313 -60q200 -117 200 -353q0 -128 -61.5 -223t-171.5 -136q97 -24 152 -108q35 -53 47 -110.5t28 -237.5t46 -217
l14 -17h-333q-17 31 -24.5 79.5t-19.5 212.5t-75.5 223.5t-216.5 59.5h-287v-575h-319v1462z" />
    <glyph glyph-name="rcaron" unicode="&#x159;" horiz-adv-x="758" 
d="M803 1592l-226 -310h-267l-231 310h233l132 -189l133 189h226zM668 863q-162 0 -239 -138q-43 -77 -43 -259v-466h-289v1113h276v-206q114 229 342 229q29 0 66 -4v-282q-70 13 -113 13z" />
    <glyph glyph-name="Sacute" unicode="&#x15a;" horiz-adv-x="1304" 
d="M624 1249q-120 0 -182.5 -44.5t-62.5 -120.5t59 -108q60 -32 302 -92t338 -123q177 -116 177 -333t-178 -348q-157 -115 -440 -115t-448 136t-171 387h318q7 -122 63 -181q88 -94 265 -94q120 1 194 51t74.5 143t-110.5 136q-62 24 -246 75t-264 86t-128 78
q-112 100 -112 276q0 211 175 334q149 105 373 105t364 -83q203 -119 214 -385h-304q-9 107 -79.5 163.5t-190.5 56.5zM1000 1851l-306 -266h-214l184 266h336z" />
    <glyph glyph-name="sacute" unicode="&#x15b;" horiz-adv-x="1078" 
d="M865 1592l-295 -310h-196l185 310h306zM507 938q-77 0 -119 -28.5t-42 -82.5t46 -79.5t235 -65.5t291 -110q102 -72 101 -240q0 -168 -135 -265q-135 -98 -356 -98q-474 0 -498 393h278q8 -77 38 -116q55 -71 185 -71q90 0 143 37.5t53 93.5t-27 78q-27 24 -69.5 39.5
t-162.5 43.5t-180 47t-114 51t-87.5 96t-33.5 143q0 174 141 265q115 75 320 75q271 0 389 -141q63 -75 74 -214h-272q-9 59 -31 89q-45 60 -167 60z" />
    <glyph glyph-name="Scircumflex" unicode="&#x15c;" horiz-adv-x="1304" 
d="M624 1249q-120 0 -182.5 -44.5t-62.5 -120.5t59 -108q60 -32 302 -92t338 -123q177 -116 177 -333t-178 -348q-157 -115 -440 -115t-448 136t-171 387h318q7 -122 63 -181q88 -94 265 -94q120 1 194 51t74.5 143t-110.5 136q-62 24 -246 75t-264 86t-128 78
q-112 100 -112 276q0 211 175 334q149 105 373 105t364 -83q203 -119 214 -385h-304q-9 107 -79.5 163.5t-190.5 56.5zM1020 1591h-260l-120 141l-121 -141h-249l238 273h274z" />
    <glyph glyph-name="scircumflex" unicode="&#x15d;" horiz-adv-x="1078" 
d="M900 1282h-235l-130 184l-132 -184h-224l228 310h266zM507 938q-77 0 -119 -28.5t-42 -82.5t46 -79.5t235 -65.5t291 -110q102 -72 101 -240q0 -168 -135 -265q-135 -98 -356 -98q-474 0 -498 393h278q8 -77 38 -116q55 -71 185 -71q90 0 143 37.5t53 93.5t-27 78
q-27 24 -69.5 39.5t-162.5 43.5t-180 47t-114 51t-87.5 96t-33.5 143q0 174 141 265q115 75 320 75q271 0 389 -141q63 -75 74 -214h-272q-9 59 -31 89q-45 60 -167 60z" />
    <glyph glyph-name="Scedilla" unicode="&#x15e;" horiz-adv-x="1304" 
d="M651 -116q81 0 131 -42t50 -116t-70.5 -126t-180.5 -52t-234 48l40 85q97 -35 153 -35t84 21t28 55t-26 56t-62 22t-85 -16l-42 41l98 146q-224 26 -355 139q-156 134 -162 378h318q7 -122 63 -181q88 -94 265 -94q120 1 194 51t74.5 143t-110.5 136q-62 24 -246 75
t-264 86t-128 78q-112 100 -112 276q0 211 175 334q149 105 373 105t364 -83q203 -119 214 -385h-304q-9 107 -79.5 163.5t-190.5 56.5t-182.5 -44.5t-62.5 -120.5t59 -108q60 -32 302 -92t338 -123q177 -116 177 -323q-1 -269 -255 -405q-130 -69 -368 -68l-60 -91
q46 10 79 10z" />
    <glyph glyph-name="scedilla" unicode="&#x15f;" horiz-adv-x="1078" 
d="M545 -126q80 0 130 -42t50 -111t-41 -120q-65 -81 -194 -81t-249 50l40 91q87 -36 147 -36t89.5 22t29.5 58t-27 58t-65 22t-81 -16l-43 41l108 164q-133 12 -234 69q-161 93 -175 319h278q8 -77 38 -116q55 -71 185 -71q90 0 143 37.5t53 93.5t-27 78q-27 24 -69.5 39.5
t-207.5 54.5t-234 79q-136 81 -136 251t141 261q116 75 320 75q270 0 389 -141q64 -75 74 -214h-272q-9 59 -31 89q-46 60 -166 60q-77 0 -119.5 -28.5t-42.5 -82.5t47 -79.5t235 -65.5t281 -105q110 -77 110 -225q1 -148 -91 -246q-92 -99 -263 -126q-45 -7 -134 -14
l-66 -101q49 9 80 9z" />
    <glyph glyph-name="Scaron" unicode="&#x160;" horiz-adv-x="1304" 
d="M624 1249q-120 0 -182.5 -44.5t-62.5 -120.5t59 -108q60 -32 302 -92t338 -123q177 -116 177 -333t-178 -348q-157 -115 -440 -115t-448 136t-171 387h318q7 -122 63 -181q88 -94 265 -94q120 1 194 51t74.5 143t-110.5 136q-62 24 -246 75t-264 86t-128 78
q-112 100 -112 276q0 211 175 334q149 105 373 105t364 -83q203 -119 214 -385h-304q-9 107 -79.5 163.5t-190.5 56.5zM1020 1864l-238 -273h-274l-238 273h249l121 -141l120 141h260z" />
    <glyph glyph-name="scaron" unicode="&#x161;" horiz-adv-x="1078" 
d="M891 1592l-225 -310h-268l-231 310h233l132 -189l133 189h226zM507 938q-77 0 -119 -28.5t-42 -82.5t46 -79.5t235 -65.5t291 -110q102 -72 101 -240q0 -168 -135 -265q-135 -98 -356 -98q-474 0 -498 393h278q8 -77 38 -116q55 -71 185 -71q90 0 143 37.5t53 93.5
t-27 78q-27 24 -69.5 39.5t-162.5 43.5t-180 47t-114 51t-87.5 96t-33.5 143q0 174 141 265q115 75 320 75q271 0 389 -141q63 -75 74 -214h-272q-9 59 -31 89q-45 60 -167 60z" />
    <glyph glyph-name="Tcommaaccent" unicode="&#x162;" horiz-adv-x="1186" 
d="M731 -132v-156q0 -150 -95 -207q-62 -37 -180 -41v93q86 8 116.5 29t38.5 79h-155v203h275zM1195 1462v-270h-444v-1192h-319v1192h-442v270h1205z" />
    <glyph glyph-name="tcommaaccent" unicode="&#x163;" horiz-adv-x="646" 
d="M518 -138v-164q0 -91 -16 -133q-46 -121 -244 -128v99q77 6 108.5 30t39.5 83h-148v213h260zM657 1113v-206h-217v-526q0 -95 21 -127t107 -31q33 0 89 5v-232q-99 -11 -201 -11t-168 29q-101 45 -126 166q-11 51 -11 213v514h-177v206h177v263h289v-263h217z" />
    <glyph glyph-name="Tcaron" unicode="&#x164;" horiz-adv-x="1186" 
d="M968 1864l-238 -273h-274l-239 273h249l122 -141l119 141h261zM1195 1462v-270h-444v-1192h-319v1192h-442v270h1205z" />
    <glyph glyph-name="tcaron" unicode="&#x165;" horiz-adv-x="847" 
d="M832 1661v-164q0 -91 -16 -133q-47 -120 -244 -128v99q78 6 109 30t38 83h-147v213h260zM657 1113v-206h-217v-525q0 -96 21 -128t107 -32q31 0 89 6v-232q-99 -11 -201 -11t-168 29q-101 45 -126 166q-11 51 -11 213v514h-177v206h177v262h289v-262h217z" />
    <glyph glyph-name="Tbar" unicode="&#x166;" horiz-adv-x="1186" 
d="M1195 1462v-284h-444v-300h336v-215h-336v-663h-319v663h-337v215h337v300h-442v284h1205z" />
    <glyph glyph-name="tbar" unicode="&#x167;" horiz-adv-x="646" 
d="M657 1113v-206h-217v-189h195v-177h-195v-159q0 -96 21 -128t107 -32q31 0 89 6v-232q-99 -11 -201 -11t-168 29q-101 45 -126 166q-11 51 -11 213v148h-155v177h155v189h-177v206h177v263h289v-263h217z" />
    <glyph glyph-name="Utilde" unicode="&#x168;" horiz-adv-x="1422" 
d="M844 1600q-33 0 -53 5t-106 39t-125 34q-66 0 -85 -84h-142q17 101 65 161q78 97 169 97q51 0 145 -36t133 -37q39 0 60 18.5t39 63.5h142q-48 -261 -242 -261zM1334 1462v-864q0 -187 -34 -289q-115 -344 -588 -344q-502 0 -603 371q-25 95 -25 266v860h319v-881
q0 -167 49 -239q74 -111 250 -111t244.5 80t68.5 270v881h319z" />
    <glyph glyph-name="utilde" unicode="&#x169;" horiz-adv-x="1180" 
d="M476 1328q-69 0 -84 -85h-132q16 98 59 159q68 96 164 96q49 0 137 -38t128 -37q55 0 83 79h132q-42 -253 -222 -253q-42 0 -77.5 11.5t-97.5 39.5t-90 28zM1084 1113v-1113h-276v158q-126 -189 -350 -189q-196 0 -296 134q-71 95 -71 305v705h290v-615
q0 -97 12.5 -188.5t172.5 -91.5q137 0 199 125q30 60 30 218v552h289z" />
    <glyph glyph-name="Umacron" unicode="&#x16a;" horiz-adv-x="1422" 
d="M1066 1810v-165h-714v165h714zM1334 1462v-864q0 -187 -34 -289q-115 -344 -588 -344q-502 0 -603 371q-25 95 -25 266v860h319v-881q0 -167 49 -239q74 -111 250 -111t244.5 80t68.5 270v881h319z" />
    <glyph glyph-name="umacron" unicode="&#x16b;" horiz-adv-x="1180" 
d="M922 1512v-161h-669v161h669zM1084 1113v-1113h-276v158q-126 -189 -350 -189q-196 0 -296 134q-71 95 -71 305v705h290v-615q0 -97 12.5 -188.5t172.5 -91.5q137 0 199 125q30 60 30 218v552h289z" />
    <glyph glyph-name="Ubreve" unicode="&#x16c;" horiz-adv-x="1422" 
d="M709 1747q170 0 206 122h150q-5 -105 -59 -173q-93 -116 -297 -116t-296 116q-54 68 -59 173h149q36 -122 206 -122zM1334 1462v-864q0 -187 -34 -289q-115 -344 -588 -344q-502 0 -603 371q-25 95 -25 266v860h319v-881q0 -167 49 -239q74 -111 250 -111t244.5 80
t68.5 270v881h319z" />
    <glyph glyph-name="ubreve" unicode="&#x16d;" horiz-adv-x="1180" 
d="M588 1384q150 0 181 129h142q-4 -105 -54 -174q-83 -116 -269 -116t-270 116q-50 69 -54 174h142q32 -129 182 -129zM1084 1113v-1113h-276v158q-126 -189 -350 -189q-196 0 -296 134q-71 95 -71 305v705h290v-615q0 -97 12.5 -188.5t172.5 -91.5q137 0 199 125
q30 60 30 218v552h289z" />
    <glyph glyph-name="Uring" unicode="&#x16e;" horiz-adv-x="1422" 
d="M711 1897q-48 0 -82 -33.5t-34 -81.5t33.5 -82.5t81.5 -34.5t82 33.5t34 81.5t-33.5 82.5t-81.5 34.5zM718 2024q100 0 168 -75t67 -175t-75 -168t-174 -68t-168 75t-68 175t74 168q76 68 176 68zM1334 1462v-864q0 -187 -34 -289q-115 -344 -588 -344q-502 0 -603 371
q-25 95 -25 266v860h319v-881q0 -167 49 -239q74 -111 250 -111t244.5 80t68.5 270v881h319z" />
    <glyph glyph-name="uring" unicode="&#x16f;" horiz-adv-x="1180" 
d="M588 1570q-43 0 -74 -31.5t-31 -77.5t30.5 -78t74.5 -32t74 32t30 77t-30.5 77.5t-73.5 32.5zM594 1700q94 0 158 -74t64 -173t-70 -165t-166 -67q-96 0 -158 74q-63 75 -63 173t70 165t165 67zM1084 1113v-1113h-276v158q-126 -189 -350 -189q-196 0 -296 134
q-71 95 -71 305v705h290v-615q0 -97 12.5 -188.5t172.5 -91.5q137 0 199 125q30 60 30 218v552h289z" />
    <glyph glyph-name="Uhungarumlaut" unicode="&#x170;" horiz-adv-x="1422" 
d="M832 1851l-221 -266h-183l111 266h293zM1198 1851l-221 -266h-184l112 266h293zM1334 1462v-864q0 -187 -34 -289q-115 -344 -588 -344q-502 0 -603 371q-25 95 -25 266v860h319v-881q0 -167 49 -239q74 -111 250 -111t244.5 80t68.5 270v881h319z" />
    <glyph glyph-name="uhungarumlaut" unicode="&#x171;" horiz-adv-x="1180" 
d="M694 1592l-211 -310h-167l111 310h267zM1045 1592l-211 -310h-167l111 310h267zM1084 1113v-1113h-276v158q-126 -189 -350 -189q-196 0 -296 134q-71 95 -71 305v705h290v-615q0 -97 12.5 -188.5t172.5 -91.5q137 0 199 125q30 60 30 218v552h289z" />
    <glyph glyph-name="Uogonek" unicode="&#x172;" horiz-adv-x="1422" 
d="M1015 1462h319v-864q0 -133 -14 -212.5t-48 -145.5t-78 -109.5t-124 -100.5q-80 -58 -108 -100t-28 -90t36 -75t80 -27t91 12l1 -122q-74 -21 -132 -21q-113 0 -182 53.5t-69 140.5q0 54 31 93t110 86q-94 -15 -178 -15q-511 0 -613 371q-25 95 -25 266v860h319v-881
q0 -167 49 -239q74 -111 250 -111t244.5 80t68.5 270v881z" />
    <glyph glyph-name="uogonek" unicode="&#x173;" horiz-adv-x="1180" 
d="M795 1113h289v-1113q-129 -89 -129 -182q0 -50 35.5 -79t79.5 -29t93 12v-128q-74 -22 -132 -22q-111 0 -180.5 56t-69.5 134q0 154 160 238h-133v158q-125 -189 -350 -189q-196 0 -296 134q-71 95 -71 305v705h290v-615q0 -97 5.5 -137t22.5 -68q46 -75 157 -75
q138 0 199 125q30 60 30 218v552z" />
    <glyph glyph-name="Wcircumflex" unicode="&#x174;" horiz-adv-x="1935" 
d="M1344 1591h-260l-120 141l-122 -141h-249l239 273h274zM1932 1462l-396 -1462h-320l-253 1044l-245 -1044h-324l-390 1462h321l235 -1074l257 1074h302l257 -1066l238 1066h318z" />
    <glyph glyph-name="wcircumflex" unicode="&#x175;" horiz-adv-x="1607" 
d="M1165 1221h-236l-129 175l-132 -175h-224l228 295h265zM1628 1113l-336 -1113h-300l-191 775l-181 -775h-302l-338 1113h307l199 -784l179 784h282l182 -782l198 782h301z" />
    <glyph glyph-name="Ycircumflex" unicode="&#x176;" horiz-adv-x="1300" 
d="M1035 1591h-260l-120 141l-121 -141h-249l238 273h274zM809 0h-319v568l-546 894h365l343 -601l345 601h357l-545 -898v-564z" />
    <glyph glyph-name="ycircumflex" unicode="&#x177;" horiz-adv-x="1043" 
d="M896 1221h-235l-130 175l-132 -175h-224l228 295h266zM79 -143h118q55 0 83 8.5t55 37.5t27 84t-9 79l-378 1047h314l244 -773l234 773h301l-389 -1108q-49 -139 -79.5 -202.5t-74.5 -110.5t-100.5 -68.5t-140.5 -21.5h-86l-119 3v252z" />
    <glyph glyph-name="Ydieresis" unicode="&#x178;" horiz-adv-x="1300" 
d="M809 0h-319v568l-546 894h365l343 -601l345 601h357l-545 -898v-564zM573 1847v-234h-284v234h284zM1026 1847v-234h-282v234h282z" />
    <glyph glyph-name="Zacute" unicode="&#x179;" horiz-adv-x="1301" 
d="M1028 1851l-306 -266h-214l185 266h335zM1243 1462v-243l-793 -949h819v-270h-1237v256l786 936h-732v270h1157z" />
    <glyph glyph-name="zacute" unicode="&#x17a;" horiz-adv-x="1005" 
d="M857 1592l-296 -310h-195l185 310h306zM968 1113v-224l-549 -651h585v-238h-975v232l548 643h-506v238h897z" />
    <glyph glyph-name="Zdotaccent" unicode="&#x17b;" horiz-adv-x="1301" 
d="M822 1847v-234h-284v234h284zM1243 1462v-243l-793 -949h819v-270h-1237v256l786 936h-732v270h1157z" />
    <glyph glyph-name="zdotaccent" unicode="&#x17c;" horiz-adv-x="1005" 
d="M667 1563v-250h-272v250h272zM968 1113v-224l-549 -651h585v-238h-975v232l548 643h-506v238h897z" />
    <glyph glyph-name="Zcaron" unicode="&#x17d;" horiz-adv-x="1301" 
d="M1055 1864l-237 -273h-275l-238 273h249l122 -141l119 141h260zM1243 1462v-243l-793 -949h819v-270h-1237v256l786 936h-732v270h1157z" />
    <glyph glyph-name="zcaron" unicode="&#x17e;" horiz-adv-x="1005" 
d="M893 1592l-225 -310h-268l-231 310h233l132 -189l133 189h226zM968 1113v-224l-549 -651h585v-238h-975v232l548 643h-506v238h897z" />
    <glyph glyph-name="longs" unicode="&#x17f;" horiz-adv-x="643" 
d="M558 1243q-60 0 -86 -24t-26 -92l3 -1127h-289v907h-173v206h173q2 103 17 157t55 98q91 100 290 100q49 0 152 -7v-223q-56 5 -116 5z" />
    <glyph glyph-name="uni018F" unicode="&#x18f;" horiz-adv-x="1160" 
d="M754 242q140 0 230 98t108 239q2 12 6 55h-680q12 -111 30 -164q39 -112 123 -170t183 -58zM740 1517q314 0 502 -200q92 -99 143 -243t51 -305q0 -315 -177 -528q-196 -236 -507 -236q-251 0 -428 157q-244 217 -242 677h1016q-4 103 -14 153q-28 127 -113 207t-234 80
q-215 0 -306 -209h-318q34 103 97 191q184 256 530 256z" />
    <glyph glyph-name="florin" unicode="&#x192;" 
d="M226 -376q-88 0 -166 5l38 217q36 -3 78 -3q89 0 117 48t52 181l130 739h-171l30 170h171l44 247q30 175 105 256q101 111 319 111q62 0 146 -5l-38 -218q-56 1 -76 1q-97 0 -131 -55q-22 -37 -35 -113l-40 -224h202l-30 -170h-202l-138 -781q-23 -130 -76 -268
t-329 -138z" />
    <glyph glyph-name="uni01C4" unicode="&#x1c4;" horiz-adv-x="2764" 
d="M2518 1864l-238 -273h-274l-238 273h248l122 -141l120 141h260zM2705 1462v-243l-793 -949h820v-270h-1237v256l785 936h-731v270h1156zM425 1192v-922h246q113 0 180 22.5t117 76.5q116 125 116 359q0 464 -425 464h-234zM106 1462h591q165 0 282.5 -38t207.5 -120
q219 -200 219 -566t-207 -570q-91 -91 -205 -129.5t-290 -38.5h-598v1462z" />
    <glyph glyph-name="uni01C5" unicode="&#x1c5;" horiz-adv-x="2468" 
d="M2356 1592l-225 -310h-268l-231 310h233l132 -189l133 189h226zM2431 1113v-224l-548 -651h584v-238h-975v232l548 643h-505v238h896zM425 1192v-922h246q113 0 180 22.5t117 76.5q116 125 116 359q0 464 -425 464h-234zM106 1462h591q165 0 282.5 -38t207.5 -120
q219 -200 219 -566t-207 -570q-91 -91 -205 -129.5t-290 -38.5h-598v1462z" />
    <glyph glyph-name="uni01C6" unicode="&#x1c6;" horiz-adv-x="2234" 
d="M2123 1592l-226 -310h-267l-231 310h233l132 -189l133 189h226zM2198 1113v-224l-549 -651h585v-238h-975v232l548 643h-506v238h897zM600 906q-116 0 -184 -88t-68 -252t66 -256t188 -92q120 0 186 91t66 255t-70 253q-68 89 -184 89zM1133 1462v-1462h-276v142
q-103 -173 -323 -173t-349 164q-129 165 -129 421t113 411q129 179 349 179t326 -168v486h289z" />
    <glyph glyph-name="uni01C7" unicode="&#x1c7;" horiz-adv-x="2208" 
d="M2124 1462v-984q0 -128 -19.5 -205t-68.5 -141q-127 -167 -392 -167q-312 0 -429 210q-60 110 -60 311q0 20 1 61h296v-42q0 -147 24 -197q40 -84 147 -84t144.5 54t37.5 189v995h319zM1141 270v-270h-1034v1462h319v-1192h715z" />
    <glyph glyph-name="uni01C8" unicode="&#x1c8;" horiz-adv-x="1645" 
d="M1547 1574v-261h-289v261h289zM1547 1113v-1114l2 -86q0 -101 -39.5 -175t-111.5 -108t-203 -35q-50 0 -116 6v246q33 -3 71 -3q81 0 98 55q10 34 10 194v1020h289zM1141 270v-270h-1034v1462h319v-1192h715z" />
    <glyph glyph-name="uni01C9" unicode="&#x1c9;" horiz-adv-x="966" 
d="M868 1574v-261h-289v261h289zM868 1113v-1114l2 -86q0 -101 -39 -175t-111 -108t-204 -35q-50 0 -116 6v246q32 -3 70 -3q81 0 99 55q10 34 10 194v1020h289zM386 1462v-1462h-290v1462h290z" />
    <glyph glyph-name="uni01CA" unicode="&#x1ca;" horiz-adv-x="2495" 
d="M2411 1462v-984q0 -128 -19.5 -205t-68.5 -141q-127 -167 -392 -167q-313 0 -429 210q-60 110 -60 311q0 20 1 61h296v-42q0 -147 24 -197q40 -84 147 -84t144.5 54t37.5 189v995h319zM1342 1462v-1462h-321l-612 996l4 -996h-307v1462h325l608 -994l-4 994h307z" />
    <glyph glyph-name="uni01CB" unicode="&#x1cb;" horiz-adv-x="1931" 
d="M1833 1563v-261h-289v261h289zM1833 1113v-1114l2 -86q0 -101 -39.5 -175t-111.5 -108t-203 -35q-50 0 -116 6v246q33 -3 71 -3q81 0 98 55q10 34 10 194v1020h289zM1342 1462v-1462h-321l-612 996l4 -996h-307v1462h325l608 -994l-4 994h307z" />
    <glyph glyph-name="uni01CC" unicode="&#x1cc;" horiz-adv-x="1662" 
d="M1564 1563v-261h-289v261h289zM1564 1113v-1114l2 -86q0 -101 -39 -175t-111 -108t-203 -35q-50 0 -116 6v246q32 -3 70 -3q80 0 98 55q10 34 10 194v1020h289zM373 1113v-155q51 69 95 103q108 83 251 83t226 -62t113 -145.5t30 -236.5v-700h-289v639q0 107 -17 155
q-18 48 -62 74t-108 27q-64 0 -117 -32.5t-81 -92.5t-27 -194v-576h-290v1113h276z" />
    <glyph glyph-name="uni01CD" unicode="&#x1cd;" horiz-adv-x="1426" 
d="M905 562l-194 551l-195 -551h389zM879 1465l555 -1465h-335l-116 328h-543l-119 -328h-329l557 1465h330zM1088 1864l-237 -273h-275l-238 273h249l122 -141l119 141h260z" />
    <glyph glyph-name="uni01CE" unicode="&#x1ce;" horiz-adv-x="1127" 
d="M932 1516l-226 -295h-267l-231 295h233l132 -180l133 180h226zM331 326q0 -79 43 -119t120 -40q128 0 207 92q28 33 38.5 67t10.5 91v125q-56 -36 -182 -55t-172 -45q-65 -37 -65 -116zM404 -31q-170 0 -270 86t-101 251q0 211 185 291q75 33 262 59t229.5 47.5
t42.5 88.5q0 146 -190 146q-101 0 -148 -37.5t-61 -129.5h-274q26 373 490 373q253 0 374 -106q56 -48 74.5 -104.5t18.5 -177.5l-5 -455q0 -122 7.5 -183t30.5 -118h-296q-19 60 -19 108q-137 -139 -350 -139z" />
    <glyph glyph-name="uni01CF" unicode="&#x1cf;" horiz-adv-x="532" 
d="M641 1864l-237 -273h-275l-238 273h249l122 -141l119 141h260zM426 1462v-1462h-319v1462h319z" />
    <glyph glyph-name="uni01D0" unicode="&#x1d0;" horiz-adv-x="483" 
d="M603 1516l-226 -295h-267l-231 295h233l132 -180l133 180h226zM386 1113v-1113h-290v1113h290z" />
    <glyph glyph-name="uni01D1" unicode="&#x1d1;" horiz-adv-x="1540" 
d="M1152 1864l-237 -273h-274l-239 273h249l122 -141l119 141h260zM782 231q175 0 284 131q109 132 109 366q-1 234 -107 368t-288 135q-182 -1 -292 -135q-109 -134 -109 -367t108 -365q51 -63 129 -98t166 -35zM57 729q-1 364 207 566t512 202t513 -202q208 -202 208 -564
q0 -312 -165 -517q-202 -249 -556 -249t-558 255q-161 202 -161 509z" />
    <glyph glyph-name="uni01D2" unicode="&#x1d2;" horiz-adv-x="1203" 
d="M963 1516l-225 -295h-268l-230 295h232l132 -180l133 180h226zM602 918q-120 0 -188 -96t-69 -269q0 -172 69 -265t186 -93q118 1 188 91t70 265t-68 271t-188 96zM599 1144q251 0 401 -160t150 -430t-154 -428t-401 -157q-247 0 -395 165q-148 164 -147 420
q-1 256 147 423t399 167z" />
    <glyph glyph-name="uni01D3" unicode="&#x1d3;" horiz-adv-x="1422" 
d="M1086 1864l-238 -273h-274l-239 273h249l122 -141l120 141h260zM1334 1462v-864q0 -187 -34 -289q-115 -344 -588 -344q-502 0 -603 371q-25 95 -25 266v860h319v-881q0 -167 49 -239q74 -111 250 -111t244.5 80t68.5 270v881h319z" />
    <glyph glyph-name="uni01D4" unicode="&#x1d4;" horiz-adv-x="1180" 
d="M954 1592l-225 -310h-268l-230 310h233l131 -189l134 189h225zM1084 1113v-1113h-276v158q-126 -189 -350 -189q-196 0 -296 134q-71 95 -71 305v705h290v-615q0 -97 12.5 -188.5t172.5 -91.5q137 0 199 125q30 60 30 218v552h289z" />
    <glyph glyph-name="uni01DD" unicode="&#x1dd;" horiz-adv-x="1160" 
d="M577 188q97 0 160.5 68t74.5 184h-463q16 -161 91.5 -206.5t136.5 -45.5zM554 1144q257 0 404 -157q72 -77 112 -189t39 -237q0 -242 -145 -417t-388 -175q-170 -1 -298 93t-176 238t-49 289v46h761q-3 84 -25 139q-59 150 -219 150t-221 -157h-279q24 94 83 177
q144 200 401 200z" />
    <glyph glyph-name="Gcaron" unicode="&#x1e6;" horiz-adv-x="1513" 
d="M1121 1864l-237 -273h-275l-238 273h249l122 -141l119 141h260zM1420 788v-788h-204l-32 167q-162 -202 -437 -202q-335 0 -529 248q-161 207 -161 511q-1 345 203 559t504 214t481 -186q135 -140 155 -330h-309q-24 118 -107.5 184t-211.5 66q-194 0 -300 -150
q-93 -131 -93 -351t87 -349q107 -157 316 -157q151 0 247.5 91t101.5 239h-325v234h614z" />
    <glyph glyph-name="gcaron" unicode="&#x1e7;" horiz-adv-x="1208" 
d="M946 1516l-226 -295h-267l-231 295h233l132 -180l133 180h226zM595 906q-131 0 -188 -95t-57 -242t68 -228t186 -81q116 0 181 113q50 86 50 231q0 146 -70 224t-170 78zM1112 1113v-974q0 -131 -16 -208.5t-55 -141.5q-126 -204 -452 -204q-454 0 -497 349h292
q30 -143 210 -143q140 0 188 73t49 215l1 126q-112 -171 -320 -171t-332 148q-123 148 -123 399t126 407t337 156q109 0 182 -41.5t134 -137.5v148h276z" />
    <glyph glyph-name="uni01F4" unicode="&#x1f4;" horiz-adv-x="1513" 
d="M1092 1851l-306 -266h-214l185 266h335zM1420 788v-788h-204l-32 167q-162 -202 -437 -202q-335 0 -529 248q-161 207 -161 511q-1 345 203 559t504 214t481 -186q135 -140 155 -330h-309q-24 118 -107.5 184t-211.5 66q-194 0 -300 -150q-93 -131 -93 -351t87 -349
q107 -157 316 -157q151 0 247.5 91t101.5 239h-325v234h614z" />
    <glyph glyph-name="uni01F5" unicode="&#x1f5;" horiz-adv-x="1208" 
d="M921 1516l-296 -295h-195l185 295h306zM595 906q-131 0 -188 -95t-57 -242t68 -228t186 -81q116 0 181 113q50 86 50 231q0 146 -70 224t-170 78zM1112 1113v-974q0 -131 -16 -208.5t-55 -141.5q-126 -204 -452 -204q-454 0 -497 349h292q30 -143 210 -143q140 0 188 73
t49 215l1 126q-112 -171 -320 -171t-332 148q-123 148 -123 399t126 407t337 156q109 0 182 -41.5t134 -137.5v148h276z" />
    <glyph glyph-name="Aringacute" unicode="&#x1fa;" horiz-adv-x="1426" 
d="M881 2222l-305 -266h-215l185 266h335zM905 562l-194 551l-195 -551h389zM879 1465l555 -1465h-335l-116 328h-543l-119 -328h-329l557 1465h330zM714 1853q-48 0 -82.5 -33.5t-34.5 -81.5t34 -82t82 -34t82 34t34 82t-33.5 81.5t-81.5 33.5zM720 1980q100 0 168 -75
t68 -175t-75 -168t-175 -67t-168 75t-68 174t74 168q76 68 176 68z" />
    <glyph glyph-name="aringacute" unicode="&#x1fb;" horiz-adv-x="1127" 
d="M636 1873l-296 -295h-195l185 295h306zM566 1526q-42 0 -73.5 -31.5t-31.5 -77.5t30.5 -78t73.5 -32t73.5 32t30.5 77t-30.5 77.5t-72.5 32.5zM572 1656q94 0 158 -74t63 -172q0 -98 -70 -166q-70 -67 -165 -67t-158 74q-63 75 -63 173t70 165q71 67 165 67zM331 326
q0 -79 43 -119t120 -40q128 0 207 92q28 33 38.5 67t10.5 91v125q-56 -36 -182 -55t-172 -45q-65 -37 -65 -116zM404 -31q-170 0 -270 86t-101 251q0 211 185 291q75 33 262 59t229.5 47.5t42.5 88.5q0 146 -190 146q-101 0 -148 -37.5t-61 -129.5h-274q26 373 490 373
q253 0 374 -106q56 -48 74.5 -104.5t18.5 -177.5l-5 -455q0 -122 7.5 -183t30.5 -118h-296q-19 60 -19 108q-137 -139 -350 -139z" />
    <glyph glyph-name="AEacute" unicode="&#x1fc;" horiz-adv-x="1969" 
d="M1503 1851l-306 -266h-214l184 266h336zM909 551v653h-70l-294 -653h364zM1900 1462v-270h-688v-312h646v-251h-646v-359h706v-270h-1009v317h-465l-147 -317h-344l701 1462h1246z" />
    <glyph glyph-name="aeacute" unicode="&#x1fd;" horiz-adv-x="1816" 
d="M1313 1516l-295 -295h-195l184 295h306zM333 324q0 -78 46 -120t144 -42q97 0 163 70t66 180v130q-35 -27 -67.5 -37.5t-138.5 -26.5t-149 -41q-64 -35 -64 -113zM1241 925q-120 0 -187 -101q-35 -52 -47 -159h470q-7 104 -50 165q-66 95 -186 95zM1254 -31
q-125 0 -227 50t-157 138q-152 -188 -445 -188q-187 0 -289 87t-103 261q0 174 140 254q57 33 114 47t219 38t204 50t42 85q0 147 -187 147q-101 0 -149 -40.5t-58 -132.5h-280q13 178 117 266q63 53 161.5 83t209.5 30q259 0 355 -147q58 70 144 108.5t185 38.5
q222 0 368 -161t147 -450q0 -12 -1 -48h-755q1 -103 33 -167q64 -131 214 -130q150 0 217 159h276q-31 -130 -121 -227q-141 -151 -374 -151z" />
    <glyph glyph-name="Oslashacute" unicode="&#x1fe;" horiz-adv-x="1540" 
d="M1151 1851l-306 -266h-214l184 266h336zM1177 709q0 95 -8.5 144t-39.5 140l-580 -678q97 -84 235 -84q191 0 303 162q90 130 90 316zM782 1231q-170 0 -272 -107q-131 -137 -131 -396q0 -115 43 -258l597 687q-130 74 -237 74zM1496 746q0 -176 -43 -305t-136 -243
t-228.5 -173.5t-282.5 -59.5t-267 35t-193 98l-143 -163l-144 131l147 171q-61 88 -85 141q-64 141 -64 352q-1 361 203 564t537 203q168 0 290 -63l132 -73l135 151l149 -122l-149 -168q142 -200 142 -476z" />
    <glyph glyph-name="oslashacute" unicode="&#x1ff;" horiz-adv-x="1229" 
d="M985 1516l-296 -295h-195l185 295h306zM610 195q126 0 196 94t70 263q0 78 -30 176l-378 -480q44 -33 71 -43t71 -10zM607 918q-118 0 -187.5 -99.5t-69.5 -266.5q0 -72 28 -165l381 480q-64 51 -152 51zM1163 579q-1 -271 -147 -441t-391 -169q-188 0 -326 91l-124 -137
l-106 112l114 133q-53 93 -68 128q-49 115 -49 264q0 262 162 429q74 75 174 115t197.5 40t188.5 -25t148 -68l114 129l106 -107l-109 -131q116 -139 116 -363z" />
    <glyph glyph-name="uni0200" unicode="&#x200;" horiz-adv-x="1426" 
d="M583 1851h293l111 -266h-183zM217 1851h293l112 -266h-184zM905 562l-194 551l-195 -551h389zM879 1465l555 -1465h-335l-116 328h-543l-119 -328h-329l557 1465h330z" />
    <glyph glyph-name="uni0201" unicode="&#x201;" horiz-adv-x="1127" 
d="M465 1516h267l111 -295h-167zM114 1516h266l112 -295h-167zM331 326q0 -79 43 -119t120 -40q128 0 207 92q28 33 38.5 67t10.5 91v125q-56 -36 -182 -55t-172 -45q-65 -37 -65 -116zM404 -31q-170 0 -270 86t-101 251q0 211 185 291q75 33 262 59t229.5 47.5t42.5 88.5
q0 146 -190 146q-101 0 -148 -37.5t-61 -129.5h-274q26 373 490 373q253 0 374 -106q56 -48 74.5 -104.5t18.5 -177.5l-5 -455q0 -122 7.5 -183t30.5 -118h-296q-19 60 -19 108q-137 -139 -350 -139z" />
    <glyph glyph-name="Scommaaccent" unicode="&#x218;" horiz-adv-x="1304" 
d="M624 1312q-120 0 -182.5 -46.5t-62.5 -126.5t60 -114t301 -96t338 -129q177 -123 177 -351t-178 -365q-157 -121 -439 -121t-448 143t-172 407h318q7 -128 63 -190q87 -99 265 -99q120 0 194 53t75 151q0 98 -111 143q-62 25 -246 79t-264 90t-128 81q-112 106 -112 290
q0 221 175 351q149 110 373 110t364 -87q203 -126 214 -404h-304q-9 112 -79.5 171.5t-190.5 59.5zM777 -138v-164q0 -157 -95 -217q-62 -39 -180 -44v99q85 7 116 30t39 83h-155v213h275z" />
    <glyph glyph-name="scommaaccent" unicode="&#x219;" horiz-adv-x="1078" 
d="M655 -138v-164q0 -91 -16 -133q-46 -121 -244 -128v99q77 6 108 30t40 83h-148v213h260zM508 938q-77 0 -119.5 -28.5t-42.5 -82.5t47 -79.5t235 -65.5t281 -105q110 -77 110 -245t-135 -265q-135 -98 -356 -98q-474 0 -498 393h278q8 -77 38 -116q55 -71 185 -71
q90 0 143 37.5t53 93.5t-27 78q-27 24 -69.5 39.5t-162.5 43.5t-180 47t-114 51t-87.5 96t-33.5 143q0 174 141 265q116 75 320 75q270 0 389 -141q64 -75 74 -214h-272q-9 59 -31 89q-46 60 -166 60z" />
    <glyph glyph-name="uni021A" unicode="&#x21a;" horiz-adv-x="1186" 
d="M731 -132v-156q0 -150 -95 -207q-62 -37 -180 -41v93q86 8 116.5 29t38.5 79h-155v203h275zM1195 1462v-270h-444v-1192h-319v1192h-442v270h1205z" />
    <glyph glyph-name="uni021B" unicode="&#x21b;" horiz-adv-x="646" 
d="M518 -138v-164q0 -91 -16 -133q-46 -121 -244 -128v99q77 6 108.5 30t39.5 83h-148v213h260zM657 1113v-206h-217v-526q0 -95 21 -127t107 -31q33 0 89 5v-232q-99 -11 -201 -11t-168 29q-101 45 -126 166q-11 51 -11 213v514h-177v206h177v263h289v-263h217z" />
    <glyph glyph-name="uni0226" unicode="&#x226;" horiz-adv-x="1426" 
d="M850 1847v-234h-284v234h284zM905 562l-194 551l-195 -551h389zM879 1465l555 -1465h-335l-116 328h-543l-119 -328h-329l557 1465h330z" />
    <glyph glyph-name="uni0227" unicode="&#x227;" horiz-adv-x="1127" 
d="M694 1489v-238h-272v238h272zM331 326q0 -79 43 -119t120 -40q128 0 207 92q28 33 38.5 67t10.5 91v125q-56 -36 -182 -55t-172 -45q-65 -37 -65 -116zM404 -31q-170 0 -270 86t-101 251q0 211 185 291q75 33 262 59t229.5 47.5t42.5 88.5q0 146 -190 146
q-101 0 -148 -37.5t-61 -129.5h-274q26 373 490 373q253 0 374 -106q56 -48 74.5 -104.5t18.5 -177.5l-5 -455q0 -122 7.5 -183t30.5 -118h-296q-19 60 -19 108q-137 -139 -350 -139z" />
    <glyph glyph-name="uni0237" unicode="&#x237;" horiz-adv-x="483" 
d="M385 1113v-1114l2 -86q0 -101 -39.5 -174.5t-111.5 -108.5t-202 -35q-50 0 -116 6v246q32 -3 70 -3q80 0 98 55q10 34 10 194v1020h289z" />
    <glyph glyph-name="uni02BB" unicode="&#x2bb;" horiz-adv-x="545" 
d="M110 823v249q0 212 96 304t230 108v-144q-140 -36 -147 -197h147v-320h-326z" />
    <glyph glyph-name="afii57929" unicode="&#x2bc;" horiz-adv-x="545" 
d="M436 1462v-249q0 -213 -96 -305t-230 -107v145q140 35 147 196h-147v320h326z" />
    <glyph glyph-name="circumflex" unicode="&#x2c6;" horiz-adv-x="1097" 
d="M909 1221h-235l-130 175l-132 -175h-224l228 295h266z" />
    <glyph glyph-name="caron" unicode="&#x2c7;" horiz-adv-x="1097" 
d="M911 1516l-226 -295h-267l-231 295h233l132 -180l133 180h226z" />
    <glyph glyph-name="uni02C9" unicode="&#x2c9;" horiz-adv-x="1097" 
d="M884 1440v-153h-670v153h670z" />
    <glyph glyph-name="breve" unicode="&#x2d8;" horiz-adv-x="1097" 
d="M550 1384q150 0 180 129h142q-4 -105 -54 -174q-84 -116 -269 -116t-270 116q-50 69 -54 174h142q33 -129 183 -129z" />
    <glyph glyph-name="dotaccent" unicode="&#x2d9;" horiz-adv-x="1097" 
d="M684 1489v-238h-272v238h272z" />
    <glyph glyph-name="ring" unicode="&#x2da;" horiz-adv-x="1097" 
d="M548 1494q-42 0 -73 -30t-31 -74t30.5 -74t73.5 -30t73.5 31t30.5 73t-31 73t-73 31zM554 1618q94 0 158 -70t64 -164t-70 -158t-165 -64q-93 0 -157 70t-64 164t70 158t164 64z" />
    <glyph glyph-name="ogonek" unicode="&#x2db;" horiz-adv-x="1097" 
d="M618 -177q0 -46 36.5 -73t80.5 -27t91 12v-122q-73 -21 -132 -21q-111 0 -180.5 53t-69.5 138q0 57 34 107.5t112 109.5h148q-120 -90 -120 -177z" />
    <glyph glyph-name="tilde" unicode="&#x2dc;" horiz-adv-x="1097" 
d="M413 1328q-69 0 -84 -85h-132q16 98 59 159q68 96 164 96q48 0 136 -38t129 -37q55 0 83 79h132q-42 -253 -222 -253q-42 0 -78 11.5t-98 39.5t-89 28z" />
    <glyph glyph-name="hungarumlaut" unicode="&#x2dd;" horiz-adv-x="1097" 
d="M635 1516l-211 -295h-167l111 295h267zM986 1516l-211 -295h-167l111 295h267z" />
    <glyph glyph-name="pi" unicode="&#x3c0;" horiz-adv-x="1262" 
d="M143 0v872h-140v234h1258v-234h-138v-872h-289v872h-402v-872h-289z" />
    <glyph glyph-name="uni1E1E" unicode="&#x1e1e;" horiz-adv-x="1143" 
d="M768 1847v-234h-282v234h282zM1135 1462v-270h-710v-339h618v-251h-618v-602h-319v1462h1029z" />
    <glyph glyph-name="uni1E1F" unicode="&#x1e1f;" horiz-adv-x="643" 
d="M500 1805v-238h-272v238h272zM558 1243q-60 0 -86 -24t-26 -92v-14h211v-206h-208v-907h-289v907h-173v206h173q2 103 17 157t55 98q91 100 290 100q51 0 152 -7v-223q-56 5 -116 5z" />
    <glyph glyph-name="Wgrave" unicode="&#x1e80;" horiz-adv-x="1935" 
d="M621 1851h336l184 -266h-214zM1932 1462l-396 -1462h-320l-253 1044l-245 -1044h-324l-390 1462h321l235 -1074l257 1074h302l257 -1066l238 1066h318z" />
    <glyph glyph-name="wgrave" unicode="&#x1e81;" horiz-adv-x="1607" 
d="M477 1516h306l185 -295h-195zM1628 1113l-336 -1113h-300l-191 775l-181 -775h-302l-338 1113h307l199 -784l179 784h282l182 -782l198 782h301z" />
    <glyph glyph-name="Wacute" unicode="&#x1e82;" horiz-adv-x="1935" 
d="M1314 1851l-305 -266h-214l184 266h335zM1932 1462l-396 -1462h-320l-253 1044l-245 -1044h-324l-390 1462h321l235 -1074l257 1074h302l257 -1066l238 1066h318z" />
    <glyph glyph-name="wacute" unicode="&#x1e83;" horiz-adv-x="1607" 
d="M1131 1516l-295 -295h-195l184 295h306zM1628 1113l-336 -1113h-300l-191 775l-181 -775h-302l-338 1113h307l199 -784l179 784h282l182 -782l198 782h301z" />
    <glyph glyph-name="Wdieresis" unicode="&#x1e84;" horiz-adv-x="1935" 
d="M879 1847v-234h-284v234h284zM1332 1847v-234h-282v234h282zM1932 1462l-396 -1462h-320l-253 1044l-245 -1044h-324l-390 1462h321l235 -1074l257 1074h302l257 -1066l238 1066h318z" />
    <glyph glyph-name="wdieresis" unicode="&#x1e85;" horiz-adv-x="1607" 
d="M729 1489v-238h-272v238h272zM1161 1489v-238h-273v238h273zM1628 1113l-336 -1113h-300l-191 775l-181 -775h-302l-338 1113h307l199 -784l179 784h282l182 -782l198 782h301z" />
    <glyph glyph-name="Ygrave" unicode="&#x1ef2;" horiz-adv-x="1300" 
d="M302 1851h335l185 -266h-214zM809 0h-319v568l-546 894h365l343 -601l345 601h357l-545 -898v-564z" />
    <glyph glyph-name="ygrave" unicode="&#x1ef3;" horiz-adv-x="1043" 
d="M194 1516h306l185 -295h-195zM79 -143h118q55 0 83 8.5t55 37.5t27 84t-9 79l-378 1047h314l244 -773l234 773h301l-389 -1108q-49 -139 -79.5 -202.5t-74.5 -110.5t-100.5 -68.5t-140.5 -21.5h-86l-119 3v252z" />
    <glyph glyph-name="uni2011" unicode="&#x2011;" horiz-adv-x="556" 
d="M556 675v-260h-556v260h556z" />
    <glyph glyph-name="figuredash" unicode="&#x2012;" 
d="M1089 675v-260h-994v260h994z" />
    <glyph glyph-name="endash" unicode="&#x2013;" 
d="M1089 675v-260h-994v260h994z" />
    <glyph glyph-name="emdash" unicode="&#x2014;" horiz-adv-x="1623" 
d="M1623 675v-260h-1623v260h1623z" />
    <glyph glyph-name="afii00208" unicode="&#x2015;" horiz-adv-x="1623" 
d="M1623 675v-260h-1623v260h1623z" />
    <glyph glyph-name="underscoredbl" unicode="&#x2017;" horiz-adv-x="1097" 
d="M0 -371h1097v-132h-1097v132zM0 -115h1097v-131h-1097v131z" />
    <glyph glyph-name="quoteleft" unicode="&#x2018;" horiz-adv-x="545" 
d="M110 823v249q0 212 96 304t230 108v-144q-140 -36 -147 -197h147v-320h-326z" />
    <glyph glyph-name="quoteright" unicode="&#x2019;" horiz-adv-x="545" 
d="M436 1462v-249q0 -213 -96 -305t-230 -107v145q140 35 147 196h-147v320h326z" />
    <glyph glyph-name="quotesinglbase" unicode="&#x201a;" horiz-adv-x="545" 
d="M436 320v-249q0 -212 -104 -313q-86 -83 -222 -99v145q140 34 147 196h-147v320h326z" />
    <glyph glyph-name="quotereversed" unicode="&#x201b;" horiz-adv-x="545" 
d="M110 1213v249h326v-320h-147q7 -161 147 -196v-145q-326 36 -326 412z" />
    <glyph glyph-name="quotedblleft" unicode="&#x201c;" horiz-adv-x="943" 
d="M540 832v257q0 180 82 276t212 119v-136q-135 -36 -138 -200h138v-316h-294zM110 832v257q0 180 82 276t212 119v-136q-136 -35 -138 -200h138v-316h-294z" />
    <glyph glyph-name="quotedblright" unicode="&#x201d;" horiz-adv-x="943" 
d="M404 1462v-255q0 -181 -83 -277t-211 -119v137q136 35 138 200h-138v314h294zM834 1462v-255q0 -181 -83 -278t-211 -118v137q135 35 138 200h-138v314h294z" />
    <glyph glyph-name="quotedblbase" unicode="&#x201e;" horiz-adv-x="943" 
d="M404 314v-255q0 -181 -82 -277t-212 -119v137q136 35 138 200h-138v314h294zM834 314v-255q0 -181 -82 -277t-212 -119v137q135 35 138 200h-138v314h294z" />
    <glyph glyph-name="dagger" unicode="&#x2020;" 
d="M1114 1062v-250h-383v-1188h-282v1188h-379v250h379v400h282v-400h383z" />
    <glyph glyph-name="daggerdbl" unicode="&#x2021;" 
d="M1114 1056v-244h-383v-533h383v-244h-383v-411h-282v411h-379v244h379v533h-379v244h379v406h282v-406h383z" />
    <glyph glyph-name="bullet" unicode="&#x2022;" horiz-adv-x="1462" 
d="M733 1052q123 0 211 -90t89 -216q0 -128 -88 -218q-89 -90 -213 -89q-124 -1 -213 89t-89 219t90 217t213 88z" />
    <glyph glyph-name="ellipsis" unicode="&#x2026;" horiz-adv-x="1531" 
d="M1442 325v-325h-332v325h332zM931 325v-325h-332v325h332zM421 325v-325h-332v325h332z" />
    <glyph glyph-name="perthousand" unicode="&#x2030;" horiz-adv-x="2171" 
d="M349 879q114 0 114 217t-114 217t-114 -217t114 -217zM51 1094q1 171 79 262t224 91t220.5 -90.5t74.5 -260.5q1 -170 -79 -262t-223 -91.5t-219.5 90.5t-76.5 261zM1824 544q-119 0 -119 -218t119 -217q112 -1 112 217t-112 218zM1522 328q0 176 82 262t223 87
q140 0 216.5 -90.5t76.5 -258.5t-76 -261t-222 -93t-223 89t-77 265zM1112 109q112 -1 112 217t-115 218t-115 -219q0 -114 27.5 -165t90.5 -51zM810 327q0 176 82 263t228 87q148 -1 218 -97t70 -258t-76 -255t-222 -93t-223 88.5t-77 264.5zM1257 1478l-901 -1535h-177
l904 1535h174z" />
    <glyph glyph-name="guilsinglleft" unicode="&#x2039;" horiz-adv-x="447" 
d="M370 935v-249l-183 -144l183 -144v-242l-322 250v274z" />
    <glyph glyph-name="guilsinglright" unicode="&#x203a;" horiz-adv-x="447" 
d="M78 935l322 -255v-274l-322 -250v242l183 144l-183 144v249z" />
    <glyph glyph-name="uni203E" unicode="&#x203e;" horiz-adv-x="1097" 
d="M0 1761h1097v-196h-1097v196z" />
    <glyph glyph-name="glyph404" unicode="&#x2044;" horiz-adv-x="356" 
d="M663 1442l-799 -1442h-171l803 1442h167z" />
    <glyph glyph-name="franc" unicode="&#x20a3;" horiz-adv-x="1587" 
d="M1496 579q-162 0 -239 -131q-43 -74 -43 -247v-201h-289v817h276v-196q114 218 343 218q27 0 65 -4v-269q-71 13 -113 13zM1109 1427v-251h-711v-359h468v-233h-468v-584h-292v1427h1003z" />
    <glyph glyph-name="lira" unicode="&#x20a4;" 
d="M791 897v-170h-246q13 -39 32 -100h214v-170h-201q-28 -115 -167 -229q97 44 170 44t159 -24t129 -23q111 0 189 86l124 -211q-56 -60 -143.5 -93.5t-165.5 -33.5t-120 7.5t-152 39.5q-111 32 -175 32t-112 -17.5t-115 -62.5l-126 187q201 136 223 298h-236v170h205
q-6 14 -41 100h-164v170h88q-31 84 -31 164q0 154 112 259q139 129 385 129t379.5 -121t136.5 -344h-286q-7 222 -221 222q-83 0 -137 -46t-54 -110t36 -153h311z" />
    <glyph glyph-name="peseta" unicode="&#x20a7;" horiz-adv-x="2021" 
d="M1700 439q-68 0 -67 -39q0 -20 22.5 -29t124.5 -28t162 -55t61 -122q0 -86 -76.5 -137.5t-207.5 -51.5q-278 0 -288 214h180q4 -49 29 -69t81 -20q94 0 94 52q0 21 -21.5 31.5t-125.5 32.5t-145 42q-78 38 -78 124t69.5 132t199.5 46t196 -47.5t72 -147.5h-176
q-6 35 -22 53t-84 19zM1385 548v-126h-120v-235q1 -46 9 -55t41 -9t70 6v-138q-69 -7 -115 -7q-166 0 -179 68t-13 140v230h-97v126h97v160h187v-160h120zM405 1213v-435h168q127 0 189 54t63 168q0 114 -80 171q-58 42 -189 42h-151zM120 1462h439q140 0 221 -18t146 -64
q180 -126 180 -364t-148 -365q-120 -103 -342 -103h-211v-548h-285v1462z" />
    <glyph glyph-name="Euro" unicode="&#x20ac;" horiz-adv-x="1228" 
d="M809 1449q152 0 265 -56q44 -22 128 -77l-96 -244q-102 71 -172.5 99t-146.5 28q-202 0 -287 -289h544l-57 -162h-516q-1 -25 -1 -47t1 -43h477l-61 -162h-383q89 -267 285 -267q65 0 128 19.5t186 78.5v-282q-229 -68 -331 -68q-183 0 -339 118q-175 131 -236 401h-189
l59 162h104q-2 44 -2 58v32h-161l59 162h124q41 177 142 312q169 227 476 227z" />
    <glyph glyph-name="uni2101" unicode="&#x2101;" horiz-adv-x="1973" 
d="M1547 717q-63 0 -98 -25t-35 -67t35 -61.5t169 -51.5t188 -69q100 -65 100 -184t-91 -190.5t-253 -71.5t-255.5 76.5t-96.5 216.5h179q4 -69 35 -101q51 -53 135 -53t125 29.5t41 80.5t-63 75q-34 13 -172 51t-193 89q-56 49 -56 155t85.5 173t231.5 67t228 -68t87 -194
h-170q-13 123 -156 123zM560 919l-109 309l-109 -309h218zM546 1426l312 -822h-188l-66 184h-305l-67 -184h-185l313 822h186zM1587 1442l-799 -1442h-172l803 1442h168z" />
    <glyph glyph-name="afii61248" unicode="&#x2105;" horiz-adv-x="1973" 
d="M1501 717q-103 1 -164 -75t-61 -207t61 -205t163 -75t162 73q62 74 62 206t-60 207q-60 76 -163 76zM1095 450q1 188 117 302t288 114t288 -114q117 -114 117 -302q0 -189 -93 -304q-112 -140 -312 -140t-315 143q-90 113 -90 301zM462 585q-194 0 -303 138
q-93 116 -93 299t112.5 302.5t286.5 119.5t279 -112q74 -79 81 -183h-177q-33 146 -183 146q-117 0 -175 -98q-43 -75 -43 -193t58.5 -194t157.5 -76q166 0 189 187h179q-10 -153 -110.5 -244.5t-258.5 -91.5zM1471 1442l-799 -1442h-171l803 1442h167z" />
    <glyph glyph-name="afii61289" unicode="&#x2113;" horiz-adv-x="894" 
d="M702 1205q0 32 -14.5 53t-36.5 21q-54 0 -89 -92q-56 -146 -121 -535q8 9 18 20q127 140 185 290t58 243zM363 121q0 -49 32 -49t63.5 39.5t49.5 100.5l63 -28q-76 -220 -213 -220q-67 0 -105.5 48t-38.5 122t18 259l-111 -98l-34 55q43 33 160 168q71 374 165 614
t238 240q60 0 97 -45.5t37 -119.5q0 -178 -129 -387q-70 -112 -232 -282q-60 -319 -60 -417z" />
    <glyph glyph-name="afii61352" unicode="&#x2116;" horiz-adv-x="2249" 
d="M1441 435h710v-276h-710v276zM1965 864q0 98 -41 151q-40 54 -114 54t-115 -54t-41 -153.5t42 -151.5t115 -52t113.5 54t40.5 152zM1808 1217q163 -1 261 -97t98 -258q-1 -162 -101 -258q-100 -95 -260 -95t-258 100q-96 100 -96 253t96 254t260 101zM1342 1462v-1462
h-321l-612 996l4 -996h-307v1462h325l608 -994l-4 994h307z" />
    <glyph glyph-name="uni2117" unicode="&#x2117;" horiz-adv-x="1660" 
d="M729 1001v-246h170q150 0 150 123t-160 123h-160zM539 1161h352q158 0 231 -50q114 -77 114 -219t-81 -214t-230 -72h-196v-312h-190v867zM1445 725q1 268 -181 447t-436 179t-433 -181q-180 -180 -180 -438t181 -441q86 -87 199 -135t234 -47q174 0 322 92
q148 93 221 237t73 287zM828 1496q318 0 542 -224t225 -551q-1 -207 -113 -391t-290 -275t-378 -91t-384 113t-276 291q-90 178 -90 378t111 384q111 182 291 274t362 92z" />
    <glyph glyph-name="trademark" unicode="&#x2122;" horiz-adv-x="1898" 
d="M1796 1462v-833h-199l3 567l-209 -567h-163l-213 551l3 -551h-199v833h289l204 -560l198 560h286zM749 1462v-165h-271v-668h-209v668h-269v165h749z" />
    <glyph glyph-name="Omega" unicode="&#x2126;" horiz-adv-x="1461" 
d="M60 0v259h317q-132 81 -204 175q-120 154 -120 374q0 303 221 511q191 179 457 179t457 -179q220 -208 220 -512q0 -181 -78 -313t-246 -235h317v-259h-588v239q116 61 183 159q109 156 109 362q1 206 -113 340t-261 134t-261 -134t-114 -344q0 -364 293 -517v-239h-589z
" />
    <glyph glyph-name="estimated" unicode="&#x212e;" horiz-adv-x="1223" 
d="M937 584v190q-17 50 -59 100q-89 106 -243 106q-153 0 -233 -85q-37 -39 -75 -121v-190h610zM619 -13q-225 0 -349 144t-125 398q-1 253 133 397t344 144q173 0 296 -96q91 -70 128 -171.5t40 -289.5h-764v-217q31 -103 80 -147q80 -72 221 -72q245 0 342 214h90
q-95 -304 -436 -304z" />
    <glyph glyph-name="partialdiff" unicode="&#x2202;" horiz-adv-x="1097" 
d="M552 727q-86 1 -165 -65q-78 -66 -78 -184q1 -118 73 -191q72 -72 161 -72t164 67t75 191t-72 189t-158 65zM1052 565q0 -228 -95 -370q-141 -215 -427 -215q-142 0 -246 66q-239 154 -239 432q-1 202 127 336t315 134q89 0 147 -22.5t129 -85.5q-18 33 -27 49
q-88 177 -252 246q-96 44 -164.5 62t-180.5 30l34 232q206 -23 359 -82q195 -75 330 -237q190 -229 190 -575z" />
    <glyph glyph-name="emptyset" unicode="&#x2205;" horiz-adv-x="1356" 
d="M684 1174q-197 0 -320 -148q-96 -115 -96 -259q0 -195 171 -332l362 720q-60 19 -117 19zM678 358q180 0 295 124t115 283q0 104 -47.5 194t-128.5 141l-362 -722q72 -20 128 -20zM1210 767q0 -149 -75 -271t-195 -192t-275 -70q-100 0 -173 36l-137 -269l-107 54
l134 268q-236 173 -236 442q0 141 72 270t200 196t240 67t200 -31l104 195l105 -55l-105 -194q248 -171 248 -446z" />
    <glyph glyph-name="Delta" unicode="&#x2206;" horiz-adv-x="1415" 
d="M398 259h612l-302 888zM17 0l534 1462h309l538 -1462h-1381z" />
    <glyph glyph-name="product" unicode="&#x220f;" horiz-adv-x="1462" 
d="M43 1645h1376v-240h-159v-1713h159v-240h-571v240h144v1713h-524v-1713h144v-240h-569v240h160v1713h-160v240z" />
    <glyph glyph-name="summation" unicode="&#x2211;" horiz-adv-x="1462" 
d="M1356 1645v-553h-269l-32 278h-647l533 -787l-531 -857h665l18 287h283v-561h-1302v316l514 815l-514 746v316h1282z" />
    <glyph glyph-name="minus" unicode="&#x2212;" 
d="M88 618v196h1009v-196h-1009z" />
    <glyph glyph-name="fraction" unicode="&#x2215;" horiz-adv-x="356" 
d="M663 1442l-799 -1442h-171l803 1442h167z" />
    <glyph glyph-name="uni2218" unicode="&#x2218;" horiz-adv-x="1056" 
d="M526 542.5q82 -0.5 140 59.5t58 144t-59 144q-59 58 -140 58t-139 -59t-59 -143q1 -84 59 -144q58 -59 140 -59.5zM527 1052q123 0 211 -90t89 -216q0 -128 -88 -218q-89 -90 -213 -89q-124 -1 -213 89t-89 219t90 217t213 88z" />
    <glyph glyph-name="periodcentered" unicode="&#x2219;" horiz-adv-x="510" 
d="M421 708v-325h-332v325h332z" />
    <glyph glyph-name="radical" unicode="&#x221a;" horiz-adv-x="1462" 
d="M1608 1813v-247h-375l-411 -1566h-345l-139 572h-192v247h362l122 -515l384 1509h594z" />
    <glyph glyph-name="infinity" unicode="&#x221e;" horiz-adv-x="1462" 
d="M408 902q-66 0 -110.5 -45t-44.5 -119t51 -112q51 -39 106 -39q111 0 218 158q-106 157 -220 157zM1054 587q66 0 110.5 45.5t44.5 119.5t-51 113t-106 39q-110 0 -218 -159q106 -158 220 -158zM381 401q-167 0 -265 117q-77 92 -77 240q1 148 103 240t240 91
q196 0 345 -206q148 207 355 207q175 0 272 -126q69 -90 69 -236t-102 -238q-102 -90 -237 -90q-203 0 -348 209q-156 -208 -355 -208z" />
    <glyph glyph-name="integral" unicode="&#x222b;" horiz-adv-x="1097" 
d="M257 -266q93 0 121 75q10 28 10 232v960q1 232 7.5 358t161.5 225q96 61 241 61q75 0 184 -22l-51 -282q-53 21 -96 21q-88 0 -116 -75q-11 -30 -11 -135v-1049q0 -231 -8 -361t-135.5 -208t-293.5 -78q-97 0 -156 18l51 282q51 -22 91 -22z" />
    <glyph glyph-name="similar" unicode="&#x223c;" horiz-adv-x="1097" 
d="M344 758q74 0 205 -57t158 -66t66 -9t70.5 23t80.5 95l154 -108q-42 -102 -77 -151q-102 -139 -265 -139q-45 0 -87 14t-154 64q-113 50 -161 50t-81.5 -25.5t-79.5 -92.5l-154 108q119 294 325 294z" />
    <glyph glyph-name="uni2243" unicode="&#x2243;" horiz-adv-x="1097" 
d="M73 580h951v-276h-951v276zM343 1166q75 0 205 -57t158 -66.5t67 -9.5t70.5 23t80.5 96l154 -108q-42 -103 -77 -152q-102 -139 -265 -139q-45 0 -86.5 13.5t-153.5 64.5t-162 51q-48 0 -82 -26t-79 -93l-154 109q119 294 324 294z" />
    <glyph glyph-name="approxequal" unicode="&#x2248;" horiz-adv-x="1097" 
d="M344 700q74 0 205 -57t158 -66t66 -9t70.5 23t80.5 95l154 -108q-42 -102 -77 -151q-102 -139 -265 -139q-45 0 -87 14t-154 64q-113 50 -161 50t-82 -25.5t-79 -92.5l-154 108q119 294 325 294zM343 1166q75 0 205 -57t158 -66.5t67 -9.5t70.5 23t80.5 96l154 -108
q-42 -103 -77 -152q-102 -139 -265 -139q-45 0 -86.5 13.5t-153.5 64.5t-162 51q-48 0 -82 -26t-79 -93l-154 109q119 294 324 294z" />
    <glyph glyph-name="notequal" unicode="&#x2260;" horiz-adv-x="1097" 
d="M1024 1040v-263h-312l-92 -174h403v-262h-500l-132 -251l-197 105l79 146h-200v262h297l92 174h-388v263h495l149 283l197 -104l-96 -179h205z" />
    <glyph glyph-name="lessequal" unicode="&#x2264;" horiz-adv-x="1097" 
d="M1024 355v-276h-951v276h951zM1024 1403v-294l-607 -201l605 -199l2 -295l-951 363v264z" />
    <glyph glyph-name="greaterequal" unicode="&#x2265;" horiz-adv-x="1097" 
d="M73 79v276h951v-276h-951zM73 414l2 295l605 199l-607 201v294l951 -362v-264z" />
    <glyph glyph-name="lozenge" unicode="&#x25ca;" horiz-adv-x="1462" 
d="M731 1326l-432 -594l432 -594l432 594zM731 1520l570 -788l-570 -788l-569 788z" />
    <glyph glyph-name="ffl" unicode="&#xfb04;" horiz-adv-x="1850" 
d="M1754 1462v-1462h-290v1462h290zM449 907v-907h-289v907h-173v206h173q2 103 17 157t55 98q91 100 290 100q49 0 152 -7v-223q-56 5 -116 5t-86 -24t-26 -92v-14h354q2 103 17 157t55 98q91 100 290 100q49 0 153 -7v-223q-57 5 -117 5t-86 -24t-26 -92v-14h211v-206
h-208v-907h-289v907h-351z" />
    <glyph glyph-name="glyph172" 
 />
    <glyph glyph-name="glyph210" horiz-adv-x="548" 
 />
    </font>
</defs>
</svg>
