<?xml version="1.0" standalone="no"?>
<!DOCTYPE svg PUBLIC "-//W3C//DTD SVG 1.1//EN" "http://www.w3.org/Graphics/SVG/1.1/DTD/svg11.dtd" >
<svg xmlns="http://www.w3.org/2000/svg">
<metadata>
Created by FontPrep 20130207 at Wed Aug  5 10:32:48 2015
 By Manuel Cilurzo
(URW)++,Copyright 2014 by (URW)++ Design &#38; Development
</metadata>
<defs>
<font id="3429d441896eb815896d22e1971ce3af" horiz-adv-x='1024' >
  <font-face 
    font-family="SBB-Italic"
    font-weight="400"
    font-style="italic"
    font-stretch="normal"
    units-per-em="2048"
    panose-1="0 0 0 0 0 0 0 0 0 0"
    ascent="1667"
    descent="-381"
    x-height="1113"
    cap-height="1462"
    bbox="-260 -548 2776 2341"
    underline-thickness="123"
    underline-position="-153"
    slope="-12"
    unicode-range="U+0020-FB04"
  />
<missing-glyph horiz-adv-x="507" 
d="M405 51v1360h-303v-1360h303zM51 0v1462h405v-1462h-405z" />
    <glyph glyph-name="ff" unicode="ff" horiz-adv-x="1162" 
d="M647 1482q71 0 137 -18l-28 -155q-42 14 -87 14q-105 0 -146 -67q-21 -35 -45 -143h411q31 144 75 256.5t266 112.5q71 0 138 -18l-29 -155q-42 14 -87 14q-104 0 -145 -67q-21 -34 -46 -143h211l-31 -150h-210l-195 -963h-173l196 963h-411l-195 -963h-173l195 963h-178
l30 150h178q7 28 28 122q54 247 314 247z" />
    <glyph glyph-name="fi" unicode="fi" horiz-adv-x="1059" 
d="M1147 1535l-45 -224h-173l46 224h172zM1062 1113l-226 -1113h-172l225 1113h173zM647 1482q71 0 137 -18l-28 -155q-42 14 -87 14q-105 0 -146 -67q-21 -35 -45 -143h210l-30 -150h-210l-195 -963h-173l195 963h-178l30 150h178q7 28 28 122q54 247 314 247z" />
    <glyph glyph-name="fl" unicode="fl" horiz-adv-x="1059" 
d="M1132 1462l-296 -1462h-172l295 1462h173zM647 1482q71 0 137 -18l-28 -155q-42 14 -87 14q-105 0 -146 -67q-21 -35 -45 -143h210l-30 -150h-210l-195 -963h-173l195 963h-178l30 150h178q7 28 28 122q54 247 314 247z" />
    <glyph glyph-name="ffi" unicode="ffi" horiz-adv-x="1642" 
d="M1731 1535l-46 -224h-172l45 224h173zM1645 1113l-225 -1113h-173l225 1113h173zM647 1482q71 0 137 -18l-28 -155q-42 14 -87 14q-105 0 -146 -67q-21 -35 -45 -143h411q31 144 75 256.5t266 112.5q71 0 138 -18l-29 -155q-42 14 -87 14q-104 0 -145 -67
q-21 -34 -46 -143h211l-31 -150h-210l-195 -963h-173l196 963h-411l-195 -963h-173l195 963h-178l30 150h178q7 28 28 122q54 247 314 247z" />
    <glyph glyph-name=".notdef" horiz-adv-x="507" 
d="M405 51v1360h-303v-1360h303zM51 0v1462h405v-1462h-405z" />
    <glyph glyph-name="glyph1" horiz-adv-x="0" 
 />
    <glyph glyph-name="glyph2" horiz-adv-x="507" 
 />
    <glyph glyph-name="space" unicode=" " horiz-adv-x="507" 
 />
    <glyph glyph-name="exclam" unicode="!" horiz-adv-x="583" 
d="M629 1462l-97 -455l-184 -645h-94l87 645l96 455h192zM375 205l-44 -205h-214l44 205h214z" />
    <glyph glyph-name="quotedbl" unicode="&#x22;" horiz-adv-x="675" 
d="M289 874h-84l96 588h143zM663 874h-84l96 588h143z" />
    <glyph glyph-name="numbersign" unicode="#" horiz-adv-x="1129" 
d="M780 837h-244l-69 -232h244zM792 492l-124 -414h-115l124 414h-244l-125 -414h-115l125 414h-259l34 113h259l69 232h-259l34 113h259l114 381h116l-115 -381h244l115 381h115l-115 -381h269l-34 -113h-269l-69 -232h269l-34 -113h-269z" />
    <glyph glyph-name="dollar" unicode="$" horiz-adv-x="1129" 
d="M874 413q0 93 -50 148t-171 95l-117 -550q146 0 242 86t96 221zM680 1325q-69 0 -136 -31t-113 -92t-46 -149q0 -115 98 -170q26 -14 114 -44l103 486h-20zM1151 1109q0 -13 -2 -42h-167q2 25 2 35q0 90 -50.5 146.5t-140.5 67.5l-107 -504q176 -52 248 -119
q112 -105 112 -275t-130 -308q-130 -140 -380 -140q-6 0 -29 1l-37 -174h-95l37 174q-174 22 -267.5 126.5t-93.5 277.5q0 22 2 61h170q-3 -30 -3 -56q0 -237 223 -267l120 567q-126 42 -165 60.5t-80 54.5q-103 91 -103 236q0 187 131 309t346 122q14 0 37 -1l33 156h95
l-34 -163q124 -19 192 -68q136 -98 136 -277z" />
    <glyph glyph-name="percent" unicode="%" horiz-adv-x="1496" 
d="M1135 557q-114 0 -150 -133t-36 -192q0 -145 127 -145q67 0 109 53q85 107 85 262t-135 155zM1156 673q99 0 163 -44q99 -67 99 -221q0 -99 -63 -265.5t-299 -166.5q-126 0 -189 76t-63 172q0 187 93 318t259 131zM549 1341q-69 1 -109 -47t-64.5 -123t-24.5 -152
q0 -148 122 -148q73 -1 113 53q82 109 83 276q0 141 -120 141zM564 1458q257 0 257 -281q0 -190 -121 -318q-94 -101 -232 -101q-103 0 -170 51q-92 72 -92 221q0 94 59.5 261t298.5 167zM1493 1503l-1221 -1571h-145l1220 1571h146z" />
    <glyph glyph-name="ampersand" unicode="&#x26;" horiz-adv-x="1267" 
d="M230 354q0 -103 69 -168.5t178 -65.5q178 0 318 157l-253 421q-104 -56 -168 -102q-144 -105 -144 -242zM871 1180q0 59 -46 102t-124 42.5t-134 -50.5t-56 -139q0 -47 19.5 -97.5t74.5 -145.5q187 96 226.5 162.5t39.5 125.5zM461 -26q-183 0 -293 108t-110 264
q0 121 55 206.5t187 171.5q51 33 160 92q-65 105 -89 171.5t-24 158.5t60 182q95 141 297 141q163 0 255 -96q75 -77 75 -193t-76.5 -204.5t-276.5 -201.5l223 -366q102 118 133 284h170q-16 -104 -78 -225.5t-136 -194.5l177 -272h-200l-93 154q-101 -97 -196.5 -138.5
t-219.5 -41.5z" />
    <glyph glyph-name="quotesingle" unicode="'" horiz-adv-x="301" 
d="M289 874h-84l96 588h143z" />
    <glyph glyph-name="parenleft" unicode="(" horiz-adv-x="608" 
d="M250 235q0 -156 31.5 -344.5t75.5 -298.5h-114q-78 176 -122 369t-44 361q0 386 219 739q62 99 154.5 219t154.5 182h143q-78 -83 -181 -241t-166 -289q-151 -319 -151 -697z" />
    <glyph glyph-name="parenright" unicode=")" horiz-adv-x="608" 
d="M404 817q0 159 -31.5 346.5t-76.5 298.5h115q77 -174 121.5 -368.5t44.5 -360.5q0 -386 -219 -740q-62 -100 -152 -216.5t-157 -184.5h-143q80 87 181.5 242t165.5 288q151 316 151 695z" />
    <glyph glyph-name="asterisk" unicode="*" horiz-adv-x="1129" 
d="M839 1450l-47 -221l225 25l9 -102l-218 -26l99 -206l-99 -47l-98 211l-159 -177l-75 74l155 171l-195 102l53 93l197 -102l46 217z" />
    <glyph glyph-name="plus" unicode="+" horiz-adv-x="1129" 
d="M152 786h406v406h139v-406h406v-139h-406v-406h-139v406h-406v139z" />
    <glyph glyph-name="comma" unicode="," horiz-adv-x="506" 
d="M328 219l-37 -174q-24 -114 -74.5 -224t-232.5 -125l21 99q68 14 105 61t55 144h-118l47 219h234z" />
    <glyph glyph-name="hyphen" unicode="-" horiz-adv-x="456" 
d="M521 628l-36 -168h-497l36 168h497z" />
    <glyph glyph-name="period" unicode="." horiz-adv-x="506" 
d="M332 227l-48 -227h-240l48 227h240z" />
    <glyph glyph-name="slash" unicode="/" horiz-adv-x="771" 
d="M936 1462l-1048 -1870h-148l1047 1870h149z" />
    <glyph glyph-name="zero" unicode="0" horiz-adv-x="1129" 
d="M730 1308q-112 0 -204 -100t-161.5 -326t-69.5 -431q0 -328 234 -328q149 0 246 156q81 129 134 329t53 376t-59 250q-61 74 -173 74zM739 1462q405 0 405 -496q0 -177 -46.5 -362.5t-126.5 -327.5q-172 -306 -454 -306q-207 0 -305 146t-98 346t50 391.5t132 328.5
q166 280 443 280z" />
    <glyph glyph-name="one" unicode="1" horiz-adv-x="1129" 
d="M393 1071q-28 0 -55 1l28 131q322 7 473 252h133l-310 -1455h-184l235 1107q-143 -36 -320 -36z" />
    <glyph glyph-name="two" unicode="2" horiz-adv-x="1129" 
d="M948 1050q0 124 -66 191q-66 68 -195 68q-128 0 -214.5 -93t-100.5 -256h-168q6 151 84 278q136 224 418 224q185 0 302 -104t117 -285q0 -124 -55.5 -222t-176.5 -191q-69 -52 -265 -168q-342 -196 -386 -337q31 1 140 1h620l-33 -156h-931q20 295 205 422.5t354 225.5
t260 188t91 214z" />
    <glyph glyph-name="three" unicode="3" horiz-adv-x="1129" 
d="M248 406q0 -106 45 -173q71 -109 247 -109t272 134q61 86 61 183t-39 153t-93.5 77t-119.5 21t-107 -3l31 145q45 -1 63 -1q175 1 258 71t83 196q0 69 -38 123q-61 86 -195 86t-217.5 -79.5t-103.5 -216.5h-169q20 146 102 265q129 184 390 184q200 0 315 -115
q97 -96 97 -231q0 -272 -262 -352q89 -35 138 -113.5t49 -172.5q0 -191 -108 -325q-68 -86 -179.5 -134.5t-256.5 -48.5t-245 65q-192 125 -191 352q0 29 4 69h170q-1 -30 -1 -50z" />
    <glyph glyph-name="four" unicode="4" horiz-adv-x="1129" 
d="M708 495l141 664l-607 -664h466zM1079 495l-31 -145h-199l-74 -350h-172l74 350h-640l35 163l862 949h152l-206 -967h199z" />
    <glyph glyph-name="five" unicode="5" horiz-adv-x="1129" 
d="M642 962q186 0 299 -123t113 -321t-129 -359q-149 -188 -415 -188q-216 -1 -328 113t-113 295v14h175q0 -107 45 -171q68 -98 225 -98q205 0 298 173q58 109 58 227t-66 203q-66 84 -212 84q-89 0 -160.5 -38t-114.5 -107l-153 8l225 759h737l-33 -156h-590l-121 -394
q117 79 260 79z" />
    <glyph glyph-name="six" unicode="6" horiz-adv-x="1129" 
d="M887 504q0 146 -76 215q-77 69 -195 69t-201 -74q-54 -47 -86 -126.5t-32 -166.5q0 -137 75 -219t201 -82q156 0 244 133q70 105 70 251zM776 1313q-187 0 -305 -194q-34 -56 -54.5 -106t-77.5 -220q117 146 309 146q192 -1 308 -121t116 -326t-140 -364t-378 -158
t-350 169q-88 132 -88 317t103.5 596t559.5 411q187 0 289 -99.5t101 -281.5h-176q-5 100 -38 150q-55 81 -179 81z" />
    <glyph glyph-name="seven" unicode="7" horiz-adv-x="1129" 
d="M1236 1433l-32 -153q-100 -97 -340.5 -409.5t-412.5 -870.5h-199q90 313 287 638t479 625h-759l36 170h941z" />
    <glyph glyph-name="eight" unicode="8" horiz-adv-x="1129" 
d="M864 422q0 278 -290 278q-144 0 -224 -92q-81 -92 -81 -206t55 -185q76 -97 214 -97t221 72q105 90 105 230zM695 1313q-124 0 -194 -68.5t-70 -168.5t48 -158q66 -79 196 -79q94 0 158 48q92 68 92 199q0 87 -44 145q-62 82 -186 82zM1049 433q0 -102 -47.5 -200
t-129.5 -162q-128 -101 -320 -101t-311 89q-158 117 -158 336q0 156 92.5 262t256.5 136q-62 38 -97 73q-77 80 -77 211q0 174 123 280t299 106t288 -84q136 -102 136 -277q0 -124 -73 -217.5t-189 -119.5q70 -30 116 -81q91 -101 91 -251z" />
    <glyph glyph-name="nine" unicode="9" horiz-adv-x="1129" 
d="M699 1313q-164 -1 -249 -123t-85 -256t71.5 -209t173.5 -75q223 0 306 207q32 81 32 181t-44 173q-30 47 -84.5 74.5t-120.5 27.5zM272 340q0 -101 64.5 -160t175.5 -59q183 0 292 190q35 59 58 128t60 224q-121 -163 -329 -163q-176 0 -291 117t-115 323t136 362
q68 77 166 119.5t209 42.5q168 0 280 -91q153 -125 153 -416q0 -161 -65.5 -463t-284.5 -451q-108 -72 -274 -72q-249 0 -352 168q-52 83 -51 215h169q-1 -11 -1 -14z" />
    <glyph glyph-name="colon" unicode=":" horiz-adv-x="542" 
d="M541 1038l-49 -227h-239l48 227h240zM368 227l-48 -227h-240l48 227h240z" />
    <glyph glyph-name="semicolon" unicode=";" horiz-adv-x="542" 
d="M541 1038l-48 -227h-240l48 227h240zM367 219l-37 -174q-24 -114 -74.5 -224t-232.5 -125l21 99q68 14 105 61t55 144h-118l47 219h234z" />
    <glyph glyph-name="less" unicode="&#x3c;" 
d="M1070 1272v-190l-748 -347l747 -348l1 -188l-951 455v163z" />
    <glyph glyph-name="equal" unicode="=" horiz-adv-x="1129" 
d="M147 951h951l2 -139h-950zM154 621h950l3 -139h-950z" />
    <glyph glyph-name="greater" unicode="&#x3e;" 
d="M120 199v190l747 347l-746 347l-1 189l950 -455v-164z" />
    <glyph glyph-name="question" unicode="?" horiz-adv-x="1060" 
d="M953 1124q0 90 -63 148q-63 60 -179 60q-163 0 -255 -132q-47 -67 -70 -195h-171q17 146 75 245q135 233 429 233q189 -1 303 -97t113 -242q0 -146 -66 -240t-257 -230q-101 -73 -136 -124.5t-67 -174.5h-169q36 222 117 294t192 151t157.5 146.5t46.5 157.5zM598 205
l-43 -205h-215l44 205h214z" />
    <glyph glyph-name="at" unicode="@" horiz-adv-x="1626" 
d="M637 565q0 -157 129 -157q134 0 217 230l50 139q26 71 26 119t-33.5 86.5t-80.5 38.5q-104 0 -197 -128q-49 -67 -80 -160t-31 -168zM912 -29q-220 0 -401 115t-272 304q-73 152 -73 344t103 361t275 268t361 99t355 -80t253 -228t87 -308q0 -258 -198 -418
q-140 -113 -279 -113q-58 0 -102 28t-58 74q-112 -102 -234 -102t-196 103q-50 70 -50 180q0 173 110 326q139 193 319 193q66 0 119.5 -29.5t83.5 -82.5l29 78h145l-183 -534q-19 -56 -19 -85q0 -55 66 -55q103 0 208 106q134 135 134 327q0 233 -183 385
q-162 136 -368 136t-352 -89q-148 -89 -231 -234t-83 -326q0 -264 178 -448q104 -105 226 -149t235 -44q168 0 317 84.5t229 225.5l116 -1q-37 -81 -76 -132t-106 -105q-214 -174 -485 -174z" />
    <glyph glyph-name="A" unicode="A" horiz-adv-x="1347" 
d="M862 1277l-392 -672h502zM1004 1462l261 -1462h-200l-70 447h-613l-260 -447h-219l884 1462h217z" />
    <glyph glyph-name="B" unicode="B" horiz-adv-x="1368" 
d="M635 164q247 0 323 42t115 109t39 144q0 138 -113 194q-38 19 -85 24.5t-178 5.5h-345l-110 -519h354zM779 831q116 0 179.5 11.5t109.5 43.5t75.5 91.5t29.5 124.5q0 126 -109 173q-54 23 -219 23h-323l-99 -467h356zM838 1462q154 0 228.5 -10t143.5 -43t112.5 -108
t43.5 -197t-73.5 -216.5t-207.5 -124.5q69 -20 117 -61q102 -89 102 -236t-87 -269q-109 -156 -312 -186q-74 -11 -255 -11h-591l311 1462h468z" />
    <glyph glyph-name="C" unicode="C" horiz-adv-x="1437" 
d="M738 -32q-286 0 -444 172t-157 464q0 168 55.5 332.5t152.5 283.5q223 275 592 275q267 0 420 -158q57 -59 89.5 -142t32.5 -171q0 -10 -1 -31h-188q-7 159 -81 238q-95 103 -290 103t-331 -114t-199 -286q-64 -172 -64 -331q0 -210 94 -327q119 -147 335 -147t344 154
q73 88 106 214h196q-39 -177 -150 -310q-184 -219 -512 -219z" />
    <glyph glyph-name="D" unicode="D" horiz-adv-x="1421" 
d="M523 164q136 0 205 9t128 35q226 98 327 381q52 146 52 289q0 281 -186 376q-87 44 -279 44h-248l-241 -1134h242zM714 1462q238 0 325 -22q213 -54 312 -244q71 -137 71 -312t-58 -340t-159 -284q-187 -223 -377.5 -241.5t-346.5 -18.5h-422l311 1462h344z" />
    <glyph glyph-name="E" unicode="E" horiz-adv-x="1239" 
d="M1381 1462l-34 -164h-825l-99 -467h769l-33 -158h-770l-108 -509h835l-35 -164h-1022l311 1462h1011z" />
    <glyph glyph-name="F" unicode="F" horiz-adv-x="1134" 
d="M1330 1462l-34 -164h-774l-99 -466h683l-34 -158h-683l-143 -674h-187l311 1462h960z" />
    <glyph glyph-name="G" unicode="G" horiz-adv-x="1530" 
d="M137 600q-1 244 99 454t285 325.5t447 115.5q262 1 404 -137t148 -342h-191q-10 125 -66 193q-101 124 -322 124q-265 0 -436 -198q-87 -99 -133 -249t-45 -290q0 -230 130 -358q109 -109 311 -109t329 118.5t189 372.5h-468l34 158h639l-165 -778h-123l-3 95
q-3 43 -4 65q-167 -193 -455 -193t-446 166.5t-158 466.5z" />
    <glyph glyph-name="H" unicode="H" horiz-adv-x="1445" 
d="M1519 1462l-311 -1462h-187l144 680h-774l-145 -680h-187l311 1462h187l-132 -618h775l132 618h187z" />
    <glyph glyph-name="I" unicode="I" horiz-adv-x="483" 
d="M557 1462l-311 -1462h-187l311 1462h187z" />
    <glyph glyph-name="J" unicode="J" horiz-adv-x="984" 
d="M410 -35q-235 0 -336 120q-74 88 -74 228q0 74 18 167h186q-19 -111 -19 -157q0 -194 211 -194q125 0 196 84q47 57 92 267l209 982h187l-203 -954q-34 -162 -60 -242t-60 -133q-112 -168 -347 -168z" />
    <glyph glyph-name="K" unicode="K" horiz-adv-x="1321" 
d="M1502 1462l-706 -600l473 -862h-217l-400 745l-301 -250l-105 -495h-187l311 1462h187l-155 -729l839 729h261z" />
    <glyph glyph-name="L" unicode="L" horiz-adv-x="1141" 
d="M557 1462l-276 -1298h784l-35 -164h-971l311 1462h187z" />
    <glyph glyph-name="M" unicode="M" horiz-adv-x="1760" 
d="M1834 1462l-311 -1462h-187l255 1200l-709 -1200h-168l-209 1220l-259 -1220h-187l311 1462h266l201 -1244l725 1244h272z" />
    <glyph glyph-name="N" unicode="N" horiz-adv-x="1467" 
d="M1541 1462l-311 -1462h-217l-511 1203l-256 -1203h-187l311 1462h211l515 -1214l258 1214h187z" />
    <glyph glyph-name="O" unicode="O" horiz-adv-x="1555" 
d="M1360 872q0 200 -109 332t-338 131q-229 0 -389 -172q-112 -122 -154 -276t-42 -277q0 -186 81 -306q119 -177 358 -177t403 187q102 117 146 268t44 290zM942 1495q222 0 378 -115q230 -168 230 -524t-216 -623t-570 -267t-517 242q-110 164 -110 420t131 489
q103 181 277.5 279.5t396.5 98.5z" />
    <glyph glyph-name="P" unicode="P" horiz-adv-x="1279" 
d="M742 760q136 0 200 11.5t114 47.5t82.5 102.5t32.5 139.5q0 136 -93 196q-63 41 -274 41h-282l-114 -538h334zM867 1462q231 0 315 -51q182 -110 182 -329q0 -166 -96 -303t-272 -163q-91 -14 -251 -14h-371l-128 -602h-187l311 1462h497z" />
    <glyph glyph-name="Q" unicode="Q" horiz-adv-x="1570" 
d="M1356 862q0 182 -78 302q-112 170 -344 170q-159 0 -293 -83q-170 -106 -253 -320q-58 -152 -58 -339t97 -314q116 -150 338 -150q110 0 213 44l-138 131l112 116l163 -158q113 101 177 260t64 341zM744 -33q-280 1 -443 177t-163 452t116 488t320 320q172 90 367 90
q267 0 439 -165t172 -470q0 -216 -82.5 -405.5t-228.5 -311.5l181 -175l-113 -114l-204 198q-155 -84 -361 -84z" />
    <glyph glyph-name="R" unicode="R" horiz-adv-x="1411" 
d="M809 790q94 0 184 12t152.5 90.5t62.5 194.5t-92 174q-58 37 -225 37h-374l-108 -508h400zM1012 94q0 58 14 176t15 181q0 105 -54 143t-214 38h-398l-134 -632h-187l311 1462h548q128 0 197 -11t123 -40q172 -92 172 -314q0 -154 -86 -259.5t-240 -139.5
q80 -36 114 -91.5t34 -151.5l-23 -333q0 -74 26 -122h-200q-18 36 -18 94z" />
    <glyph glyph-name="S" unicode="S" horiz-adv-x="1253" 
d="M1261 1038h-183q-1 138 -60 201q-86 93 -266 93t-269 -68q-88 -68 -88 -171q0 -102 69.5 -154.5t266.5 -102.5t285 -103q164 -100 164 -297t-146 -331t-416 -134q-272 -1 -421 121t-149 362v31h187q3 -156 47 -222q87 -131 314 -131t329 110q68 74 68 176q-1 102 -67 153
q-66 53 -224 93t-221 63t-125 63t-102 114q-41 76 -41 172t84 256t445 160q204 0 318 -68t157.5 -151.5t43.5 -209.5v-25z" />
    <glyph glyph-name="T" unicode="T" horiz-adv-x="1206" 
d="M1416 1462l-35 -164h-496l-276 -1298h-187l276 1298h-500l35 164h1183z" />
    <glyph glyph-name="U" unicode="U" horiz-adv-x="1423" 
d="M686 -31q-235 0 -375 96q-171 117 -171 340q0 82 29 219l178 838h188l-182 -854q-28 -131 -28 -195q0 -145 100 -213t256 -68q261 0 366 158q53 82 102 312l182 860h187l-186 -877q-36 -170 -66.5 -256t-78.5 -152q-152 -208 -501 -208z" />
    <glyph glyph-name="V" unicode="V" horiz-adv-x="1241" 
d="M1470 1462l-824 -1462h-221l-211 1462h200l156 -1269l694 1269h206z" />
    <glyph glyph-name="W" unicode="W" horiz-adv-x="1858" 
d="M2078 1462l-668 -1462h-207l-93 1250l-582 -1250h-208l-96 1462h192l60 -1218l565 1218h216l93 -1201l529 1201h199z" />
    <glyph glyph-name="X" unicode="X" horiz-adv-x="1215" 
d="M1373 1462l-602 -724l370 -738h-201l-300 612l-497 -612h-226l640 766l-351 696h208l274 -569l463 569h222z" />
    <glyph glyph-name="Y" unicode="Y" horiz-adv-x="1199" 
d="M1464 1462l-714 -880l-124 -582h-187l127 597l-386 865h206l296 -699l554 699h228z" />
    <glyph glyph-name="Z" unicode="Z" horiz-adv-x="1237" 
d="M1355 1462l-33 -158l-1098 -1140h926l-35 -164h-1167l33 158l1101 1140h-833l35 164h1071z" />
    <glyph glyph-name="bracketleft" unicode="[" horiz-adv-x="608" 
d="M746 1462l-29 -135h-220l-339 -1600h219l-29 -135h-386l398 1870h386z" />
    <glyph glyph-name="backslash" unicode="\" horiz-adv-x="756" 
d="M278 1462h134l256 -1870h-133z" />
    <glyph glyph-name="bracketright" unicode="]" horiz-adv-x="608" 
d="M-92 -408l29 135h219l340 1600h-219l29 135h386l-398 -1870h-386z" />
    <glyph glyph-name="asciicircum" unicode="^" 
d="M287 814h-177l376 653h215l377 -653h-179l-307 522z" />
    <glyph glyph-name="underscore" unicode="_" 
d="M46 -152h1097v-123h-1097v123z" />
    <glyph glyph-name="grave" unicode="`" 
d="M800 1214h-117l-213 296h198z" />
    <glyph glyph-name="a" unicode="a" horiz-adv-x="1067" 
d="M194 284q0 -72 57 -122t143 -50q174 0 277 135q53 72 88 244l17 84q-40 -47 -214 -61t-234 -34q-62 -20 -98 -72t-36 -124zM616 1144q183 0 282 -70.5t99 -201.5q0 -52 -30 -190l-75 -372q-18 -81 -18 -115q0 -66 51 -66q21 0 51 8l-24 -139q-59 -21 -116 -21t-94.5 34.5
t-37.5 93.5q0 10 3 32q-47 -56 -88 -86q-109 -82 -265 -82q-156 -1 -246 83q-89 84 -89 232q0 185 150 281q102 64 293 79q192 15 277.5 31.5t85.5 154.5q0 88 -55.5 125.5t-159.5 37.5q-241 0 -285 -213h-168q17 126 83 211q120 153 376 153z" />
    <glyph glyph-name="b" unicode="b" horiz-adv-x="1195" 
d="M986 684q0 145 -74 226t-188 81q-299 0 -357.5 -245.5t-58.5 -335.5t45 -167q71 -123 219 -123t252 107q162 171 162 457zM753 1146q152 0 256 -88q151 -127 151 -386q0 -319 -203 -548q-139 -156 -354 -156q-173 0 -266 89q-73 69 -90 150l-42 -207h-161l296 1462h172
l-98 -487q141 171 339 171z" />
    <glyph glyph-name="c" unicode="c" horiz-adv-x="1062" 
d="M512 -32q-231 0 -343 153q-91 124 -91 315q0 117 35.5 241t94.5 213q167 254 465 254q197 0 295 -104t98 -253q0 -10 -1 -27h-174q-3 86 -31 136q-55 98 -211 97q-157 0 -268 -142q-57 -73 -91 -185t-34 -239t55 -207q69 -99 211 -99q218 0 300 243h182
q-49 -186 -179.5 -291t-312.5 -105z" />
    <glyph glyph-name="d" unicode="d" horiz-adv-x="1192" 
d="M671 992q-207 0 -324 -198q-44 -73 -69.5 -174t-25.5 -200q0 -158 76 -228t188 -70q202 0 321 215q41 75 68 180.5t27 193.5q0 139 -75 210t-186 71zM482 -31q-199 0 -305 118t-106 325q0 259 134 467q169 265 460 265q126 0 209.5 -51.5t113.5 -148.5l105 518h172
l-295 -1462h-161l33 165q-42 -75 -130 -135t-230 -61z" />
    <glyph glyph-name="e" unicode="e" horiz-adv-x="1098" 
d="M899 687q0 128 -47 202q-66 103 -204 103t-232 -89t-134 -250h616q1 27 1 34zM526 -31q-246 0 -360 163q-89 127 -89 311q0 115 55 313t270 323q112 65 247 65q196 0 307.5 -123.5t111.5 -340.5q0 -75 -15 -177h-795q-6 -40 -6 -76q0 -120 54 -198q75 -109 225 -109
q222 0 298 230h179q-24 -110 -99 -206q-137 -175 -383 -175z" />
    <glyph glyph-name="f" unicode="f" horiz-adv-x="578" 
d="M632 1482q86 0 152 -18l-28 -155q-42 14 -86 14q-105 0 -146 -67q-21 -33 -46 -143h210l-30 -150h-210l-195 -963h-173l195 963h-178l30 150h178l-6 -33q33 154 44.5 193.5t34.5 77.5q78 131 254 131z" />
    <glyph glyph-name="g" unicode="g" horiz-adv-x="1178" 
d="M643 994q-117 0 -204 -76q-113 -98 -162 -292q-25 -98 -25 -182q0 -159 90 -238q70 -62 175 -62q187 0 299 196q87 154 87 380q0 114 -71.5 194t-188.5 80zM414 -458q-207 0 -321 105q-47 45 -75 106.5t-28 122.5v13h178q11 -86 49 -129q66 -74 210 -74q178 0 268 117
q27 34 56 111.5t45 155.5l19 93q-119 -174 -338 -174q-142 0 -248 87q-150 125 -150 363q0 136 46.5 276.5t121.5 234.5t176.5 144t220.5 50t207 -60.5t127 -173.5l41 203h161l-190 -936q-35 -177 -62 -261.5t-69 -152.5q-135 -221 -445 -221z" />
    <glyph glyph-name="h" unicode="h" horiz-adv-x="1141" 
d="M795 1144q124 0 207.5 -76.5t83.5 -203.5q0 -73 -25 -196l-135 -668h-173l132 653q24 115 24 169q0 170 -180 170q-82 0 -162 -43t-140 -123t-92 -240l-118 -586h-173l296 1462h172l-104 -517q89 106 176 152.5t211 46.5z" />
    <glyph glyph-name="i" unicode="i" horiz-adv-x="439" 
d="M528 1535l-46 -224h-173l46 224h173zM442 1113l-225 -1113h-173l225 1113h173z" />
    <glyph glyph-name="j" unicode="j" horiz-adv-x="418" 
d="M507 1535l-46 -224h-172l45 224h173zM-113 -450q-52 0 -105 14l32 154q34 -16 80 -16t66.5 44.5t66.5 269.5l222 1097h172l-239 -1179q-42 -199 -72 -261q-60 -123 -223 -123z" />
    <glyph glyph-name="k" unicode="k" horiz-adv-x="999" 
d="M512 1462l-170 -840l545 490h235l-468 -408l263 -704h-195l-206 590l-219 -192l-80 -398h-173l296 1462h172z" />
    <glyph glyph-name="l" unicode="l" horiz-adv-x="439" 
d="M512 1462l-295 -1462h-173l296 1462h172z" />
    <glyph glyph-name="m" unicode="m" horiz-adv-x="1745" 
d="M768 1145q108 0 177.5 -55t84.5 -152q163 209 380 209q116 0 201 -64t85 -179q0 -82 -31 -234l-135 -670h-173l134 659q26 131 26 191q0 144 -161 144q-131 0 -238 -117q-53 -58 -78.5 -120t-54.5 -203l-112 -554h-172l133 659q30 160 30 210t-40.5 86.5t-110.5 36.5
q-128 0 -245 -118q-54 -53 -82 -115t-51 -174l-118 -585h-173l225 1113h161l-35 -172q48 84 156.5 144t216.5 60z" />
    <glyph glyph-name="n" unicode="n" horiz-adv-x="1141" 
d="M778 1144q114 0 197 -55q113 -72 113 -220q0 -67 -26 -198l-136 -671h-173l138 681q19 94 19 163t-46 109t-136 40q-161 0 -277 -136q-80 -95 -117 -274l-117 -583h-173l225 1113h161l-36 -177q59 93 164.5 150.5t219.5 57.5z" />
    <glyph glyph-name="o" unicode="o" horiz-adv-x="1153" 
d="M665 993q-167 0 -280 -145q-60 -76 -95 -183t-35 -219t51 -201q73 -125 245 -125t288 176q49 74 78 176t29 202q0 148 -75 233.5t-206 85.5zM674 1145q226 0 343 -134q103 -117 103 -331q0 -133 -41.5 -264.5t-115.5 -231.5q-161 -217 -434 -217t-382 201
q-65 120 -65 280t66 326t207 268.5t319 102.5z" />
    <glyph glyph-name="p" unicode="p" horiz-adv-x="1194" 
d="M713 992q-170 0 -284 -154q-49 -66 -85.5 -194t-36.5 -217q0 -174 102 -253q72 -57 182 -57q175 1 285 167t110 387q0 167 -78 244t-195 77zM755 1145q173 1 289 -119t115 -360q0 -240 -115 -433q-156 -265 -446 -265q-134 0 -222.5 56.5t-120.5 162.5l-124 -615h-173
l312 1541h161l-32 -158q46 84 145.5 137t210.5 53z" />
    <glyph glyph-name="q" unicode="q" horiz-adv-x="1196" 
d="M665 991q-168 0 -283 -142q-58 -73 -94 -191t-36 -250t67 -209.5t191 -77.5t220 79q98 79 150 233q52 155 52 281t-72 201.5t-195 75.5zM660 1144q255 0 341 -211l36 180h161l-312 -1541h-173l117 575q-61 -70 -115 -106q-108 -72 -246 -72q-189 1 -293 121t-104 323
q0 137 45 276.5t120 237.5q168 217 423 217z" />
    <glyph glyph-name="r" unicode="r" horiz-adv-x="663" 
d="M718 949q-159 0 -270 -135q-90 -109 -131 -320l-100 -494h-173l225 1113h161l-48 -238q40 107 146 187t236 80q28 0 65 -4l-40 -194q-34 5 -71 5z" />
    <glyph glyph-name="s" unicode="s" horiz-adv-x="949" 
d="M930 790h-172q-1 202 -232 202q-98 0 -156 -40t-58 -113q0 -72 91 -120q41 -22 187 -84t200 -116q79 -80 79 -191q0 -72 -62.5 -215.5t-371.5 -143.5q-206 0 -315.5 99.5t-109.5 285.5h170q-1 -83 36 -138q65 -99 237 -99q113 1 177 53t64 120t-40.5 108t-200.5 106
t-222 120q-93 80 -93 203q0 71 65.5 194t331.5 123t356 -171q39 -77 39 -183z" />
    <glyph glyph-name="t" unicode="t" horiz-adv-x="598" 
d="M338 -9q-230 0 -230 179q0 44 28 182l124 611h-181l30 150h181l52 256h173l-52 -256h211l-30 -150h-211l-124 -611q-15 -74 -15 -120t20 -68t72 -21q52 0 114 17l-32 -157q-63 -12 -130 -12z" />
    <glyph glyph-name="u" unicode="u" horiz-adv-x="1125" 
d="M412 -31q-114 0 -201 56q-110 73 -110 229q0 64 25 187l136 672h173l-117 -578q-42 -211 -42 -259q0 -156 193 -156q144 0 251 131q45 54 70.5 115.5t46.5 162.5l118 584h173l-226 -1113h-160l34 171q-62 -97 -156 -149.5t-208 -52.5z" />
    <glyph glyph-name="v" unicode="v" horiz-adv-x="891" 
d="M1047 1113l-590 -1113h-189l-151 1113h185l104 -889l451 889h190z" />
    <glyph glyph-name="w" unicode="w" horiz-adv-x="1462" 
d="M1608 1113l-546 -1113h-187l-59 862l-377 -862h-187l-126 1113h185l78 -870l374 870h199l59 -861l400 861h187z" />
    <glyph glyph-name="x" unicode="x" horiz-adv-x="912" 
d="M1035 1113l-455 -536l270 -577h-202l-191 459l-361 -459h-213l499 591l-237 522h200l163 -404l317 404h210z" />
    <glyph glyph-name="y" unicode="y" horiz-adv-x="912" 
d="M24 -450q-56 0 -125 20l34 156q71 -24 111 -24t80 31q74 60 179 268l-186 1112h187l128 -876l444 876h192l-536 -1004q-151 -283 -223 -389q-115 -170 -285 -170z" />
    <glyph glyph-name="z" unicode="z" horiz-adv-x="899" 
d="M976 1113l-26 -129l-749 -834h637l-30 -150h-867l27 135l746 828h-578l30 150h810z" />
    <glyph glyph-name="braceleft" unicode="{" horiz-adv-x="602" 
d="M283 382q0 -50 -13 -111l-66 -310q-18 -85 -18 -136t40 -72.5t138 -23.5l-29 -137h-15q-94 0 -160 10t-107 65t-41 115t16 136l70 330q12 55 12 89q0 90 -93 119l31 147q73 19 111 64.5t57 135.5l77 361q51 241 173.5 269.5t252.5 28.5h13l-29 -137q-122 -4 -176.5 -52.5
t-81.5 -179.5l-68 -318q-22 -104 -59.5 -158t-114.5 -92q45 -28 62.5 -60.5t17.5 -82.5z" />
    <glyph glyph-name="bar" unicode="|" 
d="M499 1462h191v-1828h-191v1828z" />
    <glyph glyph-name="braceright" unicode="}" horiz-adv-x="602" 
d="M366 674q0 51 12 109l66 309q18 84 18 136t-39.5 73.5t-138.5 23.5l30 137h14q166 0 224 -35q84 -54 84 -168q0 -49 -16 -123l-70 -330q-11 -52 -11 -89q0 -90 92 -119l-31 -146q-72 -20 -110.5 -65.5t-57.5 -135.5l-77 -361q-51 -241 -173 -269.5t-252 -28.5h-14l29 137
q123 4 177 52.5t82 179.5l67 318q22 104 60 158t114 92q-43 27 -61 60.5t-18 84.5z" />
    <glyph glyph-name="asciitilde" unicode="~" horiz-adv-x="1421" 
d="M553 1597q80 0 212 -65t169 -78t72 -13q108 0 198 161l100 -80q-112 -250 -319 -250q-43 0 -87.5 17t-167.5 77t-185 60q-103 0 -193 -161l-100 80q113 252 301 252z" />
    <glyph glyph-name="nonbreakingspace" unicode="&#xa0;" horiz-adv-x="507" 
 />
    <glyph glyph-name="exclamdown" unicode="&#xa1;" horiz-adv-x="583" 
d="M1 -402l97 455l185 645h93l-87 -645l-96 -455h-192zM255 855l44 205h214l-44 -205h-214z" />
    <glyph glyph-name="cent" unicode="&#xa2;" horiz-adv-x="1129" 
d="M327 613q0 -239 190 -293l174 820q-127 -11 -225 -122q-62 -71 -100.5 -183t-38.5 -222zM152 605q0 286 163 480.5t408 200.5l40 188h89l-40 -188q166 -24 246 -120t82 -244h-173q-2 195 -186 219l-176 -828q101 2 178 63t114 168h181q-38 -154 -169 -263
q-70 -58 -146.5 -83.5t-187.5 -26.5l-45 -212h-90l46 212q-154 30 -244 139t-90 295z" />
    <glyph glyph-name="sterling" unicode="&#xa3;" horiz-adv-x="1129" 
d="M386 61q-62 0 -94 -11.5t-162 -79.5l-60 156q69 54 117 102q141 140 141 286q0 71 -28 161h-170l19 87h128q-44 139 -44 264q-1 124 75 238q141 212 402 213q260 0 385 -174q79 -110 79 -259q0 -22 -2 -50h-175q1 28 1 37q0 135 -70 211t-203 76q-170 0 -259 -131
q-55 -81 -55 -193t42 -232h321l-18 -87h-279q16 -81 16 -157t-36.5 -146t-131.5 -155q-23 -21 -89 -76q137 60 207 60q70 1 168 -29t126 -36t70 -6t70.5 11.5t128.5 70.5l65 -147q-146 -101 -285 -101q-72 0 -205 48t-195 49z" />
    <glyph glyph-name="currency" unicode="&#xa4;" horiz-adv-x="1421" 
d="M394 744q0 -164 121 -273t284 -109t272 122t109 283q0 162 -120 272t-284 110q-162 0 -272 -121q-110 -120 -110 -284zM245 759q0 97 25.5 171t88.5 155l-125 123l93 96l126 -125q152 119 334 119q91 0 166.5 -26.5t158.5 -87.5l122 120l92 -96l-121 -118q65 -82 93 -159
t27.5 -174t-26.5 -170.5t-88 -155.5l121 -121l-93 -94l-121 121q-152 -121 -335 -121q-96 0 -172.5 28t-160.5 93l-123 -121l-91 94l120 121q-61 86 -86 158.5t-25 169.5z" />
    <glyph glyph-name="yen" unicode="&#xa5;" horiz-adv-x="1129" 
d="M464 352h-335l26 124h335l21 98l-46 132h-305l27 124h236l-208 603h188l219 -701l479 701h208l-429 -603h236l-26 -124h-298l-104 -147l-18 -83h327l-26 -124h-327l-75 -352h-180z" />
    <glyph glyph-name="brokenbar" unicode="&#xa6;" 
d="M499 336h191v-702h-191v702zM499 1462h191v-737h-191v737z" />
    <glyph glyph-name="section" unicode="&#xa7;" horiz-adv-x="1129" 
d="M297 686q0 -49 31 -102.5t108 -135.5l246 -265q2 -2 3 -2l57 22q57 22 80 44q57 53 57 117t-31.5 117t-110.5 136l-252 262q-19 -1 -103.5 -39.5t-84.5 -153.5zM933 1100q0 86 -27 132q-51 86 -167 86q-86 0 -139 -45.5t-53 -119.5t67 -160q16 -20 175 -182
q159 -163 209 -239t51 -188q0 -112 -81 -200t-215 -107q59 -78 59 -190q0 -111 -98 -207t-279 -96q-225 0 -327 157q-55 83 -55 198v24h169q-1 -13 -1 -16q1 -97 59 -157t156 -61q98 0 150.5 48t52.5 109t-34.5 113.5t-188.5 216.5t-205 230q-82 110 -82 228t79.5 204.5
t210.5 109.5q-47 83 -47 179t80 184q100 112 280 112t276 -89t95 -235q0 -12 -1 -39h-169z" />
    <glyph glyph-name="dieresis" unicode="&#xa8;" 
d="M1005 1462l-44 -205h-182l43 205h183zM647 1462l-43 -205h-183l44 205h182z" />
    <glyph glyph-name="copyright" unicode="&#xa9;" horiz-adv-x="1679" 
d="M915 1389q-276 0 -467 -191q-91 -92 -141 -214t-50 -254q0 -184 96 -342t247 -237q151 -78 320 -78t325 97q155 96 232 250t77 325t-94 329t-245 236q-151 79 -300 79zM142 747q0 200 112 383q112 182 290 274q179 92 378 92t383 -113t274 -291t90 -378t-112 -382
q-112 -184 -290 -275q-179 -91 -377 -91t-382 112t-275 290t-91 379zM896 293q-208 0 -321 138q-96 117 -96 307t117.5 311t291.5 121t277 -78t115 -207h-136q-19 83 -82 128t-160 45q-151 0 -227 -115q-59 -88 -59 -225t77 -225t209 -88q222 0 250 236h135
q-14 -165 -117 -256.5t-274 -91.5z" />
    <glyph glyph-name="ordfeminine" unicode="&#xaa;" horiz-adv-x="768" 
d="M319 1037q0 -39 30.5 -63t80.5 -24q90 0 143 65q29 35 47 121l6 27q-39 -16 -123 -23t-118 -17q-66 -20 -66 -86zM411 862q-205 0 -205 179q0 164 276 183q86 6 110.5 10t43.5 18t19 64q0 70 -115 70q-68 0 -103.5 -25.5t-47.5 -83.5h-109q29 201 265 201
q106 0 163.5 -38t57.5 -109q0 -27 -15 -97l-41 -191q-9 -39 -9 -62t23 -23q12 0 36 6l-16 -86q-40 -13 -68 -13q-75 0 -85 71q-80 -74 -180 -74zM759 651h-652l16 73h652z" />
    <glyph glyph-name="guillemotleft" unicode="&#xab;" horiz-adv-x="904" 
d="M892 884l-39 -184l-245 -137l175 -192l-35 -165l-253 281l45 187zM494 883l-39 -182l-246 -139l176 -191l-35 -166l-254 282l46 188z" />
    <glyph glyph-name="logicalnot" unicode="&#xac;" 
d="M885 0v445h-766v167h951v-612h-185z" />
    <glyph glyph-name="uni00AD" unicode="&#xad;" horiz-adv-x="456" 
d="M521 628l-36 -168h-497l36 168h497z" />
    <glyph glyph-name="registered" unicode="&#xae;" horiz-adv-x="1679" 
d="M915 1389q-276 0 -467 -191q-91 -92 -141 -214t-50 -254q0 -184 96 -342t247 -237q151 -78 320 -78t325 97q155 96 232 250t77 325t-94 329t-245 236q-151 79 -300 79zM142 747q0 200 112 383q112 182 290 274q179 92 378 92t383 -113t274 -291t90 -378t-112 -382
q-112 -184 -290 -275q-179 -91 -377 -91t-382 112t-275 290t-91 379zM704 1036v-262h208q116 0 168 28t51 102q0 74 -43.5 103t-144.5 29h-239zM568 1151h411q113 0 178 -37q111 -66 111 -200t-125 -196q54 -21 81 -72q14 -26 18 -49.5t14 -128.5t32 -128l28 -29h-162
q-25 31 -29 117t-12.5 126t-28.5 67q-34 45 -160 45h-220v-355h-136v840z" />
    <glyph glyph-name="macron" unicode="&#xaf;" 
d="M1046 1410l-25 -120h-628l25 120h628z" />
    <glyph glyph-name="degree" unicode="&#xb0;" horiz-adv-x="874" 
d="M812 1136q0 92 -66 160q-66 67 -155 67t-157 -64t-68 -154t60 -161t157 -71q96 0 162.5 65.5t66.5 157.5zM598 1461q128 -1 221 -97t93 -228t-94 -227q-94 -94 -233 -94q-139 1 -229 99t-90 236t102 225q102 86 230 86z" />
    <glyph glyph-name="plusminus" unicode="&#xb1;" horiz-adv-x="1129" 
d="M152 183h951v-139h-951v139zM152 786h406v406h139v-406h406v-139h-406v-391h-139v391h-406v139z" />
    <glyph glyph-name="twosuperior" unicode="&#xb2;" horiz-adv-x="733" 
d="M684 1216q0 64 -42 102.5t-120 38.5t-128 -53.5t-57 -152.5h-120q2 97 52 175q87 136 269 136q119 0 196 -64t77 -175q0 -141 -147 -247q-40 -28 -164 -98t-161 -100t-74 -87l478 1l-23 -107h-600q8 140 114 240q64 61 212 142t193 133t45 116z" />
    <glyph glyph-name="threesuperior" unicode="&#xb3;" horiz-adv-x="733" 
d="M263 839q0 -166 177 -166q110 0 166 75q35 48 35 107q0 138 -170 138q-21 0 -59 -2l22 101q30 -1 45 -1q205 0 205 146q0 55 -40 87.5t-108 32.5q-160 0 -187 -174h-121q18 132 101.5 205.5t213.5 73.5t200 -64t70 -153q0 -144 -147 -202q105 -63 105 -173t-67 -191
q-93 -111 -269 -111q-133 0 -214 70.5t-81 186.5q0 17 2 44h122q-1 -18 -1 -30z" />
    <glyph glyph-name="acute" unicode="&#xb4;" 
d="M1048 1510l-345 -296h-122l243 296h224z" />
    <glyph glyph-name="mu" unicode="&#xb5;" horiz-adv-x="1125" 
d="M270 336q0 -95 62 -157t150 -62q147 -1 243 121t125 267l122 601h163l-223 -1106h-164l42 207q-135 -236 -339 -236q-89 0 -143.5 40t-87.5 127l-105 -521h-164l301 1489h164l-126 -621q-20 -101 -20 -149z" />
    <glyph glyph-name="paragraph" unicode="&#xb6;" horiz-adv-x="1129" 
d="M495 691q-143 0 -226 77.5t-83 207.5t70 250q70 121 185 178.5t297 57.5h519l-25 -117h-95l-373 -1753h-142l373 1753h-189l-372 -1753h-142l234 1100q-21 -1 -31 -1z" />
    <glyph glyph-name="glyph121" unicode="&#xb7;" horiz-adv-x="506" 
d="M423 658l-48 -227h-240l48 227h240z" />
    <glyph glyph-name="cedilla" unicode="&#xb8;" 
d="M526 -109q75 0 123 -41.5t48 -112.5t-68 -123t-168 -52t-212 45l38 73q85 -33 143 -33t89 23.5t31 59.5t-29 60t-67 24t-84 -14l-34 37l134 163h83l-94 -118q42 9 67 9z" />
    <glyph glyph-name="onesuperior" unicode="&#xb9;" horiz-adv-x="733" 
d="M376 1217q-58 0 -77 1l19 91q212 4 299 149h96l-186 -873h-131l139 651q-101 -19 -159 -19z" />
    <glyph glyph-name="ordmasculine" unicode="&#xba;" horiz-adv-x="739" 
d="M694 1210q0 176 -162 176q-80 0 -144 -76t-65 -189q0 -62 28 -106q40 -62 133 -62q94 0 152 83q58 84 58 174zM482 860q-272 0 -271 272q0 138 96.5 242.5t230.5 104.5t201 -64.5t67 -182.5q0 -160 -95 -266t-229 -106zM745 651h-652l16 73h652z" />
    <glyph glyph-name="guillemotright" unicode="&#xbb;" horiz-adv-x="904" 
d="M608 883l253 -280l-46 -188l-351 -209l38 182l245 139l-174 191zM210 881l250 -279l-40 -187l-354 -210l39 184l243 137l-173 193z" />
    <glyph glyph-name="onequarter" unicode="&#xbc;" horiz-adv-x="1839" 
d="M1529 300l82 388l-373 -388h291zM1771 307l-22 -100h-125l-44 -207h-123l44 207h-403l22 106l540 564h107l-122 -570h126zM1454 1445l-821 -1445h-118l820 1445h119zM376 1217q-58 0 -77 1l19 91q212 4 299 149h96l-186 -873h-131l139 651q-101 -19 -159 -19z" />
    <glyph glyph-name="onehalf" unicode="&#xbd;" horiz-adv-x="1839" 
d="M1667 631q0 64 -42 102.5t-120 38.5t-128.5 -54t-56.5 -152h-121q2 97 52 175q87 136 270 136q117 1 195 -63t78 -176q0 -141 -147 -247q-43 -31 -161 -97t-161 -100t-77 -88l478 1l-23 -107h-601q8 140 115 240q64 60 212 142t193 133.5t45 115.5zM1454 1445l-821 -1445
h-118l820 1445h119zM376 1217q-58 0 -77 1l19 91q212 4 299 149h96l-186 -873h-131l139 651q-101 -19 -159 -19z" />
    <glyph glyph-name="threequarters" unicode="&#xbe;" horiz-adv-x="1839" 
d="M1528 300l83 388l-374 -388h291zM1770 307l-21 -100h-125l-44 -207h-124l44 207h-403l23 106l539 564h107l-121 -570h125zM1453 1445l-820 -1445h-119l821 1445h118zM263 839q0 -166 177 -166q110 0 166 75q35 48 35 107q0 138 -170 138q-21 0 -59 -2l22 101q30 -1 45 -1
q205 0 205 146q0 55 -40 87.5t-108 32.5q-160 0 -187 -174h-121q18 132 101.5 205.5t213.5 73.5t200 -64t70 -153q0 -144 -147 -202q105 -63 105 -173t-67 -191q-93 -111 -269 -111q-133 0 -214 70.5t-81 186.5q0 17 2 44h122q-1 -18 -1 -30z" />
    <glyph glyph-name="questiondown" unicode="&#xbf;" horiz-adv-x="1060" 
d="M153 -63q0 -89 63 -149t179 -60q162 0 255 133q49 69 70 195h171q-17 -146 -75 -246q-136 -233 -430 -233q-188 0 -302 96q-114 95 -113 243q0 148 66 241t256 229q102 73 137 125t67 174h168q-33 -219 -114.5 -292t-193.5 -153t-158 -147t-46 -156zM507 855l44 205h214
l-43 -205h-215z" />
    <glyph glyph-name="Agrave" unicode="&#xc0;" horiz-adv-x="1347" 
d="M1029 1579h-132l-202 286h206zM862 1277l-392 -672h502zM1004 1462l261 -1462h-200l-70 447h-613l-260 -447h-219l884 1462h217z" />
    <glyph glyph-name="Aacute" unicode="&#xc1;" horiz-adv-x="1347" 
d="M1271 1866l-337 -287h-137l242 287h232zM862 1277l-392 -672h502zM1004 1462l261 -1462h-200l-70 447h-613l-260 -447h-219l884 1462h217z" />
    <glyph glyph-name="Acircumflex" unicode="&#xc2;" horiz-adv-x="1347" 
d="M1213 1579h-155l-102 180l-200 -180h-166l294 281h176zM862 1277l-392 -672h502zM1004 1462l261 -1462h-200l-70 447h-613l-260 -447h-219l884 1462h217z" />
    <glyph glyph-name="Atilde" unicode="&#xc3;" horiz-adv-x="1348" 
d="M1105 1601q-50 -1 -162 51t-137 52q-48 0 -94 -95h-106q66 224 204 224q36 0 65 -10.5t117 -51.5t114 -41q57 0 96 99h106q-67 -228 -203 -228zM862 1277l-392 -672h502zM1004 1462l261 -1462h-200l-70 447h-613l-260 -447h-219l884 1462h217z" />
    <glyph glyph-name="Adieresis" unicode="&#xc4;" horiz-adv-x="1348" 
d="M1291 1821l-44 -205h-190l43 205h191zM842 1821l-43 -205h-190l43 205h190zM862 1277l-392 -672h502zM1004 1462l261 -1462h-200l-70 447h-613l-260 -447h-219l884 1462h217z" />
    <glyph glyph-name="Aring" unicode="&#xc5;" horiz-adv-x="1347" 
d="M924 1868q-48 0 -79 -32t-31 -82t31 -82t79 -32t82.5 34t34.5 80t-34.5 80t-82.5 34zM934 1973q90 1 151 -67t61 -158t-67 -152q-67 -61 -157 -61t-152 66q-61 65 -61 157t67 154q68 62 158 61zM862 1277l-392 -672h502zM1004 1462l261 -1462h-200l-70 447h-613
l-260 -447h-219l884 1462h217z" />
    <glyph glyph-name="AE" unicode="&#xc6;" horiz-adv-x="1890" 
d="M1088 1297h-53l-505 -709h407zM2029 1462l-35 -164h-718l-100 -467h678l-34 -158h-677l-109 -509h732l-35 -164h-919l92 430h-488l-306 -430h-227l1070 1462h1076z" />
    <glyph glyph-name="Ccedilla" unicode="&#xc7;" horiz-adv-x="1437" 
d="M1289 1018q0 147 -115 240q-92 75 -244 75q-195 0 -339 -114q-143 -113 -205 -289t-62 -336q0 -246 141 -368q113 -98 281 -98t290 97.5t167 270.5h194q-42 -220 -223 -387q-70 -64 -187 -103.5t-236 -39.5q-14 0 -50 2l-70 -86q42 9 68 9q74 0 122 -41.5t48 -112.5
t-67.5 -123t-167.5 -52t-213 45l38 73q85 -33 143 -33t89 23.5t31 59.5t-29 60t-67 24t-84 -14l-34 37l116 139q-213 37 -334 166q-153 164 -153 455q0 172 54.5 337t150.5 282q226 278 594 278q312 0 459 -208q81 -113 84 -293h-191q1 16 1 25z" />
    <glyph glyph-name="Egrave" unicode="&#xc8;" horiz-adv-x="1239" 
d="M1020 1579h-132l-202 286h206zM1381 1462l-34 -164h-825l-99 -467h769l-33 -158h-770l-108 -509h835l-35 -164h-1022l311 1462h1011z" />
    <glyph glyph-name="Eacute" unicode="&#xc9;" horiz-adv-x="1239" 
d="M1229 1866l-337 -287h-137l242 287h232zM1381 1462l-34 -164h-825l-99 -467h769l-33 -158h-770l-108 -509h835l-35 -164h-1022l311 1462h1011z" />
    <glyph glyph-name="Ecircumflex" unicode="&#xca;" horiz-adv-x="1239" 
d="M1205 1579h-155l-102 180l-200 -180h-165l294 281h176zM1381 1462l-34 -164h-825l-99 -467h769l-33 -158h-770l-108 -509h835l-35 -164h-1022l311 1462h1011z" />
    <glyph glyph-name="Edieresis" unicode="&#xcb;" horiz-adv-x="1239" 
d="M1270 1821l-44 -205h-190l44 205h190zM822 1821l-44 -205h-190l43 205h191zM1381 1462l-34 -164h-825l-99 -467h769l-33 -158h-770l-108 -509h835l-35 -164h-1022l311 1462h1011z" />
    <glyph glyph-name="Igrave" unicode="&#xcc;" horiz-adv-x="483" 
d="M598 1579h-132l-202 286h206zM557 1462l-311 -1462h-187l311 1462h187z" />
    <glyph glyph-name="Iacute" unicode="&#xcd;" horiz-adv-x="483" 
d="M810 1866l-300 -287h-137l213 287h224zM557 1462l-311 -1462h-187l311 1462h187z" />
    <glyph glyph-name="Icircumflex" unicode="&#xce;" horiz-adv-x="483" 
d="M770 1579h-155l-87 180l-185 -180h-159l272 281h176zM557 1462l-311 -1462h-187l311 1462h187z" />
    <glyph glyph-name="Idieresis" unicode="&#xcf;" horiz-adv-x="483" 
d="M793 1821l-44 -205h-182l43 205h183zM469 1821l-44 -205h-182l43 205h183zM557 1462l-311 -1462h-187l311 1462h187z" />
    <glyph glyph-name="Eth" unicode="&#xd0;" horiz-adv-x="1421" 
d="M523 164q136 0 205 9t129 35q226 98 327 382q52 146 52 289q0 280 -186 375q-88 44 -280 44h-248l-98 -464h385l-31 -146h-386l-111 -524h242zM714 1462q238 0 326 -22q213 -54 312 -244q71 -136 71 -311t-58 -340.5t-159 -284.5q-187 -222 -377.5 -241t-346.5 -19h-423
l146 688h-146l31 146h146l134 628h344z" />
    <glyph glyph-name="Ntilde" unicode="&#xd1;" horiz-adv-x="1467" 
d="M1172 1601q-49 -1 -161 51t-138 52q-47 0 -94 -95h-105q66 224 203 224q37 0 66 -10.5t117 -51.5t114 -41q56 0 96 99h105q-67 -228 -203 -228zM1541 1462l-311 -1462h-217l-511 1203l-256 -1203h-187l311 1462h211l515 -1214l258 1214h187z" />
    <glyph glyph-name="Ograve" unicode="&#xd2;" horiz-adv-x="1555" 
d="M1140 1579h-131l-202 286h206zM913 1335q-229 0 -389 -172q-112 -121 -154 -276t-42 -278q0 -185 81 -305q119 -177 358 -177t403 187q102 118 146 268t44 266q0 223 -109 355t-338 132zM941 1495q221 0 379 -115q230 -168 230 -524t-216 -623t-570 -267t-517 242
q-110 164 -110 421t131 488q103 181 277.5 279.5t395.5 98.5z" />
    <glyph glyph-name="Oacute" unicode="&#xd3;" horiz-adv-x="1555" 
d="M1350 1866l-338 -287h-136l242 287h232zM913 1335q-229 0 -389 -172q-112 -121 -154 -276t-42 -278q0 -185 81 -305q119 -177 358 -177t403 187q102 118 146 268t44 266q0 223 -109 355t-338 132zM941 1495q221 0 379 -115q230 -168 230 -524t-216 -623t-570 -267
t-517 242q-110 164 -110 421t131 488q103 181 277.5 279.5t395.5 98.5z" />
    <glyph glyph-name="Ocircumflex" unicode="&#xd4;" horiz-adv-x="1555" 
d="M1306 1579h-156l-101 180l-200 -180h-166l294 281h176zM913 1335q-229 0 -389 -172q-112 -121 -154 -276t-42 -278q0 -185 81 -305q119 -177 358 -177t403 187q102 118 146 268t44 266q0 223 -109 355t-338 132zM941 1495q221 0 379 -115q230 -168 230 -524t-216 -623
t-570 -267t-517 242q-110 164 -110 421t131 488q103 181 277.5 279.5t395.5 98.5z" />
    <glyph glyph-name="Otilde" unicode="&#xd5;" horiz-adv-x="1555" 
d="M1194 1601q-50 -1 -162 51t-137 52q-50 0 -94 -95h-106q64 224 204 224q36 0 64.5 -10.5t116.5 -51.5t115 -41q57 0 96 99h106q-67 -228 -203 -228zM913 1335q-229 0 -389 -172q-112 -121 -154 -276t-42 -278q0 -185 81 -305q119 -177 358 -177t403 187q102 118 146 268
t44 266q0 223 -109 355t-338 132zM941 1495q221 0 379 -115q230 -168 230 -524t-216 -623t-570 -267t-517 242q-110 164 -110 421t131 488q103 181 277.5 279.5t395.5 98.5z" />
    <glyph glyph-name="Odieresis" unicode="&#xd6;" horiz-adv-x="1555" 
d="M1380 1821l-44 -205h-190l44 205h190zM931 1821l-43 -205h-191l44 205h190zM913 1335q-229 0 -389 -172q-112 -121 -154 -276t-42 -278q0 -185 81 -305q119 -177 358 -177t403 187q102 118 146 268t44 266q0 223 -109 355t-338 132zM941 1495q221 0 379 -115
q230 -168 230 -524t-216 -623t-570 -267t-517 242q-110 164 -110 421t131 488q103 181 277.5 279.5t395.5 98.5z" />
    <glyph glyph-name="multiply" unicode="&#xd7;" horiz-adv-x="1129" 
d="M217 404l313 313l-313 312l98 98l313 -312l313 312l98 -98l-313 -312l313 -313l-98 -99l-313 313l-313 -313z" />
    <glyph glyph-name="Oslash" unicode="&#xd8;" horiz-adv-x="1555" 
d="M768 129q205 0 368 152q103 97 164 250t61 329q0 83 -12 136.5t-45 115.5l-866 -862q60 -49 102 -70q100 -51 228 -51zM933 1336q-237 0 -399 -160q-111 -110 -160 -264t-49 -293q0 -140 47 -263l863 858q-38 53 -124 87.5t-178 34.5zM741 -32q-280 0 -442 168l-184 -177
l-83 88l193 178q-53 115 -72.5 194.5t-19.5 183.5q0 212 78 406q98 244 318 375q185 111 416 111q136 0 238.5 -38t198.5 -124l184 177l82 -87l-193 -184q96 -121 96 -388t-139 -496q-113 -187 -286.5 -287t-384.5 -100z" />
    <glyph glyph-name="Ugrave" unicode="&#xd9;" horiz-adv-x="1423" 
d="M1082 1579h-131l-203 286h206zM140 405q0 82 29 219l178 838h188l-182 -854q-28 -131 -28 -196q0 -144 100 -212t256 -68q262 0 366 158q52 80 102 312l182 860h187l-186 -877q-36 -169 -114.5 -392.5t-531.5 -223.5q-234 0 -375 96q-171 117 -171 340z" />
    <glyph glyph-name="Uacute" unicode="&#xda;" horiz-adv-x="1423" 
d="M1299 1866l-338 -287h-137l243 287h232zM140 405q0 82 29 219l178 838h188l-182 -854q-28 -131 -28 -196q0 -144 100 -212t256 -68q262 0 366 158q52 80 102 312l182 860h187l-186 -877q-36 -169 -114.5 -392.5t-531.5 -223.5q-234 0 -375 96q-171 117 -171 340z" />
    <glyph glyph-name="Ucircumflex" unicode="&#xdb;" horiz-adv-x="1423" 
d="M1262 1579h-155l-102 180l-200 -180h-165l293 281h176zM140 405q0 82 29 219l178 838h188l-182 -854q-28 -131 -28 -196q0 -144 100 -212t256 -68q262 0 366 158q52 80 102 312l182 860h187l-186 -877q-36 -169 -114.5 -392.5t-531.5 -223.5q-234 0 -375 96
q-171 117 -171 340z" />
    <glyph glyph-name="Udieresis" unicode="&#xdc;" horiz-adv-x="1423" 
d="M1328 1821l-43 -205h-190l43 205h190zM880 1821l-43 -205h-190l43 205h190zM140 405q0 82 29 219l178 838h188l-182 -854q-28 -131 -28 -196q0 -144 100 -212t256 -68q262 0 366 158q52 80 102 312l182 860h187l-186 -877q-36 -169 -114.5 -392.5t-531.5 -223.5
q-234 0 -375 96q-171 117 -171 340z" />
    <glyph glyph-name="Yacute" unicode="&#xdd;" horiz-adv-x="1199" 
d="M1173 1866l-338 -287h-136l242 287h232zM1464 1462l-714 -880l-124 -582h-187l127 597l-386 865h206l296 -699l554 699h228z" />
    <glyph glyph-name="Thorn" unicode="&#xde;" horiz-adv-x="1286" 
d="M696 541q137 0 200 11.5t113 47.5t82.5 102.5t32.5 138.5q0 137 -93 197q-63 41 -273 41h-282l-115 -538h335zM821 1243q231 0 315 -51q182 -110 181 -329q-1 -166 -97 -303t-271 -163q-92 -14 -251 -14h-370l-82 -383h-187l311 1462h187l-47 -219h311z" />
    <glyph glyph-name="germandbls" unicode="&#xdf;" horiz-adv-x="1100" 
d="M486 123q178 0 283 111q78 83 78 221t-94 202q-63 42 -190 42q-14 0 -42 -1l30 148q31 -2 45 -2q79 0 149 28.5t109 76.5q69 84 69 189q0 106 -63 150q-62 44 -138 44t-136 -29t-98 -87t-76 -248l-195 -968h-173l197 972q35 173 64.5 247t87.5 136q122 128 339 128
q178 0 273 -91q95 -92 95 -234t-82 -243t-225 -135q114 -24 176 -110t62 -232t-82 -262q-145 -204 -447 -204q-60 0 -126 9l30 150q42 -8 80 -8z" />
    <glyph glyph-name="agrave" unicode="&#xe0;" horiz-adv-x="1067" 
d="M799 1274h-117l-213 312h198zM194 284q0 -72 57 -122t143 -50q174 0 277 135q53 72 88 244l17 84q-40 -47 -214 -61t-234 -34q-62 -20 -98 -72t-36 -124zM616 1144q183 0 282 -70.5t99 -201.5q0 -52 -30 -190l-75 -372q-18 -81 -18 -115q0 -66 51 -66q21 0 51 8l-24 -139
q-59 -21 -116 -21t-94.5 34.5t-37.5 93.5q0 10 3 32q-47 -56 -88 -86q-109 -82 -265 -82q-156 -1 -246 83q-89 84 -89 232q0 185 150 281q102 64 293 79q192 15 277.5 31.5t85.5 154.5q0 88 -55.5 125.5t-159.5 37.5q-241 0 -285 -213h-168q17 126 83 211q120 153 376 153z
" />
    <glyph glyph-name="aacute" unicode="&#xe1;" horiz-adv-x="1068" 
d="M1010 1586l-345 -312h-122l243 312h224zM194 284q0 -72 57 -122t143 -50q174 0 277 135q53 72 88 244l17 84q-40 -47 -214 -61t-234 -34q-62 -20 -98 -72t-36 -124zM616 1144q183 0 282 -70.5t99 -201.5q0 -52 -30 -190l-75 -372q-18 -81 -18 -115q0 -66 51 -66
q21 0 51 8l-24 -139q-59 -21 -116 -21t-94.5 34.5t-37.5 93.5q0 10 3 32q-47 -56 -88 -86q-109 -82 -265 -82q-156 -1 -246 83q-89 84 -89 232q0 185 150 281q102 64 293 79q192 15 277.5 31.5t85.5 154.5q0 88 -55.5 125.5t-159.5 37.5q-241 0 -285 -213h-168
q17 126 83 211q120 153 376 153z" />
    <glyph glyph-name="acircumflex" unicode="&#xe2;" horiz-adv-x="1067" 
d="M961 1274h-154l-90 204l-194 -204h-166l288 310h176zM194 284q0 -72 57 -122t143 -50q174 0 277 135q53 72 88 244l17 84q-40 -47 -214 -61t-234 -34q-62 -20 -98 -72t-36 -124zM616 1144q183 0 282 -70.5t99 -201.5q0 -52 -30 -190l-75 -372q-18 -81 -18 -115
q0 -66 51 -66q21 0 51 8l-24 -139q-59 -21 -116 -21t-94.5 34.5t-37.5 93.5q0 10 3 32q-47 -56 -88 -86q-109 -82 -265 -82q-156 -1 -246 83q-89 84 -89 232q0 185 150 281q102 64 293 79q192 15 277.5 31.5t85.5 154.5q0 88 -55.5 125.5t-159.5 37.5q-241 0 -285 -213h-168
q17 126 83 211q120 153 376 153z" />
    <glyph glyph-name="atilde" unicode="&#xe3;" horiz-adv-x="1067" 
d="M836 1310q-29 0 -51 7t-108 53t-123 45q-57 0 -85 -101h-98q31 101 55 140q55 87 133 87q27 0 54 -10.5t117 -53.5t107 -43q65 0 96 106h99q-46 -130 -88.5 -180t-107.5 -50zM194 284q0 -72 57 -122t143 -50q174 0 277 135q53 72 88 244l17 84q-40 -47 -214 -61t-234 -34
q-62 -20 -98 -72t-36 -124zM616 1144q183 0 282 -70.5t99 -201.5q0 -52 -30 -190l-75 -372q-18 -81 -18 -115q0 -66 51 -66q21 0 51 8l-24 -139q-59 -21 -116 -21t-94.5 34.5t-37.5 93.5q0 10 3 32q-47 -56 -88 -86q-109 -82 -265 -82q-156 -1 -246 83q-89 84 -89 232
q0 185 150 281q102 64 293 79q192 15 277.5 31.5t85.5 154.5q0 88 -55.5 125.5t-159.5 37.5q-241 0 -285 -213h-168q17 126 83 211q120 153 376 153z" />
    <glyph glyph-name="adieresis" unicode="&#xe4;" horiz-adv-x="1067" 
d="M989 1536l-43 -215h-183l44 215h182zM632 1536l-44 -215h-183l44 215h183zM194 284q0 -72 57 -122t143 -50q174 0 277 135q53 72 88 244l17 84q-40 -47 -214 -61t-234 -34q-62 -20 -98 -72t-36 -124zM616 1144q183 0 282 -70.5t99 -201.5q0 -52 -30 -190l-75 -372
q-18 -81 -18 -115q0 -66 51 -66q21 0 51 8l-24 -139q-59 -21 -116 -21t-94.5 34.5t-37.5 93.5q0 10 3 32q-47 -56 -88 -86q-109 -82 -265 -82q-156 -1 -246 83q-89 84 -89 232q0 185 150 281q102 64 293 79q192 15 277.5 31.5t85.5 154.5q0 88 -55.5 125.5t-159.5 37.5
q-241 0 -285 -213h-168q17 126 83 211q120 153 376 153z" />
    <glyph glyph-name="aring" unicode="&#xe5;" horiz-adv-x="1067" 
d="M692 1562q-48 0 -79 -33.5t-31 -85.5t31 -85.5t79 -33.5t82.5 35t34.5 83t-34.5 84t-82.5 36zM702 1672q90 0 151 -71t61 -165t-67 -159q-67 -64 -157 -64q-90 -1 -152 69q-61 70 -61 166t67 160q68 64 158 64zM194 284q0 -72 57 -122t143 -50q174 0 277 135
q53 72 88 244l17 84q-40 -47 -214 -61t-234 -34q-62 -20 -98 -72t-36 -124zM616 1144q183 0 282 -70.5t99 -201.5q0 -52 -30 -190l-75 -372q-18 -81 -18 -115q0 -66 51 -66q21 0 51 8l-24 -139q-59 -21 -116 -21t-94.5 34.5t-37.5 93.5q0 10 3 32q-47 -56 -88 -86
q-109 -82 -265 -82q-156 -1 -246 83q-89 84 -89 232q0 185 150 281q102 64 293 79q192 15 277.5 31.5t85.5 154.5q0 88 -55.5 125.5t-159.5 37.5q-241 0 -285 -213h-168q17 126 83 211q120 153 376 153z" />
    <glyph glyph-name="ae" unicode="&#xe6;" horiz-adv-x="1741" 
d="M1552 720q0 107 -50 179q-64 94 -211 94t-248 -133q-65 -86 -88 -207h593q4 38 4 67zM198 289q0 -80 54 -124t142 -44t161 35.5t110 85.5t50 86.5t41 155.5l22 96q-35 -46 -351 -81q-119 -14 -174 -72t-55 -138zM621 1144q276 0 355 -175q58 75 117 113q96 62 235 62
q211 0 317 -147q78 -108 78 -276q0 -93 -28 -218h-768q-13 -62 -13 -117q0 -110 53 -178q69 -87 211 -87t239 113q44 52 67 116h177q-40 -120 -121 -212t-172 -130.5t-220 -38.5q-301 0 -368 246q-69 -119 -176 -182.5t-239 -63.5q-180 -1 -264 87t-84 216q0 80 49.5 185
t162.5 136t277 51t201.5 28.5t61.5 23.5q57 38 57 146q0 71 -55 111t-154 40q-234 0 -285 -210h-171q18 94 50.5 154.5t92.5 107.5q122 99 317 99z" />
    <glyph glyph-name="ccedilla" unicode="&#xe7;" horiz-adv-x="1062" 
d="M480 -114q75 0 123 -43.5t48 -118.5t-68 -129.5t-169 -54.5t-211 47l38 77q85 -34 143 -34t89 25t31 63t-29 62.5t-67 24.5t-84 -16l-34 39l117 151q-120 24 -192 90q-137 126 -137 367q0 116 35.5 241t94.5 213q167 254 465 254q197 0 295 -104t98 -253q0 -10 -1 -27
h-174q-4 160 -80 196t-156 36q-163 0 -274 -142q-57 -73 -91 -184.5t-34 -237.5t55 -207q69 -99 211 -99q218 0 300 242h182q-34 -130 -119 -230q-138 -165 -366 -165h-35l-71 -92q41 9 67 9z" />
    <glyph glyph-name="egrave" unicode="&#xe8;" horiz-adv-x="1098" 
d="M814 1274h-117l-213 312h199zM899 687q0 128 -47 202q-66 103 -204 103t-232 -89t-134 -250h616q1 27 1 34zM526 -31q-246 0 -360 163q-89 127 -89 311q0 115 55 313t270 323q112 65 247 65q196 0 307.5 -123.5t111.5 -340.5q0 -75 -15 -177h-795q-6 -40 -6 -76
q0 -120 54 -198q75 -109 225 -109q222 0 298 230h179q-24 -110 -99 -206q-137 -175 -383 -175z" />
    <glyph glyph-name="eacute" unicode="&#xe9;" horiz-adv-x="1099" 
d="M1040 1586l-345 -312h-122l243 312h224zM899 687q0 128 -47 202q-66 103 -204 103t-232 -89t-134 -250h616q1 27 1 34zM526 -31q-246 0 -360 163q-89 127 -89 311q0 115 55 313t270 323q112 65 247 65q196 0 307.5 -123.5t111.5 -340.5q0 -75 -15 -177h-795
q-6 -40 -6 -76q0 -120 54 -198q75 -109 225 -109q222 0 298 230h179q-24 -110 -99 -206q-137 -175 -383 -175z" />
    <glyph glyph-name="ecircumflex" unicode="&#xea;" horiz-adv-x="1098" 
d="M994 1274h-154l-90 204l-194 -204h-166l288 310h177zM899 687q0 128 -47 202q-66 103 -204 103t-232 -89t-134 -250h616q1 27 1 34zM526 -31q-246 0 -360 163q-89 127 -89 311q0 115 55 313t270 323q112 65 247 65q196 0 307.5 -123.5t111.5 -340.5q0 -75 -15 -177h-795
q-6 -40 -6 -76q0 -120 54 -198q75 -109 225 -109q222 0 298 230h179q-24 -110 -99 -206q-137 -175 -383 -175z" />
    <glyph glyph-name="edieresis" unicode="&#xeb;" horiz-adv-x="1098" 
d="M1026 1536l-43 -215h-183l44 215h182zM669 1536l-44 -215h-183l44 215h183zM899 687q0 128 -47 202q-66 103 -204 103t-232 -89t-134 -250h616q1 27 1 34zM526 -31q-246 0 -360 163q-89 127 -89 311q0 115 55 313t270 323q112 65 247 65q196 0 307.5 -123.5t111.5 -340.5
q0 -75 -15 -177h-795q-6 -40 -6 -76q0 -120 54 -198q75 -109 225 -109q222 0 298 230h179q-24 -110 -99 -206q-137 -175 -383 -175z" />
    <glyph glyph-name="igrave" unicode="&#xec;" horiz-adv-x="439" 
d="M489 1274h-117l-213 312h199zM442 1113l-225 -1113h-173l225 1113h173z" />
    <glyph glyph-name="iacute" unicode="&#xed;" horiz-adv-x="439" 
d="M718 1586l-308 -312h-123l214 312h217zM442 1113l-225 -1113h-173l225 1113h173z" />
    <glyph glyph-name="icircumflex" unicode="&#xee;" horiz-adv-x="439" 
d="M653 1274h-154l-67 204l-173 -204h-158l259 310h176zM442 1113l-225 -1113h-173l225 1113h173z" />
    <glyph glyph-name="idieresis" unicode="&#xef;" horiz-adv-x="439" 
d="M671 1536l-43 -215h-176l44 215h175zM387 1536l-44 -215h-175l43 215h176zM442 1113l-225 -1113h-173l225 1113h173z" />
    <glyph glyph-name="eth" unicode="&#xf0;" horiz-adv-x="1153" 
d="M667 993q-165 0 -282 -153q-130 -166 -130 -390q0 -110 51 -199q75 -130 244 -130t284 158q53 72 84.5 181t31.5 219q0 166 -80 240t-203 74zM1118 673q0 -296 -156 -500t-426 -204q-230 0 -350 140q-100 117 -100 357t116 413q180 264 464 264q77 0 126.5 -19t109.5 -72
q-39 116 -78 174l-163 -60l-41 98l155 61l-46 91l103 49l62 -98l175 65l49 -96l-171 -63q171 -304 171 -600z" />
    <glyph glyph-name="ntilde" unicode="&#xf1;" horiz-adv-x="1141" 
d="M876 1310q-29 0 -51 7.5t-108 52.5t-122 45q-58 0 -85 -101h-99q31 101 56 140q54 87 132 87q27 0 54 -10.5t117 -53.5t114 -43t49.5 28t39.5 78h99q-46 -131 -88 -180.5t-108 -49.5zM778 1144q114 0 197 -55q113 -72 113 -220q0 -67 -26 -198l-136 -671h-173l138 681
q19 94 19 163t-46 109t-136 40q-161 0 -277 -136q-80 -95 -117 -274l-117 -583h-173l225 1113h161l-36 -177q59 93 164.5 150.5t219.5 57.5z" />
    <glyph glyph-name="ograve" unicode="&#xf2;" horiz-adv-x="1153" 
d="M848 1274h-116l-213 312h198zM666 993q-168 0 -282 -145q-59 -76 -94 -183t-35 -219t51 -201q73 -125 245 -125t288 176q49 75 78 176.5t29 201.5q0 148 -75 233.5t-205 85.5zM674 1145q226 0 343 -134q103 -117 103 -331q0 -133 -41.5 -264.5t-115.5 -231.5
q-161 -217 -434 -217t-382 201q-65 120 -65 280t66 326t207 268.5t319 102.5z" />
    <glyph glyph-name="oacute" unicode="&#xf3;" horiz-adv-x="1153" 
d="M1089 1586l-345 -312h-122l243 312h224zM666 993q-168 0 -282 -145q-59 -76 -94 -183t-35 -219t51 -201q73 -125 245 -125t288 176q49 75 78 176.5t29 201.5q0 148 -75 233.5t-205 85.5zM674 1145q226 0 343 -134q103 -117 103 -331q0 -133 -41.5 -264.5t-115.5 -231.5
q-161 -217 -434 -217t-382 201q-65 120 -65 280t66 326t207 268.5t319 102.5z" />
    <glyph glyph-name="ocircumflex" unicode="&#xf4;" horiz-adv-x="1153" 
d="M1032 1274h-154l-90 204l-194 -204h-165l288 310h176zM666 993q-168 0 -282 -145q-59 -76 -94 -183t-35 -219t51 -201q73 -125 245 -125t288 176q49 75 78 176.5t29 201.5q0 148 -75 233.5t-205 85.5zM674 1145q226 0 343 -134q103 -117 103 -331q0 -133 -41.5 -264.5
t-115.5 -231.5q-161 -217 -434 -217t-382 201q-65 120 -65 280t66 326t207 268.5t319 102.5z" />
    <glyph glyph-name="otilde" unicode="&#xf5;" horiz-adv-x="1153" 
d="M907 1310q-29 0 -51 7t-108 53t-122 45q-57 0 -85 -101h-99q32 103 56 140q54 87 132 87q27 0 54 -10.5t117 -53.5t114 -43t50 28t39 78h99q-45 -131 -87.5 -180.5t-108.5 -49.5zM666 993q-168 0 -282 -145q-59 -76 -94 -183t-35 -219t51 -201q73 -125 245 -125t288 176
q49 75 78 176.5t29 201.5q0 148 -75 233.5t-205 85.5zM674 1145q226 0 343 -134q103 -117 103 -331q0 -133 -41.5 -264.5t-115.5 -231.5q-161 -217 -434 -217t-382 201q-65 120 -65 280t66 326t207 268.5t319 102.5z" />
    <glyph glyph-name="odieresis" unicode="&#xf6;" horiz-adv-x="1153" 
d="M1064 1536l-43 -215h-183l44 215h182zM707 1536l-44 -215h-182l43 215h183zM666 993q-168 0 -282 -145q-59 -76 -94 -183t-35 -219t51 -201q73 -125 245 -125t288 176q49 75 78 176.5t29 201.5q0 148 -75 233.5t-205 85.5zM674 1145q226 0 343 -134q103 -117 103 -331
q0 -133 -41.5 -264.5t-115.5 -231.5q-161 -217 -434 -217t-382 201q-65 120 -65 280t66 326t207 268.5t319 102.5z" />
    <glyph glyph-name="divide" unicode="&#xf7;" horiz-adv-x="1129" 
d="M152 786h951v-139h-951v139zM628 492q49 0 84 -35.5t35 -84.5t-34.5 -84t-84.5 -35t-85 35t-35 85t35.5 84.5t84.5 34.5zM628 1180q49 0 83.5 -36t34.5 -84t-35 -83t-84 -35t-84 35t-35 85t35.5 84t84.5 34z" />
    <glyph glyph-name="oslash" unicode="&#xf8;" horiz-adv-x="1153" 
d="M543 121q193 0 314 207q43 73 68 172.5t25 173.5t-18 129l-601 -601q26 -36 84 -58.5t128 -22.5zM680 992q-134 0 -229 -76t-149 -206.5t-54 -282.5q0 -63 26 -121l604 598q-64 88 -198 88zM1118 664q0 -164 -72 -332q-87 -205 -243 -296q-117 -70 -249 -70t-212 29.5
t-145 95.5l-143 -131l-72 84l151 143q-51 113 -51 281t82 342t245 267q119 67 247 67q254 0 353 -131l127 120l71 -83l-136 -127q47 -95 47 -259z" />
    <glyph glyph-name="ugrave" unicode="&#xf9;" horiz-adv-x="1125" 
d="M834 1274h-116l-213 312h198zM411 -31q-115 0 -200 56q-110 73 -110 229q0 64 25 187l136 672h173l-118 -578q-41 -210 -41 -259q0 -156 193 -156q144 0 251 131q45 54 71 116t46 162l118 584h173l-226 -1113h-160l34 171q-62 -97 -156 -149.5t-209 -52.5z" />
    <glyph glyph-name="uacute" unicode="&#xfa;" horiz-adv-x="1125" 
d="M1068 1586l-345 -312h-122l242 312h225zM411 -31q-115 0 -200 56q-110 73 -110 229q0 64 25 187l136 672h173l-118 -578q-41 -210 -41 -259q0 -156 193 -156q144 0 251 131q45 54 71 116t46 162l118 584h173l-226 -1113h-160l34 171q-62 -97 -156 -149.5t-209 -52.5z" />
    <glyph glyph-name="ucircumflex" unicode="&#xfb;" horiz-adv-x="1125" 
d="M1018 1274h-154l-90 204l-194 -204h-165l288 310h176zM411 -31q-115 0 -200 56q-110 73 -110 229q0 64 25 187l136 672h173l-118 -578q-41 -210 -41 -259q0 -156 193 -156q144 0 251 131q45 54 71 116t46 162l118 584h173l-226 -1113h-160l34 171q-62 -97 -156 -149.5
t-209 -52.5z" />
    <glyph glyph-name="udieresis" unicode="&#xfc;" horiz-adv-x="1125" 
d="M1047 1536l-44 -215h-182l43 215h183zM689 1536l-43 -215h-183l44 215h182zM411 -31q-115 0 -200 56q-110 73 -110 229q0 64 25 187l136 672h173l-118 -578q-41 -210 -41 -259q0 -156 193 -156q144 0 251 131q45 54 71 116t46 162l118 584h173l-226 -1113h-160l34 171
q-62 -97 -156 -149.5t-209 -52.5z" />
    <glyph glyph-name="yacute" unicode="&#xfd;" horiz-adv-x="912" 
d="M955 1586l-346 -312h-122l243 312h225zM24 -450q-56 0 -125 20l34 156q71 -24 103 -24q63 0 111.5 54t155.5 245l-186 1112h187l128 -876l444 876h192l-536 -1004q-151 -283 -223 -389q-115 -170 -285 -170z" />
    <glyph glyph-name="thorn" unicode="&#xfe;" horiz-adv-x="1194" 
d="M710 992q-170 0 -284 -154q-49 -66 -85.5 -193t-36.5 -217q0 -175 102 -254q72 -57 182 -57q175 1 285 167t110 387q-1 167 -79 244t-194 77zM755 1145q173 1 289 -119t115 -360q0 -240 -115 -433q-156 -265 -446 -265q-134 0 -222 56t-121 163l-124 -615h-173l383 1890
h172l-99 -488q130 171 341 171z" />
    <glyph glyph-name="ydieresis" unicode="&#xff;" horiz-adv-x="912" 
d="M941 1536l-44 -215h-183l44 215h183zM583 1536l-44 -215h-182l43 215h183zM24 -450q-56 0 -125 20l34 156q71 -24 111 -24t80 31q74 60 179 268l-186 1112h187l128 -876l444 876h192l-536 -1004q-151 -283 -223 -389q-115 -170 -285 -170z" />
    <glyph glyph-name="Amacron" unicode="&#x100;" horiz-adv-x="1348" 
d="M1296 1776l-26 -121h-672l26 121h672zM862 1277l-392 -672h502zM1004 1462l261 -1462h-200l-70 447h-613l-260 -447h-219l884 1462h217z" />
    <glyph glyph-name="amacron" unicode="&#x101;" horiz-adv-x="1067" 
d="M1024 1481l-26 -126h-628l26 126h628zM194 284q0 -72 57 -122t143 -50q174 0 277 135q53 72 88 244l17 84q-40 -47 -214 -61t-234 -34q-62 -20 -98 -72t-36 -124zM616 1144q183 0 282 -70.5t99 -201.5q0 -52 -30 -190l-75 -372q-18 -81 -18 -115q0 -66 51 -66q21 0 51 8
l-24 -139q-59 -21 -116 -21t-94.5 34.5t-37.5 93.5q0 10 3 32q-47 -56 -88 -86q-109 -82 -265 -82q-156 -1 -246 83q-89 84 -89 232q0 185 150 281q102 64 293 79q192 15 277.5 31.5t85.5 154.5q0 88 -55.5 125.5t-159.5 37.5q-241 0 -285 -213h-168q17 126 83 211
q120 153 376 153z" />
    <glyph glyph-name="Abreve" unicode="&#x102;" horiz-adv-x="1348" 
d="M916 1576q-123 0 -190.5 60.5t-67.5 169.5q0 21 3 55h104q-1 -15 -1 -23q0 -63 44.5 -101.5t116.5 -38.5q112 0 184 73q44 43 61 90h103q-28 -101 -89 -169q-104 -116 -268 -116zM862 1277l-392 -672h502zM1004 1462l261 -1462h-200l-70 447h-613l-260 -447h-219
l884 1462h217z" />
    <glyph glyph-name="abreve" unicode="&#x103;" horiz-adv-x="1068" 
d="M687 1284q-120 0 -182.5 64.5t-62.5 188.5q0 13 1 46h100q4 -85 29 -121q37 -55 127 -55q164 0 225 176h100q-80 -299 -337 -299zM194 284q0 -72 57 -122t143 -50q174 0 277 135q53 72 88 244l17 84q-40 -47 -214 -61t-234 -34q-62 -20 -98 -72t-36 -124zM616 1144
q183 0 282 -70.5t99 -201.5q0 -52 -30 -190l-75 -372q-18 -81 -18 -115q0 -66 51 -66q21 0 51 8l-24 -139q-59 -21 -116 -21t-94.5 34.5t-37.5 93.5q0 10 3 32q-47 -56 -88 -86q-109 -82 -265 -82q-156 -1 -246 83q-89 84 -89 232q0 185 150 281q102 64 293 79
q192 15 277.5 31.5t85.5 154.5q0 88 -55.5 125.5t-159.5 37.5q-241 0 -285 -213h-168q17 126 83 211q120 153 376 153z" />
    <glyph glyph-name="Aogonek" unicode="&#x104;" horiz-adv-x="1348" 
d="M862 1277l-392 -672h502zM1102 -196q0 -86 126 -86q37 0 84 14l-7 -95q-72 -22 -131 -22q-110 -1 -158 47t-48 112t41 114.5t143 111.5h-87l-70 447h-613l-260 -447h-219l884 1462h217l261 -1462q-97 -70 -130 -109.5t-33 -86.5z" />
    <glyph glyph-name="aogonek" unicode="&#x105;" horiz-adv-x="1067" 
d="M194 284q0 -72 57 -122t143 -50q174 0 277 135q53 72 88 244l17 84q-40 -47 -214 -61t-234 -34q-62 -20 -98 -72t-36 -124zM834 -405q-110 -1 -158 49t-48 118q0 121 164 221q-88 33 -88 123q0 9 3 31q-47 -56 -88 -86q-109 -82 -265 -82q-156 -1 -246 83q-89 84 -89 232
q0 186 150 281q105 66 295 80t275.5 30.5t85.5 154.5q0 88 -55.5 125.5t-159.5 37.5q-241 0 -285 -213h-168q17 126 83 210q120 154 376 154q183 0 282 -70.5t99 -201.5q0 -52 -30 -190l-75 -372q-18 -81 -18 -115q0 -66 51 -66q21 0 51 8l-24 -139q-31 -13 -62 -19
q-128 -87 -128 -185q0 -91 126 -91q36 0 83 16l-7 -101q-71 -23 -130 -23z" />
    <glyph glyph-name="Cacute" unicode="&#x106;" horiz-adv-x="1437" 
d="M1313 1866l-337 -287h-137l243 287h231zM738 -32q-286 0 -444 172t-157 464q0 168 55.5 332.5t152.5 283.5q223 275 591 275q268 0 421 -158q57 -59 89.5 -141.5t32.5 -169.5q0 -11 -1 -33h-188q-8 159 -81 238q-95 103 -291 103t-330 -114q-135 -114 -199 -286t-64 -356
t94 -302q119 -147 335 -147t344 154q73 88 106 214h196q-41 -179 -150 -310q-184 -219 -512 -219z" />
    <glyph glyph-name="cacute" unicode="&#x107;" horiz-adv-x="1062" 
d="M1059 1586l-345 -312h-123l243 312h225zM512 -32q-231 0 -343 153q-91 124 -91 315q0 117 35.5 241t94.5 213q167 254 465 254q197 0 295 -104t98 -253q0 -10 -1 -27h-174q-3 86 -31 136q-55 98 -211 97q-157 0 -268 -142q-57 -73 -91 -185t-34 -239t55 -207
q69 -99 211 -99q215 0 300 243h182q-49 -186 -179.5 -291t-312.5 -105z" />
    <glyph glyph-name="Ccircumflex" unicode="&#x108;" horiz-adv-x="1437" 
d="M1277 1579h-156l-102 180l-199 -180h-166l294 281h176zM738 -32q-286 0 -444 172t-157 464q0 168 55.5 332.5t152.5 283.5q223 275 591 275q268 0 421 -158q57 -59 89.5 -141.5t32.5 -169.5q0 -11 -1 -33h-188q-8 159 -81 238q-95 103 -291 103t-330 -114
q-135 -114 -199 -286t-64 -356t94 -302q119 -147 335 -147t344 154q73 88 106 214h196q-41 -179 -150 -310q-184 -219 -512 -219z" />
    <glyph glyph-name="ccircumflex" unicode="&#x109;" horiz-adv-x="1062" 
d="M987 1274h-154l-90 204l-194 -204h-165l288 310h176zM512 -32q-231 0 -343 153q-91 124 -91 315q0 117 35.5 241t94.5 213q167 254 465 254q197 0 295 -104t98 -253q0 -10 -1 -27h-174q-3 86 -31 136q-55 98 -211 97q-157 0 -268 -142q-57 -73 -91 -185t-34 -239t55 -207
q69 -99 211 -99q218 0 300 243h182q-49 -186 -179.5 -291t-312.5 -105z" />
    <glyph glyph-name="Cdotaccent" unicode="&#x10a;" horiz-adv-x="1437" 
d="M1119 1821l-43 -205h-191l44 205h190zM738 -32q-286 0 -444 172t-157 464q0 168 55.5 332.5t152.5 283.5q223 275 591 275q268 0 421 -158q57 -59 89.5 -141.5t32.5 -169.5q0 -11 -1 -33h-188q-8 159 -81 238q-95 103 -291 103t-330 -114q-135 -114 -199 -286t-64 -356
t94 -302q119 -147 335 -147t344 154q73 88 106 214h196q-41 -179 -150 -310q-184 -219 -512 -219z" />
    <glyph glyph-name="cdotaccent" unicode="&#x10b;" horiz-adv-x="1062" 
d="M866 1536l-43 -215h-183l44 215h182zM512 -32q-231 0 -343 153q-91 124 -91 315q0 117 35.5 241t94.5 213q167 254 465 254q197 0 295 -104t98 -253q0 -10 -1 -27h-174q-3 86 -31 136q-55 98 -211 97q-157 0 -268 -142q-57 -73 -91 -185t-34 -239t55 -207q69 -99 211 -99
q215 0 300 243h182q-49 -186 -179.5 -291t-312.5 -105z" />
    <glyph glyph-name="Ccaron" unicode="&#x10c;" horiz-adv-x="1437" 
d="M721 1860h155l102 -180l200 180h165l-293 -281h-176zM738 -32q-286 0 -444 172t-157 464q0 168 55.5 332.5t152.5 283.5q223 275 591 275q268 0 421 -158q57 -59 89.5 -141.5t32.5 -169.5q0 -11 -1 -33h-188q-8 159 -81 238q-95 103 -291 103t-330 -114
q-135 -114 -199 -286t-64 -356t94 -302q119 -147 335 -147t344 154q73 88 106 214h196q-41 -179 -150 -310q-184 -219 -512 -219z" />
    <glyph glyph-name="ccaron" unicode="&#x10d;" horiz-adv-x="1062" 
d="M1103 1583l-295 -309h-177l-143 309h156l92 -202l203 202h164zM512 -32q-231 0 -343 153q-91 124 -91 315q0 117 35.5 241t94.5 213q167 254 465 254q197 0 295 -104t98 -253q0 -10 -1 -27h-174q-3 86 -31 136q-55 98 -211 97q-157 0 -268 -142q-57 -73 -91 -185
t-34 -239t55 -207q69 -99 211 -99q215 0 300 243h182q-49 -186 -179.5 -291t-312.5 -105z" />
    <glyph glyph-name="Dcaron" unicode="&#x10e;" horiz-adv-x="1421" 
d="M603 1860h155l102 -180l200 180h165l-293 -281h-176zM523 164q136 0 205 9t128 35q226 98 327 381q52 146 52 289q0 281 -186 376q-87 44 -279 44h-248l-241 -1134h242zM714 1462q238 0 325 -22q213 -54 312 -244q71 -137 71 -312t-58 -340t-159 -284
q-187 -223 -377.5 -241.5t-346.5 -18.5h-422l311 1462h344z" />
    <glyph glyph-name="dcaron" unicode="&#x10f;" horiz-adv-x="1385" 
d="M1358 1139h-12l15 73q106 3 133 140h-104l37 183h188l-31 -158q-22 -105 -58 -155q-62 -83 -168 -83zM671 992q-207 0 -324 -198q-44 -73 -69.5 -174t-25.5 -200q0 -158 76 -228t188 -70q202 0 321 215q41 75 68 180.5t27 193.5q0 139 -75 210t-186 71zM482 -31
q-199 0 -305 118t-106 325q0 259 134 467q169 265 460 265q126 0 209.5 -51.5t113.5 -148.5l120 591h172l-310 -1535h-161l33 165q-42 -75 -130 -135t-230 -61z" />
    <glyph glyph-name="Dcroat" unicode="&#x110;" horiz-adv-x="1421" 
d="M523 164q136 0 205 9t129 35q226 98 327 382q52 146 52 289q0 280 -186 375q-88 44 -280 44h-248l-98 -464h385l-31 -146h-386l-111 -524h242zM714 1462q238 0 326 -22q213 -54 312 -244q71 -136 71 -311t-58 -340.5t-159 -284.5q-187 -222 -377.5 -241t-346.5 -19h-423
l146 688h-146l31 146h146l134 628h344z" />
    <glyph glyph-name="dcroat" unicode="&#x111;" horiz-adv-x="1192" 
d="M671 992q-207 0 -324 -198q-44 -73 -69.5 -174t-25.5 -200q0 -158 76 -228t188 -70q202 0 321 215q41 75 68 180.5t27 193.5q0 139 -75 210t-186 71zM482 -31q-199 0 -305 118t-106 325q0 259 134 467q169 265 460 265q126 0 209.5 -51.5t113.5 -148.5l64 314h-366
l27 134h366l14 70h172l-14 -70h147l-28 -134h-146l-254 -1258h-161l33 165q-42 -75 -130 -135t-230 -61z" />
    <glyph glyph-name="Emacron" unicode="&#x112;" horiz-adv-x="1239" 
d="M1277 1776l-25 -121h-672l25 121h672zM1381 1462l-34 -164h-825l-99 -467h769l-33 -158h-770l-108 -509h835l-35 -164h-1022l311 1462h1011z" />
    <glyph glyph-name="emacron" unicode="&#x113;" horiz-adv-x="1099" 
d="M1061 1481l-26 -126h-628l26 126h628zM899 687q0 128 -47 202q-66 103 -204 103t-232 -89t-134 -250h616q1 27 1 34zM526 -31q-246 0 -360 163q-89 127 -89 311q0 115 55 313t270 323q112 65 247 65q196 0 307.5 -123.5t111.5 -340.5q0 -75 -15 -177h-795q-6 -40 -6 -76
q0 -120 54 -198q75 -109 225 -109q222 0 298 230h179q-24 -110 -99 -206q-137 -175 -383 -175z" />
    <glyph glyph-name="Ebreve" unicode="&#x114;" horiz-adv-x="1239" 
d="M885 1576q-122 0 -189.5 60.5t-67.5 169.5q0 18 3 55h104q-1 -14 -1 -23q0 -63 44 -101.5t117 -38.5q111 0 184 73q44 43 61 90h103q-28 -101 -89 -169q-104 -116 -269 -116zM1381 1462l-34 -164h-825l-99 -467h769l-33 -158h-770l-108 -509h835l-35 -164h-1022l311 1462
h1011z" />
    <glyph glyph-name="ebreve" unicode="&#x115;" horiz-adv-x="1098" 
d="M717 1284q-120 0 -182.5 64.5t-62.5 188.5q0 13 2 46h99q4 -85 29 -121q38 -55 127 -55q164 0 225 176h100q-80 -299 -337 -299zM899 687q0 128 -47 202q-66 103 -204 103t-232 -89t-134 -250h616q1 27 1 34zM526 -31q-246 0 -360 163q-89 127 -89 311q0 115 55 313
t270 323q112 65 247 65q196 0 307.5 -123.5t111.5 -340.5q0 -75 -15 -177h-795q-6 -40 -6 -76q0 -120 54 -198q75 -109 225 -109q222 0 298 230h179q-24 -110 -99 -206q-137 -175 -383 -175z" />
    <glyph glyph-name="Edotaccent" unicode="&#x116;" horiz-adv-x="1239" 
d="M1038 1821l-44 -205h-190l44 205h190zM1381 1462l-34 -164h-825l-99 -467h769l-33 -158h-770l-108 -509h835l-35 -164h-1022l311 1462h1011z" />
    <glyph glyph-name="edotaccent" unicode="&#x117;" horiz-adv-x="1098" 
d="M844 1536l-44 -215h-182l43 215h183zM899 687q0 128 -47 202q-66 103 -204 103t-232 -89t-134 -250h616q1 27 1 34zM526 -31q-246 0 -360 163q-89 127 -89 311q0 115 55 313t270 323q112 65 247 65q196 0 307.5 -123.5t111.5 -340.5q0 -75 -15 -177h-795q-6 -40 -6 -76
q0 -120 54 -198q75 -109 225 -109q222 0 298 230h179q-24 -110 -99 -206q-137 -175 -383 -175z" />
    <glyph glyph-name="Eogonek" unicode="&#x118;" horiz-adv-x="1239" 
d="M918 -196q0 -86 126 -86q37 0 84 14l-8 -95q-71 -22 -130 -22q-110 -1 -158 47t-48 112t41 114.5t143 111.5h-909l311 1462h1011l-34 -164h-825l-99 -467h769l-33 -158h-770l-108 -509h835l-35 -164q-98 -71 -130.5 -110t-32.5 -86z" />
    <glyph glyph-name="eogonek" unicode="&#x119;" horiz-adv-x="1098" 
d="M899 687q0 128 -47 202q-66 103 -204 103t-232 -89t-134 -250h616q1 27 1 34zM681 -405q-111 -1 -159 49t-48 115t35 113.5t121 105.5q-68 -9 -115 -9q-235 0 -349 164q-89 127 -89 310q0 115 55 313t270 323q112 65 247 65q196 0 307.5 -123.5t111.5 -340.5
q0 -75 -15 -177h-795q-6 -39 -6 -75q0 -121 54 -198q75 -109 225 -109q222 0 298 229h179q-21 -98 -86 -188q-33 -47 -62.5 -75.5t-140.5 -118.5t-111 -178t126 -87q38 0 84 16l-8 -101q-70 -23 -129 -23z" />
    <glyph glyph-name="Ecaron" unicode="&#x11a;" horiz-adv-x="1239" 
d="M659 1860h155l102 -180l199 180h166l-294 -281h-176zM1381 1462l-34 -164h-825l-99 -467h769l-33 -158h-770l-108 -509h835l-35 -164h-1022l311 1462h1011z" />
    <glyph glyph-name="ecaron" unicode="&#x11b;" horiz-adv-x="1098" 
d="M1081 1583l-295 -309h-177l-143 309h156l92 -202l202 202h165zM899 687q0 128 -47 202q-66 103 -204 103t-232 -89t-134 -250h616q1 27 1 34zM526 -31q-246 0 -360 163q-89 127 -89 311q0 115 55 313t270 323q112 65 247 65q196 0 307.5 -123.5t111.5 -340.5
q0 -75 -15 -177h-795q-6 -40 -6 -76q0 -120 54 -198q75 -109 225 -109q222 0 298 230h179q-24 -110 -99 -206q-137 -175 -383 -175z" />
    <glyph glyph-name="Gcircumflex" unicode="&#x11c;" horiz-adv-x="1530" 
d="M1302 1579h-156l-102 180l-199 -180h-166l294 281h176zM137 601q-1 243 99 453t284.5 325.5t447.5 115.5t414 -147q132 -128 138 -332h-191q-10 125 -65 193q-102 124 -323 124q-264 0 -436 -198q-87 -99 -133 -249t-45 -290q0 -230 130 -358q109 -109 311 -109
t329.5 119t188.5 372h-468l34 158h640l-166 -778h-123l-3 95q-3 43 -4 65q-167 -193 -455 -193t-446 167t-158 467z" />
    <glyph glyph-name="gcircumflex" unicode="&#x11d;" horiz-adv-x="1178" 
d="M1066 1274h-154l-90 204l-194 -204h-165l288 310h176zM642 994q-118 0 -203 -76q-114 -99 -162 -292q-25 -97 -25 -182q0 -159 90 -238q70 -62 175 -62q187 0 299 196q87 154 87 380q0 115 -71.5 194.5t-189.5 79.5zM-10 -124v13h178q11 -86 49 -129q67 -74 227 -74
t251 117q27 34 56.5 112t44.5 155l19 93q-119 -174 -339 -174q-141 0 -247 87q-150 125 -150 363q0 136 46.5 276.5t121.5 234.5t176.5 144t220.5 50t207 -60.5t127 -173.5l41 203h161l-190 -936q-36 -179 -108.5 -407t-462.5 -228q-305 0 -367 136.5t-62 197.5z" />
    <glyph glyph-name="Gbreve" unicode="&#x11e;" horiz-adv-x="1530" 
d="M1014 1576q-122 0 -190 60.5t-68 168.5q0 21 4 56h104q0 -163 160 -163q112 0 184 72q44 44 61 91h103q-28 -101 -89 -169q-104 -116 -269 -116zM137 601q-1 243 99 453t284.5 325.5t447.5 115.5t414 -147q132 -128 138 -332h-191q-10 125 -65 193q-102 124 -323 124
q-264 0 -436 -198q-87 -99 -133 -249t-45 -290q0 -230 130 -358q109 -109 311 -109t329.5 119t188.5 372h-468l34 158h640l-166 -778h-123l-3 95q-3 43 -4 65q-167 -193 -455 -193t-446 167t-158 467z" />
    <glyph glyph-name="gbreve" unicode="&#x11f;" horiz-adv-x="1178" 
d="M781 1284q-121 0 -183.5 64.5t-62.5 188.5q0 13 2 46h99q4 -85 29 -121q37 -55 127 -55q163 0 226 176h99q-78 -299 -336 -299zM642 994q-118 0 -203 -76q-114 -99 -162 -292q-25 -97 -25 -182q0 -159 90 -238q70 -62 175 -62q187 0 299 196q87 154 87 380
q0 115 -71.5 194.5t-189.5 79.5zM-10 -124v13h178q11 -86 49 -129q67 -74 227 -74t251 117q27 34 56.5 112t44.5 155l19 93q-119 -174 -339 -174q-141 0 -247 87q-150 125 -150 363q0 136 46.5 276.5t121.5 234.5t176.5 144t220.5 50t207 -60.5t127 -173.5l41 203h161
l-190 -936q-36 -179 -108.5 -407t-462.5 -228q-305 0 -367 136.5t-62 197.5z" />
    <glyph glyph-name="Gdotaccent" unicode="&#x120;" horiz-adv-x="1530" 
d="M1144 1821l-43 -205h-191l44 205h190zM137 601q-1 243 99 453t284.5 325.5t447.5 115.5t414 -147q132 -128 138 -332h-191q-10 125 -65 193q-102 124 -323 124q-264 0 -436 -198q-87 -99 -133 -249t-45 -290q0 -230 130 -358q109 -109 311 -109t329.5 119t188.5 372h-468
l34 158h640l-166 -778h-123l-3 95q-3 43 -4 65q-167 -193 -455 -193t-446 167t-158 467z" />
    <glyph glyph-name="gdotaccent" unicode="&#x121;" horiz-adv-x="1178" 
d="M909 1536l-44 -215h-183l44 215h183zM642 994q-118 0 -203 -76q-114 -99 -162 -292q-25 -97 -25 -182q0 -159 90 -238q70 -62 175 -62q187 0 299 196q87 154 87 380q0 115 -71.5 194.5t-189.5 79.5zM-10 -124v13h178q11 -86 49 -129q67 -74 227 -74t251 117
q27 34 56.5 112t44.5 155l19 93q-119 -174 -339 -174q-141 0 -247 87q-150 125 -150 363q0 136 46.5 276.5t121.5 234.5t176.5 144t220.5 50t207 -60.5t127 -173.5l41 203h161l-190 -936q-36 -179 -108.5 -407t-462.5 -228q-305 0 -367 136.5t-62 197.5z" />
    <glyph glyph-name="Gcommaaccent" unicode="&#x122;" horiz-adv-x="1530" 
d="M819 -124l-32 -151q-25 -119 -81.5 -173t-155.5 -53l15 69q106 3 133 134h-105l37 174h189zM137 601q-1 243 99 453t284.5 325.5t447.5 115.5t414 -147q132 -128 138 -332h-191q-10 125 -65 193q-102 124 -323 124q-264 0 -436 -198q-87 -99 -133 -249t-45 -290
q0 -230 130 -358q109 -109 311 -109t329.5 119t188.5 372h-468l34 158h640l-166 -778h-123l-3 95q-3 43 -4 65q-167 -193 -455 -193t-446 167t-158 467z" />
    <glyph glyph-name="gcommaaccent" unicode="&#x123;" horiz-adv-x="1178" 
d="M670 1277l32 158q44 240 237 238l-15 -73q-107 -3 -133 -140h105l-37 -183h-189zM642 994q-118 0 -203 -76q-114 -99 -162 -292q-25 -97 -25 -182q0 -159 90 -238q70 -62 175 -62q187 0 299 196q87 154 87 380q0 115 -71.5 194.5t-189.5 79.5zM-10 -124v13h178
q11 -86 49 -129q67 -74 227 -74t251 117q27 34 56.5 112t44.5 155l19 93q-119 -174 -339 -174q-141 0 -247 87q-150 125 -150 363q0 136 46.5 276.5t121.5 234.5t176.5 144t220.5 50t207 -60.5t127 -173.5l41 203h161l-190 -936q-36 -179 -108.5 -407t-462.5 -228
q-305 0 -367 136.5t-62 197.5z" />
    <glyph glyph-name="Hcircumflex" unicode="&#x124;" horiz-adv-x="1445" 
d="M1259 1579h-156l-102 180l-199 -180h-166l294 281h176zM1519 1462l-311 -1462h-187l144 680h-774l-145 -680h-187l311 1462h187l-132 -618h775l132 618h187z" />
    <glyph glyph-name="hcircumflex" unicode="&#x125;" horiz-adv-x="1141" 
d="M973 1582h-156l-102 179l-199 -179h-166l294 280h176zM796 1090q124 0 207 -73t83 -194q0 -69 -25 -187l-135 -636h-173l132 622q24 110 24 161q0 162 -181 162q-81 0 -160.5 -41.5t-139.5 -117.5t-93 -228l-118 -558h-173l296 1465h173l-105 -565q89 101 176.5 145.5
t211.5 44.5z" />
    <glyph glyph-name="Hbar" unicode="&#x126;" horiz-adv-x="1445" 
d="M480 1104l-56 -260h775l56 260h-775zM1473 1250h146l-31 -146h-146l-235 -1104h-187l145 680h-775l-145 -680h-187l235 1104h-147l32 146h146l45 212h187l-45 -212h775l45 212h187z" />
    <glyph glyph-name="hbar" unicode="&#x127;" horiz-adv-x="1141" 
d="M795 1144q124 0 207.5 -76.5t83.5 -203.5q0 -73 -25 -196l-135 -668h-173l132 653q24 115 24 169q0 170 -180 170q-82 0 -162 -43t-140 -123t-92 -240l-118 -586h-173l255 1258h-146l27 134h146l14 70h172l-13 -70h365l-27 -134h-366l-63 -313q89 106 176 152.5t211 46.5
z" />
    <glyph glyph-name="Itilde" unicode="&#x128;" horiz-adv-x="483" 
d="M666 1601q-50 -1 -162 51t-137 52q-48 0 -94 -95h-106q66 224 204 224q36 0 64.5 -10.5t116.5 -51.5t115 -41q57 0 96 99h106q-67 -228 -203 -228zM557 1462l-311 -1462h-187l311 1462h187z" />
    <glyph glyph-name="itilde" unicode="&#x129;" horiz-adv-x="439" 
d="M558 1310q-29 0 -51 7.5t-108 52.5t-122 45q-59 0 -85 -101h-99q37 125 79.5 176t108.5 51q27 0 54 -10.5t117 -53.5t114 -43t49.5 28t39.5 78h99q-46 -130 -88.5 -180t-107.5 -50zM442 1113l-225 -1113h-173l225 1113h173z" />
    <glyph glyph-name="Imacron" unicode="&#x12a;" horiz-adv-x="483" 
d="M785 1776l-25 -121h-511l25 121h511zM557 1462l-311 -1462h-187l311 1462h187z" />
    <glyph glyph-name="imacron" unicode="&#x12b;" horiz-adv-x="439" 
d="M656 1481l-25 -126h-453l26 126h452zM442 1113l-225 -1113h-173l225 1113h173z" />
    <glyph glyph-name="Ibreve" unicode="&#x12c;" horiz-adv-x="483" 
d="M462 1576q-123 0 -190.5 60.5t-67.5 169.5q0 20 4 55h104q-2 -16 -2 -23q0 -63 44.5 -101.5t116.5 -38.5q112 0 185 73q43 43 60 90h103q-28 -101 -89 -169q-104 -116 -268 -116zM557 1462l-311 -1462h-187l311 1462h187z" />
    <glyph glyph-name="ibreve" unicode="&#x12d;" horiz-adv-x="439" 
d="M419 1290q-117 0 -175 63.5t-58 179.5q0 12 1 42h100v-17q0 -68 36.5 -108t95.5 -40t110.5 46t77.5 119h100q-18 -94 -81 -173q-90 -112 -207 -112zM442 1113l-225 -1113h-173l225 1113h173z" />
    <glyph glyph-name="Iogonek" unicode="&#x12e;" horiz-adv-x="483" 
d="M98 -196q0 -39 28 -62.5t66 -23.5t86 14l-7 -95q-72 -22 -137 -22t-117.5 44t-52.5 114q0 122 177 227h-82l311 1462h187l-311 -1462q-148 -102 -148 -196z" />
    <glyph glyph-name="iogonek" unicode="&#x12f;" horiz-adv-x="439" 
d="M528 1535l-46 -224h-173l46 224h173zM83 -204q0 -40 27 -65.5t60 -25.5t79 14l-8 -101q-73 -22 -131 -22t-109.5 47.5t-51.5 115.5t39 120.5t138 120.5h-82l225 1113h173l-225 -1113q-74 -71 -104 -117.5t-30 -86.5z" />
    <glyph glyph-name="Idotaccent" unicode="&#x130;" horiz-adv-x="483" 
d="M635 1821l-44 -205h-190l44 205h190zM557 1462l-311 -1462h-187l311 1462h187z" />
    <glyph glyph-name="dotlessi" unicode="&#x131;" horiz-adv-x="439" 
d="M442 1113l-225 -1113h-173l225 1113h173z" />
    <glyph glyph-name="IJ" unicode="&#x132;" horiz-adv-x="1494" 
d="M920 -35q-236 0 -337 120q-74 88 -74 228q0 75 19 167h186q-20 -111 -20 -158q0 -193 211 -193q126 0 196 84q48 58 93 267l208 982h188l-203 -954q-34 -162 -60 -242t-61 -133q-110 -168 -346 -168zM557 1462l-311 -1462h-187l311 1462h187z" />
    <glyph glyph-name="ij" unicode="&#x133;" horiz-adv-x="884" 
d="M972 1535l-46 -224h-172l45 224h173zM352 -450q-52 0 -105 14l32 154q32 -16 79 -16t67.5 44t66.5 270l222 1097h172l-239 -1179q-42 -199 -72 -261q-60 -123 -223 -123zM528 1535l-46 -224h-173l46 224h173zM442 1113l-225 -1113h-173l225 1113h173z" />
    <glyph glyph-name="Jcircumflex" unicode="&#x134;" horiz-adv-x="984" 
d="M1302 1579h-156l-102 180l-199 -180h-166l294 281h176zM410 -35q-235 0 -336 120q-74 88 -74 228q0 74 18 167h186q-19 -111 -19 -157q0 -194 211 -194q125 0 196 84q47 57 92 267l209 982h187l-203 -954q-34 -162 -60 -242t-60 -133q-112 -168 -347 -168z" />
    <glyph glyph-name="jcircumflex" unicode="&#x135;" horiz-adv-x="418" 
d="M665 1274h-154l-90 204l-194 -204h-165l288 310h176zM-113 -450q-52 0 -105 14l32 154q34 -16 80 -16t66.5 44.5t66.5 269.5l222 1097h172l-239 -1179q-42 -199 -72 -261q-60 -123 -223 -123z" />
    <glyph glyph-name="Kcommaaccent" unicode="&#x136;" horiz-adv-x="1321" 
d="M670 -124l-32 -151q-44 -229 -237 -226l15 69q107 3 133 134h-105l37 174h189zM1502 1462l-706 -600l473 -862h-217l-400 745l-301 -250l-105 -495h-187l311 1462h187l-155 -729l839 729h261z" />
    <glyph glyph-name="kcommaaccent" unicode="&#x137;" horiz-adv-x="999" 
d="M516 -130l-32 -158q-25 -126 -81.5 -182.5t-155.5 -55.5l15 73q107 2 133 140h-105l37 183h189zM512 1462l-170 -840l545 490h235l-468 -408l263 -704h-195l-206 590l-219 -192l-80 -398h-173l296 1462h172z" />
    <glyph glyph-name="kgreenlandic" unicode="&#x138;" horiz-adv-x="999" 
d="M442 1060l-100 -468l545 467h235l-468 -388l263 -671h-195l-206 562l-219 -183l-80 -379h-173l225 1060h173z" />
    <glyph glyph-name="Lacute" unicode="&#x139;" horiz-adv-x="1141" 
d="M844 1866l-338 -287h-137l243 287h232zM557 1462l-276 -1298h784l-35 -164h-971l311 1462h187z" />
    <glyph glyph-name="lacute" unicode="&#x13a;" horiz-adv-x="439" 
d="M778 1886l-301 -301h-130l213 301h218zM513 1462l-296 -1462h-173l296 1462h173z" />
    <glyph glyph-name="Lcommaaccent" unicode="&#x13b;" horiz-adv-x="1141" 
d="M613 -124l-32 -151q-45 -229 -237 -226l14 69q107 3 133 134h-104l37 174h189zM557 1462l-276 -1298h784l-35 -164h-971l311 1462h187z" />
    <glyph glyph-name="lcommaaccent" unicode="&#x13c;" horiz-adv-x="439" 
d="M200 -130l-32 -158q-44 -242 -237 -238l15 73q105 3 133 140h-105l37 183h189zM513 1462l-296 -1462h-173l296 1462h173z" />
    <glyph glyph-name="Lcaron" unicode="&#x13d;" horiz-adv-x="1141" 
d="M768 1085h-13l15 69q105 5 133 134h-105l37 174h189l-32 -151q-21 -99 -58 -146q-62 -80 -166 -80zM557 1462l-276 -1298h784l-35 -164h-971l311 1462h187z" />
    <glyph glyph-name="lcaron" unicode="&#x13e;" horiz-adv-x="632" 
d="M605 1139h-11l14 73q105 3 133 140h-104l37 183h189l-32 -158q-21 -105 -58 -155q-62 -83 -168 -83zM513 1462l-296 -1462h-173l296 1462h173z" />
    <glyph glyph-name="Ldot" unicode="&#x13f;" horiz-adv-x="1141" 
d="M1038 837l-52 -254h-256l52 254h256zM542 1462l-261 -1290h784l-35 -172h-971l296 1462h187z" />
    <glyph glyph-name="ldot" unicode="&#x140;" horiz-adv-x="695" 
d="M796 837l-52 -254h-256l52 254h256zM513 1462l-296 -1462h-173l296 1462h173z" />
    <glyph glyph-name="Lslash" unicode="&#x141;" horiz-adv-x="1141" 
d="M382 643l-102 -479h784l-35 -164h-971l121 566l-170 -106l39 179l169 106l152 717h187l-135 -639l391 247l-38 -180z" />
    <glyph glyph-name="lslash" unicode="&#x142;" horiz-adv-x="439" 
d="M353 674l-137 -674h-172l122 604l-150 -98l35 173l150 98l139 685h172l-124 -615l150 98l-35 -173z" />
    <glyph glyph-name="Nacute" unicode="&#x143;" horiz-adv-x="1467" 
d="M1314 1866l-338 -287h-136l242 287h232zM1541 1462l-311 -1462h-217l-511 1203l-256 -1203h-187l311 1462h211l515 -1214l258 1214h187z" />
    <glyph glyph-name="nacute" unicode="&#x144;" horiz-adv-x="1141" 
d="M1054 1586l-345 -312h-122l242 312h225zM778 1144q114 0 197 -55q113 -72 113 -220q0 -67 -26 -198l-136 -671h-173l138 681q19 94 19 163t-46 109t-136 40q-161 0 -277 -136q-80 -95 -117 -274l-117 -583h-173l225 1113h161l-36 -177q59 93 164.5 150.5t219.5 57.5z" />
    <glyph glyph-name="Ncommaaccent" unicode="&#x145;" horiz-adv-x="1467" 
d="M700 -124l-32 -151q-26 -119 -82 -173t-156 -53l15 69q107 3 133 134h-104l37 174h189zM1541 1462l-311 -1462h-217l-511 1203l-256 -1203h-187l311 1462h211l515 -1214l258 1214h187z" />
    <glyph glyph-name="ncommaaccent" unicode="&#x146;" horiz-adv-x="1141" 
d="M551 -130l-32 -158q-26 -126 -82 -182.5t-155 -55.5l14 73q107 2 133 140h-104l37 183h189zM777 1144q113 0 198 -55q113 -72 113 -220q0 -68 -26 -198l-136 -671h-173l138 681q19 94 19 163t-46 109t-136 40q-161 0 -277 -136q-80 -95 -117 -275l-117 -582h-173
l225 1113h161l-36 -177q58 92 164 150t219 58z" />
    <glyph glyph-name="Ncaron" unicode="&#x147;" horiz-adv-x="1467" 
d="M736 1860h155l102 -180l200 180h166l-294 -281h-176zM1541 1462l-311 -1462h-217l-511 1203l-256 -1203h-187l311 1462h211l515 -1214l258 1214h187z" />
    <glyph glyph-name="ncaron" unicode="&#x148;" horiz-adv-x="1141" 
d="M1091 1583l-295 -309h-177l-143 309h156l92 -202l202 202h165zM778 1144q114 0 197 -55q113 -72 113 -220q0 -67 -26 -198l-136 -671h-173l138 681q19 94 19 163t-46 109t-136 40q-161 0 -277 -136q-80 -95 -117 -274l-117 -583h-173l225 1113h161l-36 -177
q59 93 164.5 150.5t219.5 57.5z" />
    <glyph glyph-name="napostrophe" unicode="&#x149;" horiz-adv-x="1586" 
d="M1222 1089q113 0 198 -52q113 -69 113 -209q0 -61 -27 -189l-136 -639h-173l138 648q20 94 20 158q-1 64 -47 102t-136 37q-161 0 -277 -130q-80 -90 -116 -260l-118 -555h-173l226 1060h160l-35 -169q57 88 163.5 143t219.5 55zM591 1462l-40 -190q-46 -215 -146 -283
q-70 -48 -157 -48l21 100q71 10 103.5 51t57.5 151h-119l46 219h234z" />
    <glyph glyph-name="Eng" unicode="&#x14a;" horiz-adv-x="1442" 
d="M999 1496q207 0 301 -110q67 -78 67 -199q0 -77 -29 -220l-201 -994q-31 -152 -71 -276t-280 -124q-35 0 -73 7l30 148q31 -8 57 -8q77 0 99.5 36t58.5 216l186 915q34 169 34 243t-61 141t-203 67q-184 0 -323 -121q-81 -71 -126.5 -173t-86.5 -303l-150 -741h-178
l296 1462h179l-45 -218q81 88 140 130q172 122 379 122z" />
    <glyph glyph-name="eng" unicode="&#x14b;" horiz-adv-x="1141" 
d="M777 1144q113 0 198 -55q113 -72 113 -220q0 -67 -26 -198l-150 -737q-42 -197 -72 -261q-60 -123 -223 -123q-51 0 -105 14l32 154q34 -16 80 -16t66.5 44.5t66.5 270.5l134 664q19 94 19 163t-46 109t-136 40q-161 0 -277 -136q-80 -95 -117 -275l-117 -582h-173
l225 1113h161l-36 -177q58 92 164 150t219 58z" />
    <glyph glyph-name="Omacron" unicode="&#x14c;" horiz-adv-x="1555" 
d="M1394 1776l-26 -121h-672l26 121h672zM913 1335q-229 0 -389 -172q-112 -121 -154 -276t-42 -278q0 -185 81 -305q119 -177 358 -177t403 187q102 118 146 268t44 266q0 223 -109 355t-338 132zM941 1495q221 0 379 -115q230 -168 230 -524t-216 -623t-570 -267t-517 242
q-110 164 -110 421t131 488q103 181 277.5 279.5t395.5 98.5z" />
    <glyph glyph-name="omacron" unicode="&#x14d;" horiz-adv-x="1153" 
d="M1095 1481l-25 -126h-628l25 126h628zM666 993q-168 0 -282 -145q-59 -76 -94 -183t-35 -219t51 -201q73 -125 245 -125t288 176q49 75 78 176.5t29 201.5q0 148 -75 233.5t-205 85.5zM674 1145q226 0 343 -134q103 -117 103 -331q0 -133 -41.5 -264.5t-115.5 -231.5
q-161 -217 -434 -217t-382 201q-65 120 -65 280t66 326t207 268.5t319 102.5z" />
    <glyph glyph-name="Obreve" unicode="&#x14e;" horiz-adv-x="1555" 
d="M953 1655q-122 0 -189.5 63t-67.5 178q0 21 4 58h104q-2 -16 -2 -24q0 -66 44 -106.5t117 -40.5q112 0 185 76q44 46 60 95h103q-27 -106 -89 -178q-103 -121 -269 -121zM1322 873q0 199 -105 331t-325 132t-375 -172q-107 -119 -155 -304q-33 -125 -33 -249
q0 -187 77 -306q115 -177 345 -177t388 187q99 115 141 267t42 291zM918 1496q214 0 365 -115q221 -168 221 -524t-208 -623t-548 -267q-341 0 -497 242q-106 165 -106 421t126 487q99 182 266 280.5t381 98.5z" />
    <glyph glyph-name="obreve" unicode="&#x14f;" horiz-adv-x="1153" 
d="M744 1284q-245 0 -245 254q0 12 1 45h100q4 -84 29 -121q38 -55 127 -55q163 0 225 176h100q-80 -299 -337 -299zM665 993q-167 0 -280 -145q-60 -76 -95 -183t-35 -219t51 -201q73 -125 245 -125t288 176q49 74 78 176t29 202q0 148 -75 233.5t-206 85.5zM674 1145
q226 0 343 -134q103 -117 103 -331q0 -133 -41.5 -264.5t-115.5 -231.5q-161 -217 -434 -217t-382 201q-65 120 -65 280t66 326t207 268.5t319 102.5z" />
    <glyph glyph-name="Ohungarumlaut" unicode="&#x150;" horiz-adv-x="1555" 
d="M1496 1866l-272 -287h-122l184 287h210zM1160 1866l-272 -287h-122l184 287h210zM1360 872q0 200 -109 332t-338 131q-229 0 -389 -172q-112 -122 -154 -276t-42 -277q0 -186 81 -306q119 -177 358 -177t403 187q102 117 146 268t44 290zM942 1495q222 0 378 -115
q230 -168 230 -524t-216 -623t-570 -267t-517 242q-110 164 -110 420t131 489q103 181 277.5 279.5t396.5 98.5z" />
    <glyph glyph-name="ohungarumlaut" unicode="&#x151;" horiz-adv-x="1153" 
d="M1186 1586l-258 -312h-111l177 312h192zM894 1586l-259 -312h-110l169 312h200zM665 993q-167 0 -280 -145q-60 -76 -95 -183t-35 -219t51 -201q73 -125 245 -125t288 176q49 74 78 176t29 202q0 148 -75 233.5t-206 85.5zM674 1145q226 0 343 -134q103 -117 103 -331
q0 -133 -41.5 -264.5t-115.5 -231.5q-161 -217 -434 -217t-382 201q-65 120 -65 280t66 326t207 268.5t319 102.5z" />
    <glyph glyph-name="OE" unicode="&#x152;" horiz-adv-x="2186" 
d="M1270 1106q0 35 -29.5 82t-75.5 76q-102 66 -242 66q-237 0 -400 -175q-108 -117 -160 -298q-34 -120 -34 -243q0 -261 140 -388q104 -96 261 -96q83 0 160 29q174 66 230 227q14 43 35 142l103 486q12 57 12 92zM712 -29q-279 0 -435 197q-138 174 -138 438
q-1 264 115 480q116 215 322 322q162 83 344 83t306 -84q77 -53 105 -104l33 159h960l-34 -164h-785l-99 -467h719l-34 -158h-719l-108 -509h798l-34 -164h-974l25 122q-133 -151 -367 -151z" />
    <glyph glyph-name="oe" unicode="&#x153;" horiz-adv-x="1826" 
d="M1640 717q0 105 -50 181q-62 94 -196 94t-223 -86.5t-129 -252.5h592q6 37 6 64zM649 994q-164 0 -265 -142q-133 -188 -133 -445q-1 -127 63 -207t188 -80q273 0 332.5 265.5t59.5 341.5q0 137 -70 202t-175 65zM1250 -31q-175 0 -256 61t-120 164q-67 -102 -136 -150
q-109 -76 -263 -76q-216 0 -321 145q-83 115 -83 309q-1 194 87 368q179 354 516 354q131 0 220.5 -58t122.5 -163q138 221 401 221q213 0 319 -153q72 -105 72 -275q0 -108 -29 -213h-764q-14 -63 -14 -116q0 -103 46 -170q65 -96 211 -96q224 0 311 229h179
q-62 -184 -193 -282.5t-306 -98.5z" />
    <glyph glyph-name="Racute" unicode="&#x154;" horiz-adv-x="1411" 
d="M1212 1866l-337 -287h-137l242 287h232zM809 790q94 0 184 12t152.5 90.5t62.5 194.5t-92 174q-58 37 -225 37h-374l-108 -508h400zM1012 94q0 58 14 176t15 181q0 105 -54 143t-214 38h-398l-134 -632h-187l311 1462h548q128 0 197 -11t123 -40q172 -92 172 -314
q0 -154 -86 -259.5t-240 -139.5q80 -36 114 -91.5t34 -151.5l-23 -333q0 -74 26 -122h-200q-18 36 -18 94z" />
    <glyph glyph-name="racute" unicode="&#x155;" horiz-adv-x="663" 
d="M896 1586l-346 -312h-122l243 312h225zM718 949q-159 0 -270 -135q-88 -107 -131 -320l-100 -494h-173l225 1113h161l-48 -238q40 107 146 187t236 80q28 0 65 -4l-40 -194q-34 5 -71 5z" />
    <glyph glyph-name="Rcommaaccent" unicode="&#x156;" horiz-adv-x="1411" 
d="M671 -124l-32 -151q-44 -229 -237 -226l15 69q105 3 133 134h-105l37 174h189zM809 790q94 0 184 12t152.5 90.5t62.5 194.5t-92 174q-58 37 -225 37h-374l-108 -508h400zM1012 94q0 58 14 176t15 181q0 105 -54 143t-214 38h-398l-134 -632h-187l311 1462h548
q128 0 197 -11t123 -40q172 -92 172 -314q0 -154 -86 -259.5t-240 -139.5q80 -36 114 -91.5t34 -151.5l-23 -333q0 -74 26 -122h-200q-18 36 -18 94z" />
    <glyph glyph-name="rcommaaccent" unicode="&#x157;" horiz-adv-x="663" 
d="M205 -130l-32 -158q-44 -242 -237 -238l15 73q105 3 133 140h-105l37 183h189zM718 949q-159 0 -270 -135q-92 -111 -131 -320l-101 -494h-172l225 1113h161l-48 -238q40 105 146 186t236 81q30 0 64 -5l-39 -194q-34 6 -71 6z" />
    <glyph glyph-name="Rcaron" unicode="&#x158;" horiz-adv-x="1411" 
d="M627 1860h156l101 -180l200 180h166l-294 -281h-176zM809 790q94 0 184 12t152.5 90.5t62.5 194.5t-92 174q-58 37 -225 37h-374l-108 -508h400zM1012 94q0 58 14 176t15 181q0 105 -54 143t-214 38h-398l-134 -632h-187l311 1462h548q128 0 197 -11t123 -40
q172 -92 172 -314q0 -154 -86 -259.5t-240 -139.5q80 -36 114 -91.5t34 -151.5l-23 -333q0 -74 26 -122h-200q-18 36 -18 94z" />
    <glyph glyph-name="rcaron" unicode="&#x159;" horiz-adv-x="663" 
d="M936 1583l-295 -309h-177l-143 309h156l92 -202l203 202h164zM718 949q-159 0 -270 -135q-90 -109 -131 -320l-100 -494h-173l225 1113h161l-48 -238q40 107 146 187t236 80q28 0 65 -4l-40 -194q-34 5 -71 5z" />
    <glyph glyph-name="Sacute" unicode="&#x15a;" horiz-adv-x="1253" 
d="M1148 1866l-337 -287h-137l243 287h231zM1261 1038h-183q-2 79 -15 122.5t-45 78.5q-87 93 -267 93t-268 -68t-88 -171q0 -102 69.5 -154.5t266.5 -102.5t285 -103q164 -100 164 -297t-146 -331t-416 -134q-272 -1 -421 121t-149 362v31h187q3 -156 47 -222
q87 -131 314 -131t329 110q68 74 68 176q-1 102 -67 153q-66 52 -224 92t-221 63.5t-124 63.5t-103 113t-41 171q0 98 84 258t445 160q204 0 318 -69t157.5 -152t43.5 -213v-20z" />
    <glyph glyph-name="sacute" unicode="&#x15b;" horiz-adv-x="949" 
d="M937 1586l-346 -312h-122l243 312h225zM930 790h-172q-1 202 -232 202q-98 0 -156 -40t-58 -113q0 -72 91 -120q41 -22 187 -84t200 -116q79 -80 79 -191q0 -72 -62.5 -215.5t-371.5 -143.5q-206 0 -315.5 99.5t-109.5 285.5h170q-1 -83 36 -138q65 -99 237 -99
q113 1 177 53t64 120t-40 108t-200 106t-223 120q-93 80 -93 203q0 70 65 193.5t332 123.5t356 -171q39 -77 39 -183z" />
    <glyph glyph-name="Scircumflex" unicode="&#x15c;" horiz-adv-x="1253" 
d="M1126 1579h-155l-102 180l-200 -180h-165l293 281h177zM1261 1038h-183q-2 79 -15 122.5t-45 78.5q-87 93 -267 93t-268 -68t-88 -171q0 -102 69.5 -154.5t266.5 -102.5t285 -103q164 -100 164 -297t-146 -331t-416 -134q-272 -1 -421 121t-149 362v31h187
q3 -156 47 -222q87 -131 314 -131t329 110q68 74 68 176q-1 102 -67 153q-66 52 -224 92t-221 63.5t-124 63.5t-103 113t-41 171q0 98 84 258t445 160q204 0 318 -69t157.5 -152t43.5 -213v-20z" />
    <glyph glyph-name="scircumflex" unicode="&#x15d;" horiz-adv-x="949" 
d="M894 1274h-154l-90 204l-194 -204h-165l288 310h176zM930 790h-172q-1 202 -232 202q-98 0 -156 -40t-58 -113q0 -72 91 -120q41 -22 187 -84t200 -116q79 -80 79 -191q0 -72 -62.5 -215.5t-371.5 -143.5q-206 0 -315.5 99.5t-109.5 285.5h170q-1 -83 36 -138
q65 -99 237 -99q113 1 177 53t64 120t-40 108t-200 106t-223 120q-93 80 -93 203q0 70 65 193.5t332 123.5t356 -171q39 -77 39 -183z" />
    <glyph glyph-name="Scedilla" unicode="&#x15e;" horiz-adv-x="1253" 
d="M552 -109q74 0 122 -41.5t48 -112.5t-68 -123t-168 -52t-211 45l37 73q85 -33 143 -33t89 23.5t31 59.5t-29 60t-67 24t-84 -14l-33 37l116 142q-430 65 -430 475v31h187q3 -156 47 -222q87 -131 314 -131t329 110q68 74 68 176q-1 102 -67 153q-66 53 -224 93t-221 63
t-125 63t-102 114q-41 76 -41 172t84 256t445 160q204 0 318 -68t157.5 -151.5t43.5 -209.5v-25h-183q-1 138 -60 201q-86 93 -266 93t-269 -68q-88 -68 -88 -171q0 -102 69.5 -154.5t266.5 -102.5t285 -103q164 -101 164 -297t-143 -328t-410 -137h-73l-69 -89q41 9 67 9z
" />
    <glyph glyph-name="scedilla" unicode="&#x15f;" horiz-adv-x="949" 
d="M393 -114q74 0 122 -43.5t48 -118.5t-68.5 -129.5t-168.5 -54.5t-210 47l38 77q84 -34 142 -34t89 25t31 63t-29 62.5t-67 24.5t-83 -16l-34 39l117 151q-310 59 -309 375h170q-1 -83 36 -138q65 -100 237 -100q114 0 178 52t63 121q0 68 -41 108t-146 84
q-214 88 -276 142q-93 80 -93 204q0 70 34.5 135.5t94.5 106.5q106 75 274 75q260 0 350 -171q39 -77 39 -183h-172q-1 202 -232 202q-99 0 -157 -40t-57 -113q0 -72 91 -120q41 -22 187 -84t200 -116q79 -80 79 -184t-50 -188t-142 -131t-250 -47q-7 0 -31 1l-71 -93
q41 9 67 9z" />
    <glyph glyph-name="Scaron" unicode="&#x160;" horiz-adv-x="1253" 
d="M563 1860h156l102 -180l199 180h166l-294 -281h-176zM1261 1038h-183q-2 79 -15 122.5t-45 78.5q-87 93 -267 93t-268 -68t-88 -171q0 -102 69.5 -154.5t266.5 -102.5t285 -103q164 -100 164 -297t-146 -331t-416 -134q-272 -1 -421 121t-149 362v31h187q3 -156 47 -222
q87 -131 314 -131t329 110q68 74 68 176q-1 102 -67 153q-66 52 -224 92t-221 63.5t-124 63.5t-103 113t-41 171q0 98 84 258t445 160q204 0 318 -69t157.5 -152t43.5 -213v-20z" />
    <glyph glyph-name="scaron" unicode="&#x161;" horiz-adv-x="949" 
d="M981 1583l-295 -309h-177l-143 309h156l92 -202l202 202h165zM930 790h-172q-1 202 -232 202q-98 0 -156 -40t-58 -113q0 -72 91 -120q41 -22 187 -84t200 -116q79 -80 79 -191q0 -72 -62.5 -215.5t-371.5 -143.5q-206 0 -315.5 99.5t-109.5 285.5h170q-1 -83 36 -138
q65 -99 237 -99q113 1 177 53t64 120t-40 108t-200 106t-223 120q-93 80 -93 203q0 70 65 193.5t332 123.5t356 -171q39 -77 39 -183z" />
    <glyph glyph-name="Tcommaaccent" unicode="&#x162;" horiz-adv-x="1206" 
d="M590 -124l-32 -151q-44 -229 -237 -226l15 69q106 3 133 134h-105l37 174h189zM1416 1462l-35 -164h-496l-276 -1298h-187l276 1298h-500l35 164h1183z" />
    <glyph glyph-name="tcommaaccent" unicode="&#x163;" horiz-adv-x="598" 
d="M323 -130l-32 -158q-44 -242 -237 -238l15 73q105 2 133 140h-105l37 183h189zM295 234q1 -48 21 -70t71 -21q51 0 113 17l-32 -157q-63 -12 -130 -12q-229 0 -229 179q0 45 28 182l123 611h-181l30 150h182l51 255h173l-52 -255h211l-30 -150h-211l-124 -611
q-14 -70 -14 -118z" />
    <glyph glyph-name="Tcaron" unicode="&#x164;" horiz-adv-x="1206" 
d="M605 1860h155l102 -180l200 180h165l-293 -281h-177zM1416 1462l-35 -164h-496l-276 -1298h-187l276 1298h-500l35 164h1183z" />
    <glyph glyph-name="tcaron" unicode="&#x165;" horiz-adv-x="671" 
d="M902 1640l-32 -158q-45 -241 -237 -238l14 73q105 3 133 140h-104l37 183h189zM338 -9q-230 0 -230 179q0 44 28 182l124 611h-181l30 150h181l52 256h173l-52 -256h211l-30 -150h-211l-124 -611q-15 -74 -15 -120t20 -68t72 -21q52 0 114 17l-32 -157q-63 -12 -130 -12z
" />
    <glyph glyph-name="Tbar" unicode="&#x166;" horiz-adv-x="1206" 
d="M1343 1462l-33 -164h-472l-83 -406h349l-30 -146h-348l-151 -746h-178l150 746h-348l30 146h348l82 406h-476l33 164h1127z" />
    <glyph glyph-name="tbar" unicode="&#x167;" horiz-adv-x="598" 
d="M294 232q0 -48 21 -68.5t71 -20.5t113 17l-31 -157q-63 -12 -158 -12q-94 0 -148 47t-54 133q0 44 28 182l53 263h-162l27 134h163l43 213h-182l31 150h181l43 208h172l-42 -208h210l-30 -149h-210l-44 -214h189l-28 -134h-188l-53 -263q-15 -73 -15 -121z" />
    <glyph glyph-name="Utilde" unicode="&#x168;" horiz-adv-x="1423" 
d="M1135 1601q-49 -1 -161 51t-138 52q-46 0 -94 -95h-105q64 224 203 224q36 0 65 -10.5t117 -51.5t115 -41q56 0 96 99h105q-67 -228 -203 -228zM686 -31q-235 0 -375 96q-171 117 -171 340q0 82 29 219l178 838h188l-182 -854q-28 -131 -28 -195q0 -145 100 -213t256 -68
q261 0 366 158q53 82 102 312l182 860h187l-186 -877q-36 -170 -66.5 -256t-78.5 -152q-152 -208 -501 -208z" />
    <glyph glyph-name="utilde" unicode="&#x169;" horiz-adv-x="1125" 
d="M897 1310q-29 0 -51 7.5t-108 52.5t-122 45q-59 0 -85 -101h-99q36 123 79 175t109 52q27 0 54 -10.5t117 -53.5t107 -43q65 0 96 106h99q-45 -130 -87.5 -180t-108.5 -50zM411 -31q-115 0 -200 56q-110 73 -110 229q0 64 25 187l136 672h173l-118 -578
q-41 -210 -41 -259q0 -156 193 -156q144 0 251 131q45 54 71 116t46 162l118 584h173l-226 -1113h-160l34 171q-62 -97 -156 -149.5t-209 -52.5z" />
    <glyph glyph-name="Umacron" unicode="&#x16a;" horiz-adv-x="1423" 
d="M1335 1776l-25 -121h-672l25 121h672zM140 405q0 82 29 219l178 838h188l-182 -854q-28 -131 -28 -196q0 -144 100 -212t256 -68q262 0 366 158q52 80 102 312l182 860h187l-186 -877q-36 -169 -114.5 -392.5t-531.5 -223.5q-234 0 -375 96q-171 117 -171 340z" />
    <glyph glyph-name="umacron" unicode="&#x16b;" horiz-adv-x="1125" 
d="M1084 1481l-26 -126h-628l26 126h628zM412 -31q-114 0 -201 56q-110 73 -110 229q0 64 25 187l136 672h173l-117 -578q-42 -211 -42 -259q0 -156 193 -156q144 0 251 131q45 54 70.5 115.5t46.5 162.5l118 584h173l-226 -1113h-160l34 171q-62 -97 -156 -149.5
t-208 -52.5z" />
    <glyph glyph-name="Ubreve" unicode="&#x16c;" horiz-adv-x="1423" 
d="M932 1655q-123 0 -190.5 63t-67.5 178q0 22 4 58h104q-2 -17 -2 -24q0 -66 44 -106.5t117 -40.5q113 0 185 76q44 46 60 95h104q-28 -106 -90 -178q-103 -121 -268 -121zM148 405q0 81 28 219l171 838h180l-174 -854q-27 -131 -27 -195q0 -143 96 -212t246 -69
q252 0 352 158q49 79 98 312l175 860h180l-179 -877q-34 -170 -110.5 -393t-510.5 -223q-226 0 -360 96q-165 118 -165 340z" />
    <glyph glyph-name="ubreve" unicode="&#x16d;" horiz-adv-x="1125" 
d="M744 1284q-245 0 -245 254q0 14 1 45h100q4 -84 35 -130t121 -46q165 0 225 176h100q-81 -299 -337 -299zM411 -31q-115 0 -200 56q-110 73 -110 229q0 64 25 187l136 672h173l-118 -578q-41 -210 -41 -259q0 -156 193 -156q144 0 251 131q45 54 71 116t46 162l118 584
h173l-226 -1113h-160l34 171q-62 -97 -156 -149.5t-209 -52.5z" />
    <glyph glyph-name="Uring" unicode="&#x16e;" horiz-adv-x="1423" 
d="M980 1868q-48 0 -79.5 -32t-31.5 -82t31.5 -82t79.5 -32t82 34t34 80t-34 80t-82 34zM988 1973q90 1 152 -67q61 -68 61 -158q1 -90 -67 -152q-68 -61 -158 -61t-151 66t-61 158t67 153t157 61zM140 405q0 82 29 219l178 838h188l-182 -854q-28 -131 -28 -196
q0 -144 100 -212t256 -68q262 0 366 158q52 80 102 312l182 860h187l-186 -877q-36 -169 -114.5 -392.5t-531.5 -223.5q-234 0 -375 96q-171 117 -171 340z" />
    <glyph glyph-name="uring" unicode="&#x16f;" horiz-adv-x="1125" 
d="M750 1562q-48 0 -79 -33.5t-31 -85.5t31 -85.5t79 -33.5t82.5 35t34.5 83t-34.5 84t-82.5 36zM760 1672q90 0 151 -71t61 -165t-67 -159q-67 -64 -157 -64t-152 69q-61 70 -61 166t67 160q68 64 158 64zM411 -31q-115 0 -200 56q-110 73 -110 229q0 64 25 187l136 672
h173l-118 -578q-41 -210 -41 -259q0 -156 193 -156q144 0 251 131q45 54 71 116t46 162l118 584h173l-226 -1113h-160l34 171q-62 -97 -156 -149.5t-209 -52.5z" />
    <glyph glyph-name="Uhungarumlaut" unicode="&#x170;" horiz-adv-x="1423" 
d="M1436 1866l-272 -287h-122l184 287h210zM1099 1866l-271 -287h-122l183 287h210zM686 -31q-235 0 -375 96q-171 117 -171 340q0 82 29 219l178 838h188l-182 -854q-28 -131 -28 -195q0 -145 100 -213t256 -68q261 0 366 158q53 82 102 312l182 860h187l-186 -877
q-36 -170 -66.5 -256t-78.5 -152q-152 -208 -501 -208z" />
    <glyph glyph-name="uhungarumlaut" unicode="&#x171;" horiz-adv-x="1125" 
d="M1172 1586l-259 -312h-110l177 312h192zM880 1586l-259 -312h-111l170 312h200zM412 -31q-114 0 -201 56q-110 73 -110 229q0 64 25 187l136 672h173l-117 -578q-42 -211 -42 -259q0 -156 193 -156q144 0 251 131q45 54 70.5 115.5t46.5 162.5l118 584h173l-226 -1113
h-160l34 171q-62 -97 -156 -149.5t-208 -52.5z" />
    <glyph glyph-name="Uogonek" unicode="&#x172;" horiz-adv-x="1423" 
d="M892 -385q-110 -1 -158 47t-48 111q0 116 155 207q-90 -11 -153 -11q-237 0 -377 96q-171 117 -171 340q0 82 29 219l178 838h188l-182 -854q-28 -131 -28 -195q0 -145 100 -213t256 -68q261 0 366 158q53 82 102 312l182 860h187l-186 -877q-54 -255 -114 -359
t-204 -203q-99 -67 -128 -94q-66 -60 -66 -124q0 -87 126 -87q37 0 84 14l-7 -95q-72 -22 -131 -22z" />
    <glyph glyph-name="uogonek" unicode="&#x173;" horiz-adv-x="1125" 
d="M739 -205q0 -92 127 -92q36 0 83 16l-7 -101q-71 -23 -130 -23q-112 -1 -160 49t-47.5 118t42 120t150.5 118h-55l34 171q-62 -96 -156 -149t-208 -53t-201 56q-110 73 -110 229q0 64 25 187l136 672h173l-117 -578q-42 -211 -42 -259q0 -156 193 -156q144 0 251 131
q45 54 71 115.5t46 162.5l118 584h173l-226 -1113q-89 -65 -126 -111t-37 -94z" />
    <glyph glyph-name="Wcircumflex" unicode="&#x174;" horiz-adv-x="1858" 
d="M1473 1579h-156l-102 180l-199 -180h-166l294 281h176zM2078 1462l-668 -1462h-207l-93 1250l-582 -1250h-208l-96 1462h192l60 -1218l565 1218h216l93 -1201l529 1201h199z" />
    <glyph glyph-name="wcircumflex" unicode="&#x175;" horiz-adv-x="1462" 
d="M1187 1274h-154l-90 204l-194 -204h-166l288 310h176zM1608 1113l-546 -1113h-187l-59 862l-377 -862h-187l-126 1113h185l78 -870l374 870h199l59 -861l400 861h187z" />
    <glyph glyph-name="Ycircumflex" unicode="&#x176;" horiz-adv-x="1199" 
d="M1129 1579h-156l-101 180l-200 -180h-166l294 281h176zM1464 1462l-714 -880l-124 -582h-187l127 597l-386 865h206l296 -699l554 699h228z" />
    <glyph glyph-name="ycircumflex" unicode="&#x177;" horiz-adv-x="912" 
d="M912 1274h-154l-90 204l-194 -204h-165l288 310h176zM24 -450q-56 0 -125 20l34 156q71 -24 111 -24t80 31q74 60 179 268l-186 1112h187l128 -876l444 876h192l-536 -1004q-151 -283 -223 -389q-115 -170 -285 -170z" />
    <glyph glyph-name="Ydieresis" unicode="&#x178;" horiz-adv-x="1199" 
d="M1203 1821l-44 -205h-190l43 205h191zM754 1821l-43 -205h-190l43 205h190zM1464 1462l-714 -880l-124 -582h-187l127 597l-386 865h206l296 -699l554 699h228z" />
    <glyph glyph-name="Zacute" unicode="&#x179;" horiz-adv-x="1237" 
d="M1184 1866l-338 -287h-137l243 287h232zM1355 1462l-33 -158l-1098 -1140h926l-35 -164h-1167l33 158l1101 1140h-833l35 164h1071z" />
    <glyph glyph-name="zacute" unicode="&#x17a;" horiz-adv-x="899" 
d="M940 1586l-345 -312h-122l242 312h225zM976 1113l-26 -129l-749 -834h637l-30 -150h-867l27 135l746 828h-578l30 150h810z" />
    <glyph glyph-name="Zdotaccent" unicode="&#x17b;" horiz-adv-x="1237" 
d="M967 1821l-43 -205h-190l43 205h190zM1355 1462l-33 -158l-1098 -1140h926l-35 -164h-1167l33 158l1101 1140h-833l35 164h1071z" />
    <glyph glyph-name="zdotaccent" unicode="&#x17c;" horiz-adv-x="899" 
d="M733 1536l-44 -215h-182l43 215h183zM976 1113l-26 -129l-749 -834h637l-30 -150h-867l27 135l746 828h-578l30 150h810z" />
    <glyph glyph-name="Zcaron" unicode="&#x17d;" horiz-adv-x="1237" 
d="M584 1860h155l102 -180l200 180h165l-293 -281h-176zM1355 1462l-33 -158l-1098 -1140h926l-35 -164h-1167l33 158l1101 1140h-833l35 164h1071z" />
    <glyph glyph-name="zcaron" unicode="&#x17e;" horiz-adv-x="899" 
d="M973 1583l-295 -309h-177l-143 309h156l92 -202l203 202h164zM976 1113l-26 -129l-749 -834h637l-30 -150h-867l27 135l746 828h-578l30 150h810z" />
    <glyph glyph-name="longs" unicode="&#x17f;" horiz-adv-x="578" 
d="M647 1482q71 0 137 -18l-28 -155q-42 14 -87 14q-89 0 -128 -45t-66 -180l-222 -1098h-173l195 963h-178l30 150h178q7 28 28 122q54 247 314 247z" />
    <glyph glyph-name="uni018F" unicode="&#x18f;" horiz-adv-x="1533" 
d="M292 554q0 -296 153 -362.5t257 -66.5q217 0 380.5 133.5t244.5 376.5h-1030q-5 -42 -5 -81zM958 1316q-337 0 -537 -316l-192 50q267 436 739 436q283 0 440 -160t157 -433q0 -223 -95 -435q-124 -280 -373 -410q-178 -93 -393 -93q-290 0 -449 160t-159 427
q0 138 43 264h1225q4 47 4 83q0 295 -153.5 361t-256.5 66z" />
    <glyph glyph-name="florin" unicode="&#x192;" horiz-adv-x="1129" 
d="M155 -432q-51 0 -110 11l38 147q41 -9 72 -9q94 0 135 80q22 43 51 155l227 857h-192l36 137h193l78 298q27 101 81 207t270 106q60 0 135 -16l-37 -146q-46 12 -86 12q-84 0 -123.5 -43.5t-73.5 -172.5l-65 -245h229l-37 -137h-228l-229 -866q-32 -119 -54.5 -175.5
t-54.5 -95.5q-83 -104 -255 -104z" />
    <glyph glyph-name="uni01C4" unicode="&#x1c4;" horiz-adv-x="2657" 
d="M2005 1860h155l102 -180l200 180h165l-293 -281h-176zM2776 1462l-33 -158l-1098 -1140h926l-35 -164h-1167l33 158l1101 1140h-833l35 164h1071zM523 164q136 0 205 9t128 35q226 98 327 381q52 146 52 289q0 281 -186 376q-87 44 -279 44h-248l-241 -1134h242z
M714 1462q238 0 325 -22q213 -54 312 -244q71 -137 71 -312t-58 -340t-159 -284q-187 -223 -377.5 -241.5t-346.5 -18.5h-422l311 1462h344z" />
    <glyph glyph-name="uni01C5" unicode="&#x1c5;" horiz-adv-x="2319" 
d="M2394 1583l-295 -309h-177l-143 309h157l91 -202l203 202h164zM2397 1113l-26 -129l-749 -834h637l-30 -150h-867l28 135l745 828h-578l30 150h810zM523 164q136 0 205 9t128 35q226 98 327 381q52 146 52 289q0 281 -186 376q-87 44 -279 44h-248l-241 -1134h242z
M714 1462q238 0 325 -22q213 -54 312 -244q71 -137 71 -312t-58 -340t-159 -284q-187 -223 -377.5 -241.5t-346.5 -18.5h-422l311 1462h344z" />
    <glyph glyph-name="uni01C6" unicode="&#x1c6;" horiz-adv-x="2091" 
d="M2166 1583l-295 -309h-177l-143 309h156l92 -202l202 202h165zM2169 1113l-27 -129l-749 -834h637l-30 -150h-867l28 135l745 828h-578l31 150h810zM671 992q-207 0 -324 -198q-44 -73 -69.5 -174t-25.5 -200q0 -158 76 -228t188 -70q202 0 321 215q41 75 68 180.5
t27 193.5q0 139 -75 210t-186 71zM482 -31q-199 0 -305 118t-106 325q0 259 134 467q169 265 460 265q126 0 209.5 -51.5t113.5 -148.5l106 518h173l-297 -1462h-161l33 165q-42 -75 -130 -135t-230 -61z" />
    <glyph glyph-name="uni01C7" unicode="&#x1c7;" horiz-adv-x="2126" 
d="M1552 -35q-236 0 -337 120q-74 88 -74 228q0 73 19 167h186q-20 -110 -20 -157q0 -194 211 -194q126 0 196 84q48 58 93 267l209 982h187l-203 -954q-35 -162 -60.5 -242t-60.5 -133q-110 -168 -346 -168zM557 1462l-276 -1298h784l-35 -164h-971l311 1462h187z" />
    <glyph glyph-name="uni01C8" unicode="&#x1c8;" horiz-adv-x="1559" 
d="M1648 1535l-46 -224h-172l45 224h173zM1028 -450q-52 0 -105 14l32 154q33 -16 79 -16t67 44.5t67 269.5l222 1097h172l-239 -1179q-42 -199 -72 -261q-60 -123 -223 -123zM557 1462l-276 -1298h784l-35 -164h-971l311 1462h187z" />
    <glyph glyph-name="uni01C9" unicode="&#x1c9;" horiz-adv-x="857" 
d="M945 1535l-45 -224h-173l46 224h172zM326 -450q-53 0 -105 14l31 154q34 -16 80 -16t67 44.5t66 269.5l222 1097h173l-240 -1179q-41 -199 -72 -261q-60 -123 -222 -123zM514 1462l-297 -1462h-173l298 1462h172z" />
    <glyph glyph-name="uni01CA" unicode="&#x1ca;" horiz-adv-x="2452" 
d="M1878 -35q-236 0 -337 120q-74 88 -74 228q0 73 19 167h186q-20 -111 -20 -157q0 -194 211 -194q126 0 196 84q48 58 93 267l209 982h187l-203 -954q-34 -162 -60 -242t-61 -133q-110 -168 -346 -168zM1541 1462l-311 -1462h-217l-511 1203l-256 -1203h-187l311 1462h211
l515 -1214l258 1214h187z" />
    <glyph glyph-name="uni01CB" unicode="&#x1cb;" horiz-adv-x="1885" 
d="M1974 1535l-46 -224h-172l45 224h173zM1354 -450q-52 0 -105 14l32 154q33 -16 79 -16t67 44.5t67 269.5l222 1097h172l-239 -1179q-42 -199 -72 -261q-60 -123 -223 -123zM1541 1462l-311 -1462h-217l-511 1203l-256 -1203h-187l311 1462h211l515 -1214l258 1214h187z
" />
    <glyph glyph-name="uni01CC" unicode="&#x1cc;" horiz-adv-x="1559" 
d="M1647 1535l-45 -224h-173l46 224h172zM1028 -450q-53 0 -105 14l31 154q34 -16 80 -16t67 44.5t66 269.5l222 1097h173l-240 -1179q-42 -199 -72 -261q-60 -123 -222 -123zM778 1144q114 0 197 -55q113 -72 113 -220q0 -67 -26 -198l-136 -671h-173l138 681q19 94 19 163
t-46 109t-136 40q-161 0 -277 -136q-80 -95 -117 -274l-117 -583h-173l225 1113h161l-36 -177q59 93 164.5 150.5t219.5 57.5z" />
    <glyph glyph-name="uni01CD" unicode="&#x1cd;" horiz-adv-x="1347" 
d="M668 1860h156l101 -180l200 180h166l-294 -281h-176zM862 1277l-392 -672h502zM1004 1462l261 -1462h-200l-70 447h-613l-260 -447h-219l884 1462h217z" />
    <glyph glyph-name="uni01CE" unicode="&#x1ce;" horiz-adv-x="1067" 
d="M1051 1583l-295 -309h-177l-143 309h156l92 -202l202 202h165zM194 284q0 -72 57 -122t143 -50q174 0 277 135q53 72 88 244l17 84q-40 -47 -214 -61t-234 -34q-62 -20 -98 -72t-36 -124zM616 1144q183 0 282 -70.5t99 -201.5q0 -52 -30 -190l-75 -372q-18 -81 -18 -115
q0 -66 51 -66q21 0 51 8l-24 -139q-59 -21 -116 -21t-94.5 34.5t-37.5 93.5q0 10 3 32q-47 -56 -88 -86q-109 -82 -265 -82q-156 -1 -246 83q-89 84 -89 232q0 185 150 281q102 64 293 79q192 15 277.5 31.5t85.5 154.5q0 88 -55.5 125.5t-159.5 37.5q-241 0 -285 -213h-168
q17 126 83 211q120 153 376 153z" />
    <glyph glyph-name="uni01CF" unicode="&#x1cf;" horiz-adv-x="483" 
d="M247 1860h156l101 -180l200 180h166l-294 -281h-176zM557 1462l-311 -1462h-187l311 1462h187z" />
    <glyph glyph-name="uni01D0" unicode="&#x1d0;" horiz-adv-x="439" 
d="M148 1509h154l90 -194l194 194h166l-288 -295h-176zM442 1113l-225 -1113h-173l225 1113h173z" />
    <glyph glyph-name="uni01D1" unicode="&#x1d1;" horiz-adv-x="1555" 
d="M765 1860h156l101 -180l200 180h166l-294 -281h-176zM913 1335q-229 0 -389 -172q-112 -121 -154 -276t-42 -278q0 -185 81 -305q119 -177 358 -177t403 187q102 118 146 268t44 266q0 223 -109 355t-338 132zM941 1495q221 0 379 -115q230 -168 230 -524t-216 -623
t-570 -267t-517 242q-110 164 -110 421t131 488q103 181 277.5 279.5t395.5 98.5z" />
    <glyph glyph-name="uni01D2" unicode="&#x1d2;" horiz-adv-x="1153" 
d="M513 1584h154l90 -204l194 204h165l-287 -310h-177zM665 993q-167 0 -280 -145q-60 -76 -95 -183t-35 -219t51 -201q73 -125 245 -125t288 176q49 74 78 176t29 202q0 148 -75 233.5t-206 85.5zM674 1145q226 0 343 -134q103 -117 103 -331q0 -133 -41.5 -264.5
t-115.5 -231.5q-161 -217 -434 -217t-382 201q-65 120 -65 280t66 326t207 268.5t319 102.5z" />
    <glyph glyph-name="uni01D3" unicode="&#x1d3;" horiz-adv-x="1423" 
d="M713 1860h156l102 -180l199 180h166l-294 -281h-176zM140 405q0 82 29 219l178 838h188l-182 -854q-28 -131 -28 -196q0 -144 100 -212t256 -68q262 0 366 158q52 80 102 312l182 860h187l-186 -877q-36 -169 -114.5 -392.5t-531.5 -223.5q-234 0 -375 96
q-171 117 -171 340z" />
    <glyph glyph-name="uni01D4" unicode="&#x1d4;" horiz-adv-x="1125" 
d="M500 1584h154l90 -204l194 204h165l-288 -310h-176zM411 -31q-115 0 -200 56q-110 73 -110 229q0 64 25 187l136 672h173l-118 -578q-41 -210 -41 -259q0 -156 193 -156q144 0 251 131q45 54 71 116t46 162l118 584h173l-226 -1113h-160l34 171q-62 -97 -156 -149.5
t-209 -52.5z" />
    <glyph glyph-name="uni01DD" unicode="&#x1dd;" horiz-adv-x="1114" 
d="M255 438v-29q0 -127 47 -195q67 -98 204 -98t232 85.5t134 236.5h-617zM626 1089q244 0 361 -155q89 -120 89 -297q0 -109 -55.5 -297.5t-218.5 -278.5t-298 -90q-196 0 -307 117t-111 324q0 71 14 169h796q5 35 5 70q0 118 -54 190q-76 104 -225 104q-220 0 -298 -218
h-179q28 109 100 196q137 166 381 166z" />
    <glyph glyph-name="Gcaron" unicode="&#x1e6;" horiz-adv-x="1530" 
d="M753 1860h156l101 -180l200 180h165l-293 -281h-176zM137 601q-1 243 99 453t284.5 325.5t447.5 115.5t414 -147q132 -128 138 -332h-191q-10 125 -65 193q-102 124 -323 124q-264 0 -436 -198q-87 -99 -133 -249t-45 -290q0 -230 130 -358q109 -109 311 -109t329.5 119
t188.5 372h-468l34 158h640l-166 -778h-123l-3 95q-3 43 -4 65q-167 -193 -455 -193t-446 167t-158 467z" />
    <glyph glyph-name="gcaron" unicode="&#x1e7;" horiz-adv-x="1178" 
d="M1142 1583l-295 -309h-177l-143 309h156l92 -202l202 202h165zM642 994q-118 0 -203 -76q-114 -99 -162 -292q-25 -97 -25 -182q0 -159 90 -238q70 -62 175 -62q187 0 299 196q87 154 87 380q0 115 -71.5 194.5t-189.5 79.5zM-10 -124v13h178q11 -86 49 -129
q67 -74 227 -74t251 117q27 34 56.5 112t44.5 155l19 93q-119 -174 -339 -174q-141 0 -247 87q-150 125 -150 363q0 136 46.5 276.5t121.5 234.5t176.5 144t220.5 50t207 -60.5t127 -173.5l41 203h161l-190 -936q-36 -179 -108.5 -407t-462.5 -228q-305 0 -367 136.5
t-62 197.5z" />
    <glyph glyph-name="uni01F4" unicode="&#x1f4;" horiz-adv-x="1530" 
d="M1338 1866l-337 -287h-137l242 287h232zM137 601q-1 243 99 453t284.5 325.5t447.5 115.5t414 -147q132 -128 138 -332h-191q-10 125 -65 193q-102 124 -323 124q-264 0 -436 -198q-87 -99 -133 -249t-45 -290q0 -230 130 -358q109 -109 311 -109t329.5 119t188.5 372
h-468l34 158h640l-166 -778h-123l-3 95q-3 43 -4 65q-167 -193 -455 -193t-446 167t-158 467z" />
    <glyph glyph-name="uni01F5" unicode="&#x1f5;" horiz-adv-x="1178" 
d="M972 1586l-345 -312h-122l242 312h225zM643 994q-117 0 -204 -76q-113 -98 -162 -292q-25 -98 -25 -182q0 -159 90 -238q70 -62 175 -62q187 0 299 196q87 154 87 380q0 114 -71.5 194t-188.5 80zM414 -458q-207 0 -321 105q-47 45 -75 106.5t-28 122.5v13h178
q11 -86 49 -129q66 -74 210 -74q178 0 268 117q27 34 56 111.5t45 155.5l19 93q-119 -174 -338 -174q-142 0 -248 87q-150 125 -150 363q0 136 46.5 276.5t121.5 234.5t176.5 144t220.5 50t207 -60.5t127 -173.5l41 203h161l-190 -936q-35 -177 -62 -261.5t-69 -152.5
q-135 -221 -445 -221z" />
    <glyph glyph-name="Aringacute" unicode="&#x1fa;" horiz-adv-x="1347" 
d="M1056 2341l-337 -301h-137l242 301h232zM903 1960q-48 0 -79.5 -33.5t-31.5 -85.5t31 -85.5t79 -33.5t82.5 35t34.5 83t-34 84t-82 36zM912 2071q90 0 151 -71q61 -72 61 -166t-67 -158t-157 -64t-152 70q-61 70 -61 165q0 96 67 160q68 64 158 64zM842 1277l-377 -671
h483zM978 1462l252 -1462h-192l-68 448h-590l-250 -448h-210l850 1462h208z" />
    <glyph glyph-name="aringacute" unicode="&#x1fb;" horiz-adv-x="1067" 
d="M785 1828l-345 -297h-123l243 297h225zM700 1487q-48 0 -79 -31.5t-31 -81.5t31 -82t79 -32t82.5 33.5t34.5 79.5t-34.5 80t-82.5 34zM710 1592q90 0 151 -68t61 -158t-68 -150t-157 -61q-90 0 -151 66q-61 65 -61 157t67 153q68 61 158 61zM194 270q0 -70 57 -116
t143 -47q176 0 276 128q54 69 89 233l17 80q-39 -44 -213 -58q-173 -14 -235 -34t-98 -68t-36 -118zM609 947q-239 0 -284 -204h-168q17 120 83 201q120 146 375 146q183 0 282 -67.5t99 -191.5q0 -50 -29 -182l-75 -354q-18 -77 -18 -109q0 -63 52 -63q21 0 50 7l-24 -132
q-59 -20 -116 -20t-94.5 33t-37.5 89q0 9 3 30q-47 -53 -88 -82q-108 -77 -265 -77q-157 -1 -246 79t-89 221q0 311 442 343q191 14 239 23t86 40t38 114t-55.5 119.5t-159.5 36.5z" />
    <glyph glyph-name="AEacute" unicode="&#x1fc;" horiz-adv-x="1890" 
d="M1768 1959l-338 -301h-136l242 301h232zM1031 1297h-51l-481 -709h388zM1928 1462l-34 -164h-684l-95 -467h646l-32 -158h-646l-103 -509h697l-33 -164h-876l88 430h-465l-292 -430h-216l1019 1462h1026z" />
    <glyph glyph-name="aeacute" unicode="&#x1fd;" horiz-adv-x="1741" 
d="M1299 1510l-346 -296h-122l243 296h225zM1552 686q0 103 -50 171q-66 89 -212 89t-246 -126q-66 -82 -89 -198h593q4 36 4 64zM198 276q0 -76 54 -118.5t142 -42.5t161 33.5t110 81.5t50 83t41 148l22 91q-26 -25 -94.5 -40t-256.5 -37q-121 -15 -175 -69t-54 -130z
M617 945q-236 0 -285 -199h-171q18 89 51 146.5t92 102.5q122 94 316 94q276 0 356 -166q59 72 117 108q96 59 235 59q184 0 289.5 -108t105.5 -296q0 -87 -28 -207h-768q-13 -58 -13 -111q0 -106 53 -170q69 -83 211 -83t239 108q45 50 67 110h177q-39 -113 -121 -201
t-172.5 -124.5t-219.5 -36.5q-302 0 -368 234q-56 -93 -160 -163t-270 -71q-166 0 -249 83q-84 83 -84 205q0 76 33.5 143.5t93.5 111.5t130 62t234 38t200 27t60 22q58 35 58 139q0 67 -55.5 105t-153.5 38z" />
    <glyph glyph-name="Oslashacute" unicode="&#x1fe;" horiz-adv-x="1555" 
d="M1235 1959l-337 -301h-137l242 301h232zM753 155q197 0 353 149q99 96 158 246t59 324q0 81 -12 133.5t-44 112.5l-833 -846q58 -48 99 -69q96 -50 220 -50zM910 1340q-228 0 -383 -157q-105 -109 -153 -259t-48 -288t45 -258l829 843q-35 51 -118 85t-172 34zM727 -3
q-272 0 -427 165l-176 -174l-80 87l186 175q-51 112 -70 190.5t-19 180.5q0 207 75 398q94 239 305 368q179 109 402 109q130 0 227.5 -37t191.5 -122l177 174l79 -86l-186 -180q93 -119 93 -381t-134 -487q-108 -184 -274.5 -282t-369.5 -98z" />
    <glyph glyph-name="oslashacute" unicode="&#x1ff;" 
d="M982 1586l-345 -312h-122l243 312h224zM543 121q193 0 314 207q43 73 68 172.5t25 173.5t-18 129l-601 -601q26 -36 84 -58.5t128 -22.5zM680 992q-134 0 -229 -76t-149 -206.5t-54 -282.5q0 -63 26 -121l604 598q-64 88 -198 88zM1118 664q0 -164 -72 -332
q-87 -205 -243 -296q-117 -70 -249 -70t-212 29.5t-145 95.5l-143 -131l-72 84l151 143q-51 113 -51 281t82 342t245 267q119 67 247 67q254 0 353 -131l127 120l71 -83l-136 -127q47 -95 47 -259z" />
    <glyph glyph-name="uni0200" unicode="&#x200;" horiz-adv-x="1347" 
d="M417 1866h210l184 -287h-123zM753 1866h210l184 -287h-122zM862 1277l-392 -672h502zM1004 1462l261 -1462h-200l-70 447h-613l-260 -447h-219l884 1462h217z" />
    <glyph glyph-name="uni0201" unicode="&#x201;" horiz-adv-x="1067" 
d="M224 1510h193l177 -296h-111zM517 1510h200l169 -296h-110zM194 284q0 -72 57 -122t143 -50q174 0 277 135q53 72 88 244l17 84q-40 -47 -214 -61t-234 -34q-62 -20 -98 -72t-36 -124zM616 1144q183 0 282 -70.5t99 -201.5q0 -52 -30 -190l-75 -372q-18 -81 -18 -115
q0 -66 51 -66q21 0 51 8l-24 -139q-59 -21 -116 -21t-94.5 34.5t-37.5 93.5q0 10 3 32q-47 -56 -88 -86q-109 -82 -265 -82q-156 -1 -246 83q-89 84 -89 232q0 185 150 281q102 64 293 79q192 15 277.5 31.5t85.5 154.5q0 88 -55.5 125.5t-159.5 37.5q-241 0 -285 -213h-168
q17 126 83 211q120 153 376 153z" />
    <glyph glyph-name="Scommaaccent" unicode="&#x218;" horiz-adv-x="1253" 
d="M643 -130l-32 -158q-44 -242 -237 -238l14 73q106 2 133 140h-104l37 183h189zM1225 1038h-176q-1 137 -57 201q-82 93 -256 93t-258 -69t-85 -171q0 -102 67.5 -154.5t256.5 -101.5t273 -103q158 -101 158 -297t-140 -331q-140 -134 -401 -134q-261 -1 -405 121
t-143 362v31h179v-18q0 -171 87 -253t283 -82t294 110q66 75 66 176q0 100 -64 152t-216 93q-154 41 -312 101.5t-158 309.5q0 98 42.5 183t118.5 141q132 95 360 95t364 -121q69 -61 95.5 -134.5t26.5 -199.5z" />
    <glyph glyph-name="scommaaccent" unicode="&#x219;" horiz-adv-x="949" 
d="M470 -130l-32 -158q-25 -126 -81.5 -182.5t-155.5 -55.5l14 73q107 2 133 140h-104l37 183h189zM930 790h-172q-1 202 -232 202q-98 0 -156 -40t-58 -113q0 -72 91 -120q41 -22 187 -84t200 -116q79 -80 79 -191q0 -72 -62.5 -215.5t-371.5 -143.5q-206 0 -315.5 99.5
t-109.5 285.5h170q-1 -83 36 -138q65 -99 237 -99q113 1 177 53t64 120t-41 108t-201 106t-221 120q-93 80 -93 203q0 70 34.5 135.5t94.5 106.5q106 75 274 75q261 0 350 -171q39 -77 39 -183z" />
    <glyph glyph-name="uni021A" unicode="&#x21a;" horiz-adv-x="1206" 
d="M590 -124l-32 -151q-44 -229 -237 -226l15 69q106 3 133 134h-105l37 174h189zM1416 1462l-35 -164h-496l-276 -1298h-187l276 1298h-500l35 164h1183z" />
    <glyph glyph-name="uni021B" unicode="&#x21b;" horiz-adv-x="598" 
d="M323 -130l-32 -158q-44 -242 -237 -238l15 73q105 2 133 140h-105l37 183h189zM295 234q1 -48 21 -70t71 -21q51 0 113 17l-32 -157q-63 -12 -130 -12q-229 0 -229 179q0 45 28 182l123 611h-181l30 150h182l51 255h173l-52 -255h211l-30 -150h-211l-124 -611
q-14 -70 -14 -118z" />
    <glyph glyph-name="uni0226" unicode="&#x226;" horiz-adv-x="1347" 
d="M1066 1821l-43 -205h-190l43 205h190zM862 1277l-392 -672h502zM1004 1462l261 -1462h-200l-70 447h-613l-260 -447h-219l884 1462h217z" />
    <glyph glyph-name="uni0227" unicode="&#x227;" horiz-adv-x="1067" 
d="M810 1462l-43 -205h-183l44 205h182zM194 270q0 -70 57 -116t143 -47q176 0 276 128q54 69 89 233l17 80q-39 -44 -213 -58q-173 -14 -235 -34t-98 -68t-36 -118zM609 947q-239 0 -284 -204h-168q17 120 83 201q120 146 375 146q183 0 282 -67.5t99 -191.5
q0 -50 -29 -182l-75 -354q-18 -77 -18 -109q0 -63 52 -63q21 0 50 7l-24 -132q-59 -20 -116 -20t-94.5 33t-37.5 89q0 9 3 30q-47 -53 -88 -82q-108 -77 -265 -77q-157 -1 -246 79t-89 221q0 311 442 343q191 14 239 23t86 40t38 114t-55.5 119.5t-159.5 36.5z" />
    <glyph glyph-name="uni0237" unicode="&#x237;" horiz-adv-x="418" 
d="M-113 -450q-52 0 -105 14l32 154q34 -16 80 -16t66.5 44.5t66.5 269.5l222 1097h172l-239 -1179q-42 -199 -72 -261q-60 -123 -223 -123z" />
    <glyph glyph-name="uni02BB" unicode="&#x2bb;" horiz-adv-x="506" 
d="M253 971l41 190q45 214 145 282q70 48 157 48l-21 -100q-71 -11 -103 -51t-58 -150h120l-47 -219h-234z" />
    <glyph glyph-name="afii57929" unicode="&#x2bc;" horiz-adv-x="506" 
d="M591 1462l-40 -190q-46 -215 -146 -283q-70 -48 -157 -48l21 100q71 10 103.5 51t57.5 151h-119l46 219h234z" />
    <glyph glyph-name="circumflex" unicode="&#x2c6;" 
d="M983 1214h-154l-89 194l-195 -194h-165l288 295h176z" />
    <glyph glyph-name="caron" unicode="&#x2c7;" 
d="M443 1509h154l90 -194l194 194h165l-287 -295h-177z" />
    <glyph glyph-name="uni02C9" unicode="&#x2c9;" 
d="M1046 1410l-25 -120h-628l25 120h628z" />
    <glyph glyph-name="breve" unicode="&#x2d8;" 
d="M696 1222q-120 0 -182.5 61.5t-62.5 179.5q0 13 1 44h100q4 -80 29 -115q37 -52 127 -52q164 0 225 167h100q-80 -285 -337 -285z" />
    <glyph glyph-name="dotaccent" unicode="&#x2d9;" 
d="M841 1462l-43 -205h-183l44 205h182z" />
    <glyph glyph-name="ring" unicode="&#x2da;" 
d="M694 1487q-48 0 -79 -31.5t-31 -81.5t31 -82t79 -32t82.5 33.5t34.5 79.5t-34.5 80t-82.5 34zM704 1592q90 0 151 -68t61 -158t-68 -150t-157 -61q-90 0 -151 66q-61 65 -61 157t67 153q68 61 158 61z" />
    <glyph glyph-name="ogonek" unicode="&#x2db;" 
d="M764 -196q0 -86 126 -86q36 0 84 14l-8 -95q-72 -22 -130 -22q-110 -1 -158 47t-48 112t41 114.5t143 111.5h113q-98 -71 -130.5 -110t-32.5 -86z" />
    <glyph glyph-name="tilde" unicode="&#x2dc;" 
d="M582 1348q-58 0 -85 -97h-99q31 97 56 135q55 83 132 83q26 0 53 -9.5t117 -51.5t108 -42q67 0 96 101h99q-43 -122 -87 -171t-99 -49q-55 1 -155 51t-136 50z" />
    <glyph glyph-name="hungarumlaut" unicode="&#x2dd;" 
d="M1116 1510l-259 -296h-111l178 296h192zM823 1510l-258 -296h-111l170 296h199z" />
    <glyph glyph-name="pi" unicode="&#x3c0;" horiz-adv-x="1206" 
d="M100 0l196 968h-159l29 145h1147l-30 -145h-157l-196 -968h-171l197 968h-490l-196 -968h-170z" />
    <glyph glyph-name="uni1E1E" unicode="&#x1e1e;" horiz-adv-x="1134" 
d="M1011 1821l-43 -205h-190l43 205h190zM1330 1462l-34 -164h-774l-99 -466h683l-34 -158h-683l-143 -674h-187l311 1462h960z" />
    <glyph glyph-name="uni1E1F" unicode="&#x1e1f;" horiz-adv-x="578" 
d="M696 1803l-43 -205h-183l44 205h182zM647 1482q70 0 137 -19l-28 -154q-41 14 -87 14q-104 0 -146 -67q-20 -33 -45 -143h210l-30 -150h-210l-195 -963h-173l195 963h-178l30 150h178q7 28 28 123t73 155q78 91 241 91z" />
    <glyph glyph-name="Wgrave" unicode="&#x1e80;" horiz-adv-x="1858" 
d="M1285 1579h-131l-202 286h206zM2078 1462l-668 -1462h-207l-93 1250l-582 -1250h-208l-96 1462h192l60 -1218l565 1218h216l93 -1201l529 1201h199z" />
    <glyph glyph-name="wgrave" unicode="&#x1e81;" horiz-adv-x="1462" 
d="M1003 1214h-117l-213 296h199zM1608 1060l-546 -1060h-187l-59 821l-377 -821h-187l-126 1060h185l78 -829l374 829h199l59 -820l400 820h187z" />
    <glyph glyph-name="Wacute" unicode="&#x1e82;" horiz-adv-x="1858" 
d="M2078 1462l-668 -1462h-207l-93 1250l-582 -1250h-208l-96 1462h192l60 -1218l565 1218h216l93 -1201l529 1201h199zM1552 1866l-337 -287h-137l242 287h232z" />
    <glyph glyph-name="wacute" unicode="&#x1e83;" horiz-adv-x="1462" 
d="M1187 1510l-345 -296h-122l243 296h224zM1608 1060l-546 -1060h-187l-59 821l-377 -821h-187l-126 1060h185l78 -829l374 829h199l59 -820l400 820h187z" />
    <glyph glyph-name="Wdieresis" unicode="&#x1e84;" horiz-adv-x="1858" 
d="M1547 1821l-44 -205h-190l44 205h190zM1098 1821l-43 -205h-190l43 205h190zM2078 1462l-668 -1462h-207l-93 1250l-582 -1250h-208l-96 1462h192l60 -1218l565 1218h216l93 -1201l529 1201h199z" />
    <glyph glyph-name="wdieresis" unicode="&#x1e85;" horiz-adv-x="1462" 
d="M1208 1536l-43 -215h-183l44 215h182zM851 1536l-44 -215h-183l44 215h183zM1608 1113l-546 -1113h-187l-59 862l-377 -862h-187l-126 1113h185l78 -870l374 870h199l59 -861l400 861h187z" />
    <glyph glyph-name="Ygrave" unicode="&#x1ef2;" horiz-adv-x="1199" 
d="M927 1579h-132l-202 286h206zM1464 1462l-714 -880l-124 -582h-187l127 597l-386 865h206l296 -699l554 699h228z" />
    <glyph glyph-name="ygrave" unicode="&#x1ef3;" horiz-adv-x="912" 
d="M728 1214h-116l-213 296h198zM25 -429q-54 0 -126 19l34 149q72 -23 117 -23q46 0 84 36t110 152q60 84 60 89t-1 8l-186 1059h187l128 -834l444 834h192l-536 -957q-152 -270 -223 -370q-115 -162 -284 -162z" />
    <glyph glyph-name="uni2011" unicode="&#x2011;" horiz-adv-x="456" 
d="M521 628l-36 -168h-497l36 168h497z" />
    <glyph glyph-name="figuredash" unicode="&#x2012;" horiz-adv-x="1129" 
d="M101 460v168h979l1 -168h-980z" />
    <glyph glyph-name="endash" unicode="&#x2013;" horiz-adv-x="1129" 
d="M101 460v168h979l1 -168h-980z" />
    <glyph glyph-name="emdash" unicode="&#x2014;" horiz-adv-x="1480" 
d="M30 488v168h1485l1 -168h-1486z" />
    <glyph glyph-name="afii00208" unicode="&#x2015;" horiz-adv-x="1480" 
d="M30 488v168h1485l1 -168h-1486z" />
    <glyph glyph-name="underscoredbl" unicode="&#x2017;" 
d="M46 -385h1097v-89h-1097v89zM46 -129h1097v-88h-1097v88z" />
    <glyph glyph-name="quoteleft" unicode="&#x2018;" horiz-adv-x="506" 
d="M253 971l41 190q45 214 145 282q70 48 157 48l-21 -100q-71 -11 -103 -51t-58 -150h120l-47 -219h-234z" />
    <glyph glyph-name="quoteright" unicode="&#x2019;" horiz-adv-x="506" 
d="M591 1462l-40 -190q-46 -215 -146 -283q-70 -48 -157 -48l21 100q71 10 103.5 51t57.5 151h-119l46 219h234z" />
    <glyph glyph-name="quotesinglbase" unicode="&#x201a;" horiz-adv-x="506" 
d="M327 219l-40 -190q-37 -172 -109 -250.5t-194 -80.5l21 100q72 12 104 52t57 150h-119l46 219h234z" />
    <glyph glyph-name="quotereversed" unicode="&#x201b;" horiz-adv-x="506" 
d="M432 941q-162 0 -162 148q0 75 34 183l61 190h234l-70 -219h-119q-26 -89 -26 -126q0 -64 80 -76z" />
    <glyph glyph-name="quotedblleft" unicode="&#x201c;" horiz-adv-x="864" 
d="M255 979l41 193q34 161 102 235.5t187 83.5l-21 -99q-65 -18 -88 -41q-43 -42 -66 -160h112l-45 -212h-222zM626 979l41 193q34 161 101.5 235.5t187.5 83.5l-21 -99q-65 -18 -98 -50t-57 -151h112l-45 -212h-221z" />
    <glyph glyph-name="quotedblright" unicode="&#x201d;" horiz-adv-x="864" 
d="M950 1462l-41 -193q-34 -162 -101 -235.5t-188 -84.5l21 100q63 17 97 50t58 151h-112l45 212h221zM579 1462l-41 -193q-34 -161 -101 -235t-188 -85l21 100q64 17 98 50t57 151h-112l45 212h221z" />
    <glyph glyph-name="quotedblbase" unicode="&#x201e;" horiz-adv-x="864" 
d="M684 212l-41 -193q-34 -162 -101 -235.5t-188 -84.5l21 100q65 18 88 41q43 42 67 160h-112l45 212h221zM313 212l-41 -193q-34 -161 -101 -235t-188 -85l21 100q65 19 98 51t57 150h-112l45 212h221z" />
    <glyph glyph-name="dagger" unicode="&#x2020;" horiz-adv-x="1129" 
d="M871 1462l-91 -426h400l-32 -149h-399l-276 -1295h-172l275 1295h-397l32 149h397l90 426h173z" />
    <glyph glyph-name="daggerdbl" unicode="&#x2021;" horiz-adv-x="1129" 
d="M866 1462l-98 -458h405l-31 -146h-405l-141 -667h405l-31 -146h-406l-96 -453h-167l97 453h-397l31 146h397l141 667h-396l31 146h396l98 458h167z" />
    <glyph glyph-name="bullet" unicode="&#x2022;" horiz-adv-x="1421" 
d="M779 1052q123 0 211 -90t89 -216q0 -128 -88 -218q-89 -90 -213 -89q-124 -1 -213 89t-89 219t90 217t213 88z" />
    <glyph glyph-name="ellipsis" unicode="&#x2026;" horiz-adv-x="1600" 
d="M1426 227l-48 -227h-240l48 227h240zM879 227l-48 -227h-240l48 227h240zM332 227l-48 -227h-240l48 227h240z" />
    <glyph glyph-name="perthousand" unicode="&#x2030;" horiz-adv-x="2220" 
d="M1874 559q-54 1 -96 -31t-75 -119.5t-33 -181.5q0 -137 124 -137q111 0 154.5 115t43.5 193t-32 119.5t-86 41.5zM2142 411q0 -94 -32 -184t-87 -148q-97 -102 -233 -102t-200 76q-64 75 -65 185q0 110 65 273.5t275 163.5q118 0 184 -49q93 -70 93 -215zM1135 557
q-114 0 -150 -133t-36 -192q0 -145 127 -145q67 0 109 53q85 107 85 262t-135 155zM1156 673q99 0 163 -44q99 -67 99 -221q0 -99 -63 -265.5t-299 -166.5q-126 0 -189 76t-63 172q0 187 93 318t259 131zM549 1341q-69 1 -109 -47t-64.5 -123t-24.5 -152q0 -148 122 -148
q73 -1 113 53q82 109 83 276q0 141 -120 141zM564 1458q257 0 257 -281q0 -190 -121 -318q-94 -101 -232 -101q-103 0 -170 51q-92 72 -92 221q0 94 59.5 261t298.5 167zM1493 1503l-1221 -1571h-145l1220 1571h146z" />
    <glyph glyph-name="guilsinglleft" unicode="&#x2039;" horiz-adv-x="506" 
d="M493 882l-38 -181l-245 -139l174 -192l-35 -164l-253 281l44 187z" />
    <glyph glyph-name="guilsinglright" unicode="&#x203a;" horiz-adv-x="507" 
d="M210 882l253 -283l-44 -184l-353 -209l39 183l245 137l-175 191z" />
    <glyph glyph-name="uni203E" unicode="&#x203e;" 
d="M46 1877h1097v-119h-1097v119z" />
    <glyph glyph-name="glyph404" unicode="&#x2044;" horiz-adv-x="292" 
d="M680 1445l-820 -1445h-119l820 1445h119z" />
    <glyph glyph-name="franc" unicode="&#x20a3;" horiz-adv-x="1307" 
d="M1329 662q-143 0 -242 -115q-80 -92 -119 -275l-58 -272h-155l171 803h144l-43 -204q40 100 137.5 164.5t206.5 64.5q26 0 58 -4l-36 -166q-31 4 -64 4zM1204 1433l-34 -162h-656l-100 -468h434l-33 -156h-434l-138 -647h-184l305 1433h840z" />
    <glyph glyph-name="lira" unicode="&#x20a4;" horiz-adv-x="1129" 
d="M232 1006q0 144 76 258q141 212 416 213q246 0 371 -174q79 -110 79 -257q0 -24 -2 -52h-175q1 28 1 37q0 135 -70 211t-205 76q-170 0 -258 -131q-56 -84 -56 -193q0 -34 9 -86h387l-18 -87h-351q6 -27 24 -85t27 -120h256l-18 -87h-233q-1 -110 -49 -182.5t-207 -205.5
q137 60 207 60q69 0 167 -29t126.5 -35.5t70.5 -6.5t70 11t129 71l65 -147q-149 -101 -285 -101q-72 0 -205 48t-195 49q-62 0 -94.5 -12t-161.5 -79l-60 156q259 204 259 378q0 7 -1 25h-229l19 87h197l-54 205h-100l19 87h62q-10 56 -10 98z" />
    <glyph glyph-name="peseta" unicode="&#x20a7;" horiz-adv-x="1866" 
d="M1829 382h-129q0 54 -27.5 77t-93.5 23q-101 0 -101 -54q0 -24 24 -39t119 -51q96 -36 137 -72t41 -110q0 -76 -71.5 -129t-189.5 -53q-178 0 -235 105q-22 41 -23 117h128q0 -49 19 -73q35 -45 107 -45q134 0 135 71q0 25 -21.5 42t-113.5 50t-127 61q-59 46 -59 118
t68 120t180 48t172.5 -49.5t60.5 -141.5v-15zM1086 128q0 -21 9.5 -29t35.5 -8t76 13l-24 -110q-45 -9 -90 -9q-143 0 -143 103q0 25 14 92l61 288h-102l22 105h103l34 163h129l-35 -163h120l-23 -105h-119l-61 -288q-7 -31 -7 -52zM514 731q136 0 200 11.5t114 47.5
t82.5 102.5t32.5 138.5q0 137 -93 197q-64 41 -274 41h-64l-114 -538h116zM639 1433q229 0 313 -51q180 -109 181 -329q-1 -165 -97 -303t-270 -163q-92 -14 -249 -14h-153l-122 -573h-184l305 1433h276z" />
    <glyph glyph-name="Euro" unicode="&#x20ac;" horiz-adv-x="1430" 
d="M866 129q221 0 359 169l-57 -265q-79 -29 -144 -47t-175 -18q-340 0 -497 237q-73 110 -99 277h-239l111 150h120q3 64 10 109h-183l111 148h103q52 190 167 331q222 275 593 275q322 0 483 -227l-139 -186q-50 251 -372 251q-183 0 -321.5 -113.5t-212.5 -323.5l-3 -7
h765l-111 -148h-691q-8 -55 -10 -109h619l-111 -150h-500q22 -126 85 -206q118 -147 339 -147z" />
    <glyph glyph-name="uni2101" unicode="&#x2101;" horiz-adv-x="2110" 
d="M1886 612q0 174 -198 174q-108 0 -163 -36t-55 -94t43 -89t167 -59t182 -62q109 -62 109 -188t-100.5 -200.5t-266.5 -74.5q-166 -1 -264 73t-98 224q0 5 1 21h132q-1 -90 30 -133q53 -75 193 -75t201 62q39 41 39 97t-40 85.5t-170 60.5t-187 66q-100 60 -100 176
t92.5 185.5t248.5 69.5t249 -73q48 -37 66.5 -82.5t18.5 -127.5h-130zM659 1325l-224 -368h295zM758 1462l180 -877h-142l-48 264h-376l-160 -264h-154l554 877h146zM1615 1507l-816 -1552h-128l817 1552h127z" />
    <glyph glyph-name="afii61248" unicode="&#x2105;" horiz-adv-x="1726" 
d="M1303 692q-104 0 -183 -97q-91 -108 -91 -268q0 -75 35 -133q52 -84 172 -84t198 112t78 257q0 99 -52.5 156t-156.5 57zM1314 794q166 0 243 -84t77 -227q0 -189 -112 -332t-296 -143q-152 0 -235 83.5t-83 236.5q0 95 33 185.5t90 152.5q117 128 283 128zM361 679
q-162 0 -240 102q-64 83 -64 210q0 78 25 161t66 142q117 169 326 169q136 1 206 -69t69 -172v-15h-122q1 155 -166 155q-114 0 -197 -101t-83 -268q0 -103 48 -157.5t138 -54.5q155 0 212 162h127q-32 -122 -125 -193t-220 -71zM1293 1507l-817 -1552h-127l817 1552h127z
" />
    <glyph glyph-name="afii61289" unicode="&#x2113;" 
d="M887 1299q0 35 -15.5 57.5t-38.5 22.5q-60 0 -97 -100q-60 -160 -130 -574q155 169 218 331t63 263zM522 136q0 -56 39 -56q27 0 50 25t49 79t50 53q31 1 31 -39t-44 -112q-77 -125 -181 -125q-75 0 -115.5 53t-40.5 138t19 270q-35 -37 -71 -66t-46 -29t-20 13.5
t-10 31.5t40 54t123 132q75 401 177 661t259 260q67 0 106.5 -50t39.5 -134q0 -186 -140 -412q-76 -122 -250 -303q-65 -352 -65 -444z" />
    <glyph glyph-name="afii61352" unicode="&#x2116;" horiz-adv-x="2452" 
d="M1380 0l36 172h879l-36 -172h-879zM2047 1090q-157 0 -262 -140q-87 -116 -87 -252t91 -195q56 -37 130 -37q156 0 265 139q86 109 86 237t-58.5 188t-164.5 60zM2050 1249q226 0 335 -150q73 -99 73 -216q0 -229 -155 -403q-155 -173 -393 -173q-184 0 -292 102.5
t-108 275.5q0 103 40 204.5t111 180.5q163 179 389 179zM1518 1462l-311 -1462h-216l-507 1174l-250 -1174h-183l311 1462h209l512 -1183l252 1183h183z" />
    <glyph glyph-name="uni2117" unicode="&#x2117;" horiz-adv-x="1679" 
d="M934 744q137 0 184 33q71 53 71 141t-55 125q-38 24 -163 24h-168l-68 -323h199zM1009 1165q137 0 194 -34q102 -61 102 -194q0 -77 -34.5 -144t-84.5 -97t-99.5 -38.5t-150.5 -8.5h-221l-77 -361h-111l185 877h297zM915 1389q-276 0 -467 -191q-91 -92 -141 -214
t-50 -254q0 -184 96 -342t247 -237q151 -78 320 -78t325 97q155 96 232 250t77 325t-94 329t-245 236q-151 79 -300 79zM142 747q0 200 112 383q112 182 290 274q179 92 378 92t383 -113t274 -291t90 -378t-112 -382q-112 -184 -290 -275q-179 -91 -377 -91t-382 112
t-275 290t-91 379z" />
    <glyph glyph-name="trademark" unicode="&#x2122;" horiz-adv-x="1822" 
d="M1925 1462l-178 -833h-127l136 641l-396 -641h-110l-130 653l-139 -653h-127l178 833h172l129 -684l416 684h176zM947 1462l-23 -106h-297l-155 -727h-127l155 727h-300l23 106h724z" />
    <glyph glyph-name="Omega" unicode="&#x2126;" horiz-adv-x="1420" 
d="M106 0v158h392q-395 231 -395 641q0 336 252 547q182 152 421 152t421 -152q252 -211 252 -548q0 -409 -395 -640h392v-158h-573v147q143 79 229 181q164 194 164 454t-184 432q-132 124 -306 124t-306 -124q-184 -172 -184 -445q0 -406 393 -622v-147h-573z" />
    <glyph glyph-name="estimated" unicode="&#x212e;" horiz-adv-x="1253" 
d="M995 625v204q-19 53 -63 106q-97 115 -261 115t-249 -91q-40 -42 -81 -130v-204h654zM658 82q263 0 367 230h96q-32 -103 -94 -175q-129 -151 -371 -151t-376 154q-133 154 -133 426t143 426t368 154q185 0 317 -102q97 -76 136.5 -185t42.5 -310h-818l-1 -231
q34 -112 87 -159q85 -77 236 -77z" />
    <glyph glyph-name="partialdiff" unicode="&#x2202;" 
d="M909 471q0 177 -97 261q-96 84 -208 84t-202 -71q-57 -44 -91.5 -120.5t-34.5 -158.5q0 -151 98 -248t214 -97t203 74q118 99 118 276zM1074 556q0 -235 -79 -355q-79 -121 -184 -173t-215 -52q-164 0 -294 101q-72 56 -119 133q-69 118 -69 264t74 262q74 118 176 168
t182 49q158 0 247 -64q29 -22 94 -95q-15 29 -73 164q-15 36 -62 96t-85 91q-171 141 -440 179l22 145q186 -25 308 -77q273 -117 410 -389q107 -212 107 -447z" />
    <glyph glyph-name="emptyset" unicode="&#x2205;" horiz-adv-x="1315" 
d="M730 1174q-197 0 -320 -148q-96 -115 -96 -259q0 -195 171 -332l362 720q-60 19 -117 19zM724 358q180 0 295 124t115 283q0 104 -47.5 194t-128.5 141l-362 -722q72 -20 128 -20zM1256 767q0 -149 -75 -271t-195 -192t-275 -70q-100 0 -173 36l-137 -269l-107 54
l134 268q-236 173 -236 442q0 141 72 270t200 196t240 67t200 -31l104 195l105 -55l-105 -194q248 -171 248 -446z" />
    <glyph glyph-name="Delta" unicode="&#x2206;" horiz-adv-x="1329" 
d="M294 158h870l-433 1110zM60 0l577 1462h186l579 -1462h-1342z" />
    <glyph glyph-name="product" unicode="&#x220f;" horiz-adv-x="1421" 
d="M103 1645h1348v-148h-162v-1898h162v-147h-490v147h164v1898h-696v-1898h161v-147h-487v147h163v1898h-163v148z" />
    <glyph glyph-name="summation" unicode="&#x2211;" horiz-adv-x="1421" 
d="M1361 1645v-508h-165l-17 340h-857l545 -887l-544 -972h876l10 344h172v-510h-1260v193l533 945l-533 865v190h1240z" />
    <glyph glyph-name="minus" unicode="&#x2212;" horiz-adv-x="1129" 
d="M152 786h951v-139h-951v139z" />
    <glyph glyph-name="fraction" unicode="&#x2215;" horiz-adv-x="292" 
d="M680 1445l-820 -1445h-119l820 1445h119z" />
    <glyph glyph-name="uni2218" unicode="&#x2218;" 
d="M594.5 542.5q82.5 -0.5 140.5 59.5t58 144t-59 144q-59 58 -140 58q-82 0 -140 -59t-58 -143t58 -144q58 -59 140.5 -59.5zM596 1052q124 0 212 -90t88 -216q0 -128 -88 -218t-212 -89q-124 -1 -214 89q-89 90 -89 219t90 217t213 88z" />
    <glyph glyph-name="periodcentered" unicode="&#x2219;" horiz-adv-x="506" 
d="M423 658l-48 -227h-240l48 227h240z" />
    <glyph glyph-name="radical" unicode="&#x221a;" horiz-adv-x="1421" 
d="M1508 1813v-152h-418l-486 -1661h-199l-182 636h-177v152h284l90 -300q8 -28 62 -263l8 -35h9q9 41 48 194l58 225l352 1204h551z" />
    <glyph glyph-name="infinity" unicode="&#x221e;" horiz-adv-x="1421" 
d="M418 959q-86 0 -141 -63q-54 -62 -54 -162t78 -159q57 -43 131 -43t136.5 47t141.5 166q-73 114 -139.5 164t-152.5 50zM1136 533q87 0 141 63t54 162t-78 158q-57 43 -131 43t-137 -47t-141 -166q73 -114 139 -163.5t153 -49.5zM413 414q-166 0 -258 119q-68 89 -68 216
q0 183 139 273q86 56 190 56q197 0 359 -242q162 242 367 242q169 0 260 -123q65 -87 65 -228t-97 -227t-227 -86q-204 0 -363 242q-165 -242 -367 -242z" />
    <glyph glyph-name="integral" unicode="&#x222b;" 
d="M372 -378q91 0 116 75q9 28 10 201v1269q1 180 7 271t96 149t173 58t165 -24l-37 -169q-47 22 -87 22q-89 0 -114 -75q-11 -32 -11 -148v-1318q0 -192 -8.5 -253t-42.5 -110q-81 -114 -287 -114q-55 0 -103 19l37 169q47 -22 86 -22z" />
    <glyph glyph-name="similar" unicode="&#x223c;" 
d="M369 897q80 0 212 -65t169 -78t72 -13q108 0 198 161l100 -80q-114 -252 -309 -252q-47 0 -94 17t-170 78t-182 61t-104 -37.5t-93 -123.5l-100 79q113 253 301 253z" />
    <glyph glyph-name="uni2243" unicode="&#x2243;" horiz-adv-x="1253" 
d="M146 685h951v-139h-951v139zM413 1128q80 0 213 -65t169 -78t83 -13t88.5 31.5t97.5 118.5l100 -68q-112 -251 -318 -251q-44 0 -90 17t-167 77t-180 60t-101.5 -33t-95.5 -117l-100 69q114 252 301 252z" />
    <glyph glyph-name="approxequal" unicode="&#x2248;" 
d="M369 699q81 0 213 -65t168.5 -78t83.5 -13t88 31t98 119l100 -69q-112 -250 -319 -250q-44 0 -87 16t-167 77q-125 61 -183 61t-101 -33.5t-95 -117.5l-100 69q114 253 301 253zM369 1084q81 0 213 -64t168 -77.5t84 -13.5t89 31t97 119l100 -69q-112 -250 -319 -250
q-43 0 -89 17t-167 77t-180 59q-59 0 -101.5 -33.5t-95.5 -116.5l-100 69q114 252 301 252z" />
    <glyph glyph-name="notequal" unicode="&#x2260;" 
d="M1070 973v-159h-344l-103 -210h447v-159h-508l-133 -268l-127 56l104 212h-287v159h348l104 210h-451v159h518l135 271l127 -56l-107 -215h277z" />
    <glyph glyph-name="lessequal" unicode="&#x2264;" 
d="M1070 324v-167h-951v167h951zM1070 1316v-179l-743 -286l742 -285l1 -179l-951 383v163z" />
    <glyph glyph-name="greaterequal" unicode="&#x2265;" 
d="M119 157v167h951v-167h-951zM119 387l1 179l742 285l-743 286v179l951 -383v-163z" />
    <glyph glyph-name="lozenge" unicode="&#x25ca;" horiz-adv-x="1421" 
d="M776 1326l-432 -594l432 -594l432 594zM776 1520l570 -788l-570 -788l-569 788z" />
    <glyph glyph-name="ffl" unicode="&#xfb04;" horiz-adv-x="1642" 
d="M1715 1462l-295 -1462h-173l296 1462h172zM647 1482q71 0 137 -18l-28 -155q-42 14 -87 14q-105 0 -146 -67q-21 -35 -45 -143h411q31 144 75 256.5t266 112.5q71 0 138 -18l-29 -155q-42 14 -87 14q-104 0 -145 -67q-21 -34 -46 -143h211l-31 -150h-210l-195 -963h-173
l196 963h-411l-195 -963h-173l195 963h-178l30 150h178q7 28 28 122q54 247 314 247z" />
    <glyph glyph-name="glyph172" horiz-adv-x="1129" 
 />
    <glyph glyph-name="glyph210" horiz-adv-x="507" 
 />
    </font>
</defs>
</svg>
